<svg xmlns="http://www.w3.org/2000/svg" viewBox="0 0 233.26 47.43"><g id="Capa_2" data-name="Capa 2"><g id="Capa_1-2" data-name="Capa 1"><path d="M56.71,20.55a1.74,1.74,0,0,0,1.1-1.61c0-1-.89-1.59-2-1.71v0c.6-.12,1.51-.55,1.51-1.47a1.27,1.27,0,0,0-.61-1.18,2.84,2.84,0,0,0-1.63-.35H51.75v.33c.91.07,1,.15,1,1.24V19.3c0,1.1-.09,1.17-1.07,1.25v.34h3A5.2,5.2,0,0,0,56.71,20.55ZM53.92,15c0-.36,0-.39.77-.39a1.25,1.25,0,0,1,1.42,1.25,1.19,1.19,0,0,1-1.36,1.24h-.83Zm0,4.34V17.5h.77c1,0,1.77.44,1.77,1.5A1.36,1.36,0,0,1,55,20.47C54.24,20.47,53.92,20.32,53.92,19.35Z" style="fill:#989fa7"/><path d="M61.53,20.55l-.35,0c-.43,0-.57-.18-.39-.69s.41-1.16.51-1.4h2.09l.51,1.22c.3.7.17.82-.26.87l-.28,0v.34h3v-.34c-.66-.05-.94-.11-1.3-1L62.85,14l-.38.09-2.22,5.27c-.43,1-.69,1.09-1.35,1.17v.34h2.63v-.34Zm.78-4.91h0l.87,2.28H61.47Z" style="fill:#989fa7"/><path d="M69.35,20a13.16,13.16,0,0,1-.09-1.92V15.87h0L73.85,21h.48V17a15.31,15.31,0,0,1,.09-1.94c.06-.36.38-.53,1-.55V14.2H72.56v.35c.75,0,1.08.19,1.14.55A15.31,15.31,0,0,1,73.79,17v2.07h0L69.3,14.2H67.46v.35c1,.07,1.26.3,1.26,1.5v2A14.9,14.9,0,0,1,68.63,20c-.06.36-.38.54-1,.57v.34h2.85v-.34C69.72,20.5,69.39,20.34,69.35,20Z" style="fill:#989fa7"/><path d="M82.84,20.79c.16-.39.39-1.31.55-1.88L83,18.85c-.56,1.17-1.13,1.77-2.24,1.77-1.6,0-2.65-1.29-2.65-3.21,0-1.68.9-2.94,2.55-2.94a1.92,1.92,0,0,1,2.1,1.65l.37-.05c-.07-.67-.12-1.21-.19-1.78A8.63,8.63,0,0,0,80.84,14c-2.28,0-4.06,1.45-4.06,3.6,0,1.71,1.23,3.45,3.93,3.45A11.13,11.13,0,0,0,82.84,20.79Z" style="fill:#989fa7"/><path d="M88.3,14a3.54,3.54,0,0,0-3.57,3.68,3.42,3.42,0,0,0,3.59,3.37,3.46,3.46,0,0,0,3.54-3.6A3.38,3.38,0,0,0,88.3,14Zm.13,6.6c-1.48,0-2.35-1.33-2.35-3.28s.87-2.87,2.09-2.87c1.5,0,2.34,1.59,2.34,3.3C90.51,19.87,89.59,20.62,88.43,20.62Z" style="fill:#989fa7"/><path d="M103.26,20.79c.17-.39.39-1.31.55-1.88l-.37-.06c-.56,1.17-1.13,1.77-2.23,1.77-1.61,0-2.66-1.29-2.66-3.21,0-1.68.9-2.94,2.55-2.94a1.92,1.92,0,0,1,2.1,1.65l.38-.05c-.08-.67-.12-1.21-.2-1.78a8.63,8.63,0,0,0-2.12-.27c-2.28,0-4.06,1.45-4.06,3.6,0,1.71,1.23,3.45,3.93,3.45A11,11,0,0,0,103.26,20.79Z" style="fill:#989fa7"/><path d="M111.06,19.14l-.39-.05a2.41,2.41,0,0,1-.54,1,2,2,0,0,1-1.35.33,2.92,2.92,0,0,1-1.2-.12c-.21-.1-.28-.43-.28-1V17.67h1.18c1,0,1,0,1.1.87H110V16.33h-.37c-.12.77-.15.82-1.1.82H107.3V15c0-.37,0-.37.43-.37h.84a1.69,1.69,0,0,1,1.2.3,2,2,0,0,1,.38,1l.37,0c-.06-.69-.1-1.39-.12-1.68h-5.3v.35c1,0,1,.13,1,1.24v3.5c0,1.11-.08,1.19-1.13,1.26v.34h5.67C110.76,20.61,111,19.53,111.06,19.14Z" style="fill:#989fa7"/><path d="M113.41,20c-.07.36-.38.54-1,.57v.34h2.85v-.34c-.75-.05-1.08-.21-1.12-.57a13.16,13.16,0,0,1-.09-1.92V15.87h0l4.58,5.1h.48V17a13.52,13.52,0,0,1,.09-1.94c.06-.36.37-.53,1-.55V14.2h-2.86v.35c.75,0,1.08.19,1.14.55a15.31,15.31,0,0,1,.09,1.94v2.07h0l-4.46-4.91h-1.84v.35c1,.07,1.25.3,1.25,1.5v2A15.7,15.7,0,0,1,113.41,20Z" style="fill:#989fa7"/><path d="M123,20.55v.34h3.46v-.34c-1.08-.08-1.17-.15-1.17-1.25V14.65h.68c.64,0,1,.09,1.2.29a2,2,0,0,1,.39,1.05l.37,0c0-.64-.11-1.59-.13-2h-.2a.51.51,0,0,1-.5.25h-4.66a.57.57,0,0,1-.57-.25h-.19c0,.52-.09,1.25-.14,2h.36a2.24,2.24,0,0,1,.41-1c.16-.18.46-.35,1.35-.35h.46V19.3C124.07,20.4,124,20.47,123,20.55Z" style="fill:#989fa7"/><path d="M132.78,20.55c-1-.08-1.05-.15-1.05-1.25V18h.45c.42,0,.52,0,.73.41a18.07,18.07,0,0,0,1,1.63,2.33,2.33,0,0,0,2.2.93h.23l0-.3a1.89,1.89,0,0,1-.78-.45,6.31,6.31,0,0,1-.88-1.08c-.32-.45-.81-1.17-1-1.48a1.85,1.85,0,0,0,1.45-1.75,1.54,1.54,0,0,0-.73-1.37,3.37,3.37,0,0,0-1.71-.35h-3.26v.35c.93.07,1,.13,1,1.24V19.3c0,1.1-.1,1.17-1.07,1.25v.34h3.29Zm-1.05-5.5c0-.41,0-.43.7-.43A1.4,1.4,0,0,1,134,16.06a1.56,1.56,0,0,1-.56,1.29,1.86,1.86,0,0,1-1,.24h-.68Z" style="fill:#989fa7"/><path d="M142.05,20.52l-.29,0v.34h3v-.34c-.66-.05-.94-.11-1.31-1L141.25,14l-.37.09-2.22,5.27c-.44,1-.7,1.09-1.35,1.17v.34h2.62v-.34l-.35,0c-.43,0-.57-.18-.39-.69s.41-1.16.51-1.4h2.09l.51,1.22C142.6,20.35,142.46,20.47,142.05,20.52Zm-2.18-2.6.84-2.28h0l.87,2.28Z" style="fill:#989fa7"/><path d="M151.89,19.11l-.39-.05a2.59,2.59,0,0,1-.51,1,1.77,1.77,0,0,1-1.31.37,2.57,2.57,0,0,1-1.08-.12c-.21-.1-.28-.4-.28-1V15.79c0-1.12.09-1.19,1.12-1.24V14.2H146.1v.35c1,0,1.05.12,1.05,1.24v3.5c0,1.12-.08,1.2-1.13,1.26v.34h5.48C151.59,20.61,151.81,19.45,151.89,19.11Z" style="fill:#989fa7"/><path d="M55.05,26.62H51.76V27c.9.07,1,.13,1,1.24v3.51c0,1.1-.09,1.18-1.08,1.25v.35h2.94c2.4,0,4.41-1.1,4.41-3.61a2.94,2.94,0,0,0-.9-2.18A4.4,4.4,0,0,0,55.05,26.62ZM55,32.85c-1,0-1.07-.22-1.07-1.07V27.65c0-.28,0-.43.11-.49a1.52,1.52,0,0,1,.75-.12c1.81,0,2.89.85,2.89,2.95C57.67,31.71,56.83,32.85,55,32.85Z" style="fill:#989fa7"/><path d="M65.69,32.52a2,2,0,0,1-1.35.33,3.12,3.12,0,0,1-1.2-.11c-.22-.11-.29-.44-.29-1V30.08H64c.94,0,1,.05,1.09.87h.38v-2.2h-.38c-.12.76-.15.82-1.09.82H62.85V27.44c0-.37,0-.37.44-.37h.84a1.65,1.65,0,0,1,1.19.3,1.75,1.75,0,0,1,.38,1l.38,0C66,27.6,66,26.9,66,26.62h-5.3V27c.94.06,1,.13,1,1.24v3.5c0,1.11-.08,1.19-1.13,1.26v.35h5.68c.09-.29.31-1.37.39-1.76l-.39,0A2.36,2.36,0,0,1,65.69,32.52Z" style="fill:#989fa7"/><path d="M76.71,32.48a1.73,1.73,0,0,1-1.3.37,2.78,2.78,0,0,1-1.08-.11c-.21-.11-.29-.41-.29-1V28.2c0-1.12.09-1.18,1.13-1.24v-.34H71.82V27c1,.06,1.05.12,1.05,1.24v3.5c0,1.12-.07,1.2-1.12,1.26v.35h5.48c.08-.29.31-1.44.38-1.79l-.38-.05A2.39,2.39,0,0,1,76.71,32.48Z" style="fill:#989fa7"/><path d="M84.8,32l-2.23-5.54-.38.09L80,31.79c-.44,1-.69,1.1-1.35,1.17v.35h2.63V33l-.35,0c-.43,0-.57-.18-.39-.69s.41-1.15.51-1.39h2.09l.51,1.21c.3.7.16.83-.26.87l-.28,0v.35h3V33C85.45,32.91,85.16,32.85,84.8,32Zm-3.61-1.63L82,28.05h0l.87,2.29Z" style="fill:#989fa7"/><path d="M96.42,31.56c-.32-.45-.81-1.16-1-1.48a1.85,1.85,0,0,0,1.46-1.74A1.56,1.56,0,0,0,96.16,27a3.45,3.45,0,0,0-1.71-.34H91.19V27c.93.07,1,.13,1,1.24v3.51c0,1.1-.1,1.18-1.07,1.25v.35h3.29V33c-1-.07-1-.15-1-1.25V30.42h.45a.64.64,0,0,1,.73.41,18.91,18.91,0,0,0,1,1.63,2.36,2.36,0,0,0,2.2.94H98l0-.3a2.14,2.14,0,0,1-.78-.45A7.09,7.09,0,0,1,96.42,31.56Zm-1.34-1.8a1.87,1.87,0,0,1-1,.25h-.68V27.47c0-.42,0-.44.7-.44a1.4,1.4,0,0,1,1.55,1.44A1.56,1.56,0,0,1,95.08,29.76Z" style="fill:#989fa7"/><path d="M104.13,32.52a2,2,0,0,1-1.35.33,3.18,3.18,0,0,1-1.2-.11c-.21-.11-.29-.44-.29-1V30.08h1.19c1,0,1,.05,1.1.87H104v-2.2h-.37c-.12.76-.15.82-1.1.82h-1.19V27.44c0-.37,0-.37.44-.37h.84a1.69,1.69,0,0,1,1.2.3,1.92,1.92,0,0,1,.38,1l.37,0c-.06-.7-.1-1.4-.12-1.68H99.1V27c1,.06,1,.13,1,1.24v3.5c0,1.11-.07,1.19-1.12,1.26v.35h5.67c.09-.29.32-1.37.39-1.76l-.39,0A2.36,2.36,0,0,1,104.13,32.52Z" style="fill:#989fa7"/><path d="M109.88,26.62h-3.32V27c.9.07,1,.13,1,1.24v3.51c0,1.1-.09,1.18-1,1.25v.35h3.39V33c-1.08-.07-1.17-.15-1.17-1.25V30.45l.87.21c.14,0,.32,0,.57,0,1.22-.15,2.24-.84,2.24-2.09S111.36,26.62,109.88,26.62Zm-.3,3.56a3,3,0,0,1-.86-.14V27.56c0-.51,0-.53.77-.53a1.42,1.42,0,0,1,1.62,1.52A1.45,1.45,0,0,1,109.58,30.18Z" style="fill:#989fa7"/><path d="M118.94,27c.75,0,1.08.2,1.14.56a13.45,13.45,0,0,1,.09,1.93v.67c0,1.63-.51,2.75-2,2.75-1.32,0-1.91-1-1.91-2.62v-2c0-1.11.09-1.18,1-1.26v-.34H114V27c1,.07,1.07.15,1.07,1.26v2.33a2.79,2.79,0,0,0,.82,2.38,3.11,3.11,0,0,0,1.93.56,2.92,2.92,0,0,0,2.06-.75,3.34,3.34,0,0,0,.81-2.36v-.93a15.23,15.23,0,0,1,.09-1.93c.06-.36.38-.53,1-.56v-.34h-2.87Z" style="fill:#989fa7"/><path d="M119.26,23.54c-.21-.12-.37-.15-.51.1L117,26l.25.15,2.21-1.91c.27-.22.28-.4,0-.58Z" style="fill:#989fa7"/><path d="M127.34,29.65v0c.6-.11,1.52-.55,1.52-1.46a1.3,1.3,0,0,0-.62-1.19,2.8,2.8,0,0,0-1.61-.34h-3.4v.32c.92.08,1,.15,1,1.25v3.52c0,1.1-.09,1.18-1.07,1.25v.35h3a5,5,0,0,0,2-.35,1.74,1.74,0,0,0,1.1-1.6C129.3,30.32,128.41,29.76,127.34,29.65Zm-1.93-2.23c0-.35,0-.39.76-.39s1.43.36,1.43,1.25-.65,1.24-1.37,1.24h-.82v-2.1Zm1,5.47c-.72,0-1-.15-1-1.13V29.91h.76c1,0,1.77.44,1.77,1.5A1.36,1.36,0,0,1,126.44,32.89Z" style="fill:#989fa7"/><path d="M136,32.48a1.77,1.77,0,0,1-1.31.37,2.81,2.81,0,0,1-1.08-.11c-.21-.11-.28-.41-.28-1V28.2c0-1.12.09-1.18,1.12-1.24v-.34H131.1V27c1,.06,1.05.12,1.05,1.24v3.5c0,1.12-.08,1.2-1.13,1.26v.35h5.48c.09-.29.31-1.44.39-1.79l-.39-.05A2.52,2.52,0,0,1,136,32.48Z" style="fill:#989fa7"/><path d="M138.12,27c1,.07,1,.13,1,1.24v3.51c0,1.1-.09,1.18-1,1.25v.35h3.27V33c-1-.07-1-.15-1-1.25V28.2c0-1.11.09-1.16,1-1.24v-.34h-3.27Z" style="fill:#989fa7"/><path d="M147.05,33c-1.61,0-2.66-1.29-2.66-3.22,0-1.67.9-2.94,2.55-2.94a1.91,1.91,0,0,1,2.1,1.65l.38,0c-.08-.68-.12-1.22-.2-1.79a9.06,9.06,0,0,0-2.11-.27c-2.28,0-4.07,1.46-4.07,3.61,0,1.71,1.23,3.45,3.93,3.45a10,10,0,0,0,2.13-.29c.17-.39.39-1.3.56-1.88l-.38-.06C148.73,32.44,148.16,33,147.05,33Z" style="fill:#989fa7"/><path d="M156.86,32l-2.23-5.54-.38.09L152,31.79c-.44,1-.69,1.1-1.35,1.17v.35h2.62V33l-.34,0c-.43,0-.57-.18-.39-.69s.4-1.15.51-1.39h2.08l.52,1.21c.3.7.16.83-.26.87l-.29,0v.35h3V33C157.51,32.91,157.22,32.85,156.86,32Zm-3.62-1.63.84-2.29h0l.87,2.29Z" style="fill:#989fa7"/><path d="M169,32l-2.24-5.54-.37.09-2.22,5.27c-.44,1-.69,1.1-1.35,1.17v.35h2.62V33l-.34,0c-.44,0-.57-.18-.39-.69s.4-1.15.51-1.39h2.08l.52,1.21c.3.7.16.83-.26.87l-.29,0v.35h3V33C169.64,32.91,169.36,32.85,169,32Zm-3.62-1.63.84-2.29h0l.87,2.29Z" style="fill:#989fa7"/><path d="M176.86,31.56c-.31-.45-.81-1.16-1-1.48a1.84,1.84,0,0,0,1.45-1.74,1.55,1.55,0,0,0-.73-1.38,3.48,3.48,0,0,0-1.71-.34h-3.26V27c.93.07,1,.13,1,1.24v3.51c0,1.1-.09,1.18-1.07,1.25v.35h3.29V33c-1-.07-1-.15-1-1.25V30.42h.45c.42,0,.53,0,.74.41a18.68,18.68,0,0,0,1,1.63,2.37,2.37,0,0,0,2.21.94h.22l.05-.3a2.14,2.14,0,0,1-.78-.45A6.5,6.5,0,0,1,176.86,31.56Zm-1.33-1.8a1.89,1.89,0,0,1-1,.25h-.69V27.47c0-.42,0-.44.71-.44a1.39,1.39,0,0,1,1.54,1.44A1.56,1.56,0,0,1,175.53,29.76Z" style="fill:#989fa7"/><path d="M183.47,30.45c1.27.11,1.32.19,1.32.87v1c0,.59-.56.67-1.08.67-2,0-2.82-1.63-2.82-3.2,0-1.84,1.08-3,2.56-3a2,2,0,0,1,2.18,1.68l.38,0c-.1-.88-.14-1.48-.19-1.83a9.3,9.3,0,0,0-2.1-.27c-2.16,0-4.19,1.25-4.19,3.61,0,2,1.69,3.45,4.13,3.45a9.63,9.63,0,0,0,2.4-.43,3.33,3.33,0,0,1-.1-.93v-.81c0-.73,0-.76.67-.87v-.34h-3.16v.34Z" style="fill:#989fa7"/><path d="M193.13,32.52a2,2,0,0,1-1.35.33,3.18,3.18,0,0,1-1.2-.11c-.21-.11-.28-.44-.28-1V30.08h1.18c1,0,1,.05,1.1.87H193v-2.2h-.37c-.12.76-.15.82-1.1.82H190.3V27.44c0-.37,0-.37.43-.37h.84a1.69,1.69,0,0,1,1.2.3,1.92,1.92,0,0,1,.38,1l.37,0c-.06-.7-.1-1.4-.12-1.68h-5.29V27c.94.06,1,.13,1,1.24v3.5c0,1.11-.07,1.19-1.12,1.26v.35h5.67c.09-.29.32-1.37.39-1.76l-.39,0A2.36,2.36,0,0,1,193.13,32.52Z" style="fill:#989fa7"/><path d="M200.34,27c.75,0,1.08.2,1.14.56a15.23,15.23,0,0,1,.09,1.93v2.07h0l-4.46-4.9h-1.85V27c1,.07,1.27.3,1.27,1.5v2a12.49,12.49,0,0,1-.1,1.92c-.05.36-.37.54-1,.57v.35h2.85V33c-.75-.05-1.08-.21-1.12-.57a13.06,13.06,0,0,1-.09-1.92V28.28h0l4.58,5.1h.48V29.45a13.45,13.45,0,0,1,.09-1.93c.06-.36.37-.53,1-.56v-.34h-2.86V27Z" style="fill:#989fa7"/><path d="M210.55,26.36a.5.5,0,0,1-.51.26h-4.65a.58.58,0,0,1-.57-.26h-.19c0,.52-.09,1.26-.14,2h.36a2.24,2.24,0,0,1,.41-1c.16-.18.46-.34,1.35-.34h.46v4.64c0,1.1-.08,1.18-1.12,1.25v.35h3.46V33c-1.07-.07-1.17-.15-1.17-1.25V27.07h.68c.64,0,1,.08,1.2.28a2,2,0,0,1,.39,1l.38,0c-.06-.65-.13-1.59-.14-2Z" style="fill:#989fa7"/><path d="M212.46,27c1,.07,1,.13,1,1.24v3.51c0,1.1-.09,1.18-1,1.25v.35h3.27V33c-1-.07-1-.15-1-1.25V28.2c0-1.11.09-1.16,1-1.24v-.34h-3.27Z" style="fill:#989fa7"/><path d="M222.3,27c.75,0,1.08.2,1.14.56a13.45,13.45,0,0,1,.09,1.93v2.07h0L219,26.62H217.2V27c1,.07,1.26.3,1.26,1.5v2a13.06,13.06,0,0,1-.09,1.92c-.06.36-.37.54-1,.57v.35h2.85V33c-.75-.05-1.08-.21-1.13-.57a13.06,13.06,0,0,1-.09-1.92V28.28h0l4.57,5.1h.48V29.45a15.23,15.23,0,0,1,.09-1.93c.06-.36.38-.53,1-.56v-.34H222.3Z" style="fill:#989fa7"/><path d="M232,32l-2.23-5.54-.38.09-2.22,5.27c-.43,1-.69,1.1-1.35,1.17v.35h2.63V33l-.35,0c-.43,0-.57-.18-.39-.69s.41-1.15.51-1.39h2.09l.51,1.21c.3.7.16.83-.26.87l-.28,0v.35h3V33C232.6,32.91,232.31,32.85,232,32Zm-3.61-1.63.84-2.29h0l.87,2.29Z" style="fill:#989fa7"/><path d="M23.71,0A23.72,23.72,0,1,0,47.43,23.72,23.72,23.72,0,0,0,23.71,0Zm0,46.87A23.16,23.16,0,1,1,46.87,23.72,23.16,23.16,0,0,1,23.71,46.87Z" style="fill:#989fa7"/><path d="M23.71,1.24A22.48,22.48,0,1,0,46.19,23.72,22.47,22.47,0,0,0,23.71,1.24ZM42.52,35a.54.54,0,0,1-.59.31c-.68,0-.58-1.23-1.26-1.23-.87,0-.61,1.19-1.2,1.19s-.45-.78-1.19-.78a11.93,11.93,0,0,1-1.93.52c-.42,0-.62-.19-.62-.71s-.55-.84-1.12-.84H32.22c-1.42,0-2.13-.87-2.29-.71-.42.42.67,1.23,1.8,1.74s1.4,1.37,1.65,1.37.23-.19.23-.3a1.08,1.08,0,0,0-.43-.84c0-.14.07-.17.17-.17,1.09,0,.9,1.46,2.67,1.46a11.38,11.38,0,0,0,1.62-.34c.9,0,.71,1.86,1.71,1.86.29,0,.35-.15.35-.51,0-.56-.1-1.16.23-1.16s.66.62,1.62.62a16.54,16.54,0,0,1-1.57,2,1.35,1.35,0,0,1-1,.51c-1.52,0-1.23-1.27-2.36-1.27a2,2,0,0,0-1.32.35c-.16.17.06.46.29.46,1.13,0,.77,1.56,1.64,1.56.62,0,.84-.48.84-.19A1.17,1.17,0,0,1,36.73,41c-1.32,0-.78-1-2.77-1a1.53,1.53,0,0,1-1.45-1.39c0-.32.48,0,1.45,0,.51,0,.84-.09.84-.35s-.38-.37-.84-.37c-1.81,0-1.48-1.24-2.94-2.18a5.57,5.57,0,0,1-1.68-1.49,3.42,3.42,0,0,1-.61-1.54c-.1-1-.55-2.1-1.58-2.1-.32,0-.32.32-.32.93,0,.91-.61,1.23-.36,1.49s.65-.39,1-.39c.58,0,.25,1.07,1.48,2.29,1.44,1.44,2.71,1.25,2.71,3.74,0,.48-.19.91-.52.91-.58,0-.42-1.1-.42-1.78a1.44,1.44,0,0,0-1-1.25c-.12,0-.39-.13-.39.13s.81.51.81,1.12S30,39,30,39.51c.08,1.69,3.06.73,3.06,2.33a1.73,1.73,0,0,0,.75,1.33,21.86,21.86,0,0,1-10.1,2.47,20.11,20.11,0,0,1-4.66-.51,2.22,2.22,0,0,0,1-1.91c0-1.27-.28-3.28-.28-4.55a3.45,3.45,0,0,1,1.09-2.94c.47-.41,2.16-1.87,2.88-2.52.3-.26.57-.57.57-.8s-.19-.12-.27,0c-2.12,1.73-4.73,3.18-7.38,3.18-1.58,0-3.83-.48-3.83-2.06,0-.84.74-1.1.74-1.85A.54.54,0,0,0,13,31.1c-.39,0-.83,0-.83-.33s.28-.4.67-.4c1.17,0,1.2.43,1.74.43a.21.21,0,0,0,.2-.25c0-.34-.52-.53-.89-.56s-1-.78-1.69-1a1,1,0,0,0,.12-1.21c.4,0,.42.23.83.23a1,1,0,0,0,1-1.05,1.16,1.16,0,0,0-.84-1.09c-.09,0-.25,0-.25.07s0,.11.22.29a.94.94,0,0,1,.29.73c0,.26-.19.4-.46.4s-.72-.46-1.31-.46a.67.67,0,0,0-.59.52c-.6-.23-1.16-.33-1.16-.72A10.75,10.75,0,0,1,10.72,25c.65-1.87,1.67-3.62,1.67-4.32,0-.35-.21-.33-.21-.65A4.32,4.32,0,0,1,13,18.14c.25-.25,1-.41,1.68.3s1.42.74,1.74,1.07.86,1.35,1.22,1.35c.13,0,.26,0,.26-.06s-.24-.2-.51-.52-.65-1.45-1.27-1.45S15,17.38,14.34,17.38a1.37,1.37,0,0,1-1.47-1.26.58.58,0,0,1,.54-.62c.19,0,.2.14.2.33s0,.34.25.56a5.53,5.53,0,0,0,1,.5c.29.16.38.42.51.55s.34,0,.42.1.23.43.39.58.68.26,1,.58.26,1.1.81,1.64c.23.23.43.4.64.59s.31.58.49.73c.39.33.71.33.83.2s-.25-.14-.5-.42-.15-.41-.35-.64-.54-.52-.76-.81c-.45-.56-.38-1.2-.86-1.68s-.78-.38-1.07-.67-.17-.49-.46-.78-1.88-.64-1.35-1.18c.32-.32.83.41,1,.21s0-.19.16-.34.48.19.63.19a.22.22,0,0,0,.22-.2c0-.55-1.46-.93-1.82-.93-.16,0-.21-.14-.21-.33,0-.41-.4-1.2-.4-1.45s.42-.39.42-.62-.18-.16-.32-.09-.68.34-.68.71c0,.61.42.71.42,1.45,0,.42-.64.39-1.1.55s-1,.48-1,1.06.71.68.49.91-1.2-.29-1.2-1.1c0-1,1.07-1.23,1.07-1.39s-.87-.48-.87-1.32,1-.84,1-2.22a.92.92,0,0,1,.5.7c0,.68-.77,1-.77,1.65a1.07,1.07,0,0,0,.93.93c.13,0,.26,0,.26-.25s-.48-.4-.48-1c0-.87,2-1.33,2-2.13,0-.65-.78-.65-.78-1.13s.68-.42.68-.42a1.1,1.1,0,0,0-.06.42c0,.42.81.58.81,1.13,0,.35-.52.77-.36.93s.87-.58,1.1-.35-1.49,1-1.49,1.71c0,.23.23,1,.46,1s.21-.06.21-.32a5.85,5.85,0,0,1-.09-.71c0-.52,1.59-.91,1.59-1.75,0-.67-1.65-1.34-1.65-1.86s.09-.84.71-.94c.26,0,.35,0,.35.13,0,.29-.32.36-.32.81,0,.61,1.65.8,1.65,1.74,0,.32.23.42.61.51,1,.23,2.77.49,2.84.49s.14-.1.14-.19-.06-.23-.4-.3A13.23,13.23,0,0,1,18.38,11c0-.19.55-.5,1.8-1a13.94,13.94,0,0,1,4.94-1.32c1.91,0,6.51,1.84,6.51,2.11s.62.59.71.69a10.85,10.85,0,0,1,1.52,2.65.6.6,0,0,0,.35.35c.22,0,.2-.35.2-.35,0-.65-1.29-2.49-1.29-2.68s.13-.27.13-.45-.08-.32-.36-.45c-2.1-1-5.1-1.87-5.1-2.16s1.13-.2,1.13-.75c0-.31-2.41.45-3.8.45s-3.2.42-3.2-.94,1.94-1.76,3.31-1.76a13,13,0,0,1,9.36,3.45c1.72,1.77,3.1,6.71,3.1,8.74A49.45,49.45,0,0,1,37,23.18a1.16,1.16,0,0,0,1.21,1.39c.84,0,.75-.32,1.49-.32a.62.62,0,0,1,.68.65c0,.86.25,1.41,1,1.41a.92.92,0,0,0,.88-.93c0-.32-.14-.78-.49-.78s.23,1.07-.42,1.07c-.38,0-.32-.36-.32-.77a1.25,1.25,0,0,0-1.32-1.23c-.78,0-1,.32-1.46.29-.29,0-.58-.26-.56-.74,0-1,.71-2.6.71-5.65,0-2.42-1.44-7.23-3.13-9-2.2-2.35-5.82-3.72-10-3.72-1.89,0-4,.53-4,2.33a1.77,1.77,0,0,0,.58,1.23c.1.11.15.38,0,.42a16.9,16.9,0,0,0-3.61,1.52c-.3-.29-1.46-.81-1.46-.93s.26-.45.26-.94-.22-1.07-.71-1.07c-.06,0-.16.08-.16.13s.1.2.1.29,0,.08-.16.1a2.08,2.08,0,0,0-1,.74,1.75,1.75,0,0,0-.84,0,.94.94,0,0,0-.54.89c0,.51.74.68.74,1.13,0,.29-.78.57-.78.57A1.73,1.73,0,0,0,11.63,10a.17.17,0,0,0-.16.17c0,.31.4.6.4,1s-1,.88-1,1.87a1.61,1.61,0,0,0,.67,1.26,1.56,1.56,0,0,0-.82,1.41,1.84,1.84,0,0,0,1,1.65.79.79,0,0,1,.43.94A9.47,9.47,0,0,0,11.64,20c0,.27.13.41.13.68,0,.58-.3.87-.69,1.8a40.91,40.91,0,0,1-1.62,3.91.85.85,0,0,0,.17,1,4.37,4.37,0,0,0,1.51.67h.3c.45,0,.54.65.19,1a.67.67,0,0,0-.24.44c0,.39.31.55.31.77s-.11.33-.11.56c0,1,1.1.8,1.1,1.19s-.5.64-.5,1.51c0,2.39,2.67,2.74,4.72,2.93,1.56.14,1.69.44,1.75,1.88.07,1.9.7,3.36.7,4.94a2.13,2.13,0,0,1-.44,1.29,1.09,1.09,0,0,1-1.16.29A21.92,21.92,0,1,1,45.64,23.72,21.67,21.67,0,0,1,42.52,35Z" style="fill:#989fa7"/><path d="M42.34,28.05c0-.9-1.06-1.06-1.06-1.06-.42-.06-.77.06-.22.38.22.13.68.33.68.68s-.39.52-.88.71c-.17.07-.35.14-.35.41s.42.34,1.32.49c.54.09,1,.23,1,.65s-.22.64-.08.64a.65.65,0,0,0,.63-.64c0-.87-.7-1.09-1.86-1.29A1,1,0,0,0,42.34,28.05Z" style="fill:#989fa7"/><path d="M18.21,13.57c.45,0,.65-.55,1.13-.55s.78.39,1.23.39c1.35,0,1.81-.55,2.9-.55,1.45,0,1.52,1.61,2.78,1.61.38,0,1.55-.13,1.9-.13,1.1,0,1.29,1,2.23,1,.42,0,.93-.26.93-.55,0-.09-.32,0-1,0-.87,0-.8-1-2.19-1-.24,0-1.25.13-1.61.13-1.17,0-1.07-1.81-3.07-1.81-1,0-1.64.64-2.9.64-.39,0-.55-.41-1.23-.41-.45,0-.74.61-1.13.61s-.45-.42-1.22-.42c-.42,0-1,.45-1,.84s0,.87.35.87.29-.13.29-.36-.06-.29-.06-.51.21-.32.45-.32S17.38,13.57,18.21,13.57Z" style="fill:#989fa7"/><path d="M22.89,15.94a4.58,4.58,0,0,1,1.7.67,4,4,0,0,0,1.46.46c1.88,0,2.75,3.67,4.75,3.67.1,0,.26,0,.26-.17s-.33-.35-.81-.58a1,1,0,0,1-.52-.58c0-.23.16-.19.36-.19.38,0,.58,0,.58-.26s-.15-.21-.58-.33c-.71-.19-1-1.26-1.94-1.68,0,0-.33-.15-.33-.28a10.21,10.21,0,0,1,2.59-.2c2,0,1.77,3.71,4.37,3.71,1,0,1.83,1.1,1.83.78a1.87,1.87,0,0,0-1.81-1.23c-1.69,0-1.94-3.85-4.39-3.85-1.16,0-3.45.32-4.36.32a6,6,0,0,1-2.85-1c0-.17.6-.05.75-.2s0-.28-.17-.43a1.31,1.31,0,0,0-.72-.23c-.59,0-1.11.51-1.55.84a3.14,3.14,0,0,1-2,.91,5.74,5.74,0,0,1-1.7-.21c-.13,0-.34-.18-.46-.06s-.07.41.31.57a4.09,4.09,0,0,0,1.85.37C20.75,16.71,21.68,15.94,22.89,15.94Z" style="fill:#989fa7"/><path d="M36.31,26.54c-.32-.74-.67-1.7-1.06-2.42a2.89,2.89,0,0,0-2.32-1.77c-.19,0-.65,0-.65.25s1-.35,2.36,1.68a14,14,0,0,1,1,2.87c.16.52.42.87.29,1s-.55-.1-.78-.58-.84-1.35-1.19-1.35-.36,0-.36.13c0,.33.63.6.39.84s-.45-.23-1.42-.75A4.91,4.91,0,0,0,31,26c-.19,0-.36,0-.36.19s.2.26.36.29a6,6,0,0,1,1.93,1.23,12.4,12.4,0,0,0,6.72,3.42c.63.12.83-.23.83-.32s-.09-.17-.51-.33c-1-.37-2.14-1.15-1.78-1.51s1.16,0,1.39-.26-.14-.5-.55-.9a1.75,1.75,0,0,0-1.13-.42A1.61,1.61,0,0,1,36.31,26.54Z" style="fill:#989fa7"/><path d="M27.43,23.61a11.6,11.6,0,0,0,3.31.48,4.51,4.51,0,0,1,.74.1c.19.07.45.2.66.29s.48.08.48-.14-.48-.69-1-.82a7,7,0,0,0-.87-.11,9,9,0,0,1-3-.49,3.36,3.36,0,0,1-1-1.07c-.11-.19-.34-.41-.54-.21C25.75,22.05,26.75,23.23,27.43,23.61Z" style="fill:#989fa7"/><path d="M30.47,22.72c.52,0,1.21-.28,1.21-.5s-.13-.21-.25-.21-.61.06-1,.06c-2.61,0-3-4.81-6.54-4.81-.11,0-.33,0-.4-.11l0,0,0,0c-.08-.15-.17-.27-.63-.27a3.5,3.5,0,0,0-1.19.33,4,4,0,0,1-.91.32h-.41c-.12,0-.18.05-.18.19s.64.53,1.08.53a3.79,3.79,0,0,0,.81-.18,5.13,5.13,0,0,1,1.45-.18C27,17.81,27.18,22.72,30.47,22.72Z" style="fill:#989fa7"/><path d="M42.06,31.38c-1,0-1.16.81-2.42.81-1.84,0-2.23-.65-4.36-.65-.84,0-1.42.52-2.68.52-.83,0-2.67-.72-2.67-1.62a.19.19,0,0,1,.29-.07c.64.46.77.48,1,.49s.35-.06.35-.22a6.19,6.19,0,0,0-1.09-.81c-.84-.58-2.2-1.26-2.2-1.74,0-.16.16-.19.32-.18.53,0,1.52.4,1.84.4.13,0,.26,0,.26-.22s-1-.65-2-.89c-.48-.11-.93-.24-1.23-.34s-.32-.16-.32-.39.16-.25.36-.25h2c.42,0,.67,0,.67-.17s-.67-.48-1.35-.48c-1.52,0-2.7,0-3.62-.87s-1.19-3.16-2-4-1.55-.65-1.55-1,.7-.29,1-.29c.55,0,.95.45,1.19.45s.19-.22.19-.25c0-.39-.9-.81-1.38-.81s-1.93.16-2.36.16c-.74,0-.94-.58-1.26-.58s-.24.06-.22.22c0,.39.77,1,1.48,1.39a24.67,24.67,0,0,1,2.39,1.1c.42.39.19.61-.07.61s-.45-.13-.8-.13a.21.21,0,0,0-.23.23c0,.61,2.17,1.48,2.17,3.29,0,1.12-.55,1.75-.55,2.68a1.21,1.21,0,0,0,.42,1.06c.25.16.38.07.38-.16s-.29-.29-.29-.9a5.88,5.88,0,0,1,.48-1.77c.08-.24.11-.62.33-.62.55,0,.52,1.26,1,1.26.26,0,.64-.13.64.07,0,.38-1.35.87-1,1.19s1.07-.52,1.26-.52.33.22.1.45-1.1,1.07-1.1,1.39.71.68,1,.68.45-.32.77-.32c1.06,0,2.45,1.89,3.39,2.45a3.81,3.81,0,0,0,2.06.58c.75,0,1.42-.3,2.07-.3.94,0,1.9.88,2.74.88.46,0,.26-.75.71-.75s1,.76,1.55.76,1.78-1.1,2.39-1.1.71.41.71,1c0,.2.58,0,.58-.62A1.13,1.13,0,0,0,42.06,31.38Z" style="fill:#989fa7"/><path d="M18.28,15.18c.39,0,1,.22,1.22.22s1-.22,1-.38-.68-.06-1.07-.27a2.21,2.21,0,0,0-1.16-.44,1.25,1.25,0,0,0-.78.19c-.18.18-.51.07-.51.26s.41.43.74.42Z" style="fill:#989fa7"/><path d="M31.13,28.26c-.37.37,1.31,1.37,1.31,1.6a.85.85,0,0,0,1,.88c.16,0,.31-.07.31-.22C33.72,29.89,31.38,28,31.13,28.26Z" style="fill:#989fa7"/><path d="M20.57,22.35c-.15-.14-.29,0-.29.16a.29.29,0,0,0,.1.25,3.46,3.46,0,0,1,.8,2.39c0,.65-.67,1.87-.67,2.68,0,1.39,1.13,1.71,1.35,1.48S21,28.76,21,27.83s.68-2,.68-2.68a5.27,5.27,0,0,0-.05-.84c0-.19.14-.23.23-.13a1.39,1.39,0,0,1,.4,1c0,.9-.45,1.39-.45,1.78,0,.12,0,.16.09.16a2.39,2.39,0,0,0,.94-1.94C22.86,24,21.5,23.18,20.57,22.35Z" style="fill:#989fa7"/><path d="M17.18,22.07c-.72-.4-3.34-1.14-3.34-1.35s.24-.23.73-.23c.18,0,.42,0,.42-.11s-.92-.55-1.42-.55-.69.35-.69.64a2.46,2.46,0,0,0,.67,1.58c.13.13,0,1.24.53,1.24.29,0,.55-.17.55-.75,0-.19,1.66.13,1.66.32s-.18.17-.18.25,0,.17.26.17c.46,0,1.32-.22,1.32-.7C17.69,22.38,17.51,22.25,17.18,22.07Zm-3.33-.53c0-.2.33-.1.72,0,.61.2.85.27,1.06.36s.57.2.57.39S13.85,21.8,13.85,21.54Z" style="fill:#989fa7"/><path d="M13.83,23.64c-.13.13-.12.34-.12.74,0,.19.11.14.43-.06.75-.46.91-.54.78-.67A1.63,1.63,0,0,0,13.83,23.64Z" style="fill:#989fa7"/><path d="M26,35.47c0-.74.41-1.38.26-1.38-.39,0-.84.71-.84,1.32a1.84,1.84,0,0,0,.64,1.52c.74.74,1.65.41,2.13.9s.2,1.24.2,1.8c0,1.62,1,2.22,2.13,2.69.87.35.54,1.38.84,1.38a.85.85,0,0,0,.8-.93,1.21,1.21,0,0,0-.84-1.1c-.87-.35-2.26-.45-2.26-2,0-.58.26-1.25.26-1.77,0-.74-.47-1-1.55-1S26,36.32,26,35.47Z" style="fill:#989fa7"/></g></g></svg>