<svg xmlns="http://www.w3.org/2000/svg" viewBox="0 0 147.74 43.77"><g id="Capa_2" data-name="Capa 2"><g id="Capa_1-2" data-name="Capa 1"><path d="M142.27,43.77H5.47A5.41,5.41,0,0,1,0,38.3V5.47A5.42,5.42,0,0,1,5.47,0h136.8a5.42,5.42,0,0,1,5.47,5.47V38.3A5.41,5.41,0,0,1,142.27,43.77Z"/><path d="M142.27.88a4.61,4.61,0,0,1,4.59,4.59V38.3a4.62,4.62,0,0,1-4.59,4.6H5.47A4.62,4.62,0,0,1,.88,38.3V5.47A4.61,4.61,0,0,1,5.47.88h136.8m0-.88H5.47A5.49,5.49,0,0,0,0,5.47V38.3a5.41,5.41,0,0,0,5.47,5.47h136.8a5.41,5.41,0,0,0,5.47-5.47V5.47A5.49,5.49,0,0,0,142.27,0Z" style="fill:#a6a6a6"/><path d="M24,9a12.4,12.4,0,0,0-2.56.26l-.24,0A12.59,12.59,0,0,0,15,12.76c-.16.16-.31.33-.46.5A12.57,12.57,0,0,0,33,30.34c.16-.16.31-.33.46-.5A12.57,12.57,0,0,0,24,9Zm-8.43,4.41.2-.2L16,13l.22-.19.24-.21.22-.18.26-.2.23-.17.26-.18.24-.16L18,11.5l.25-.14.28-.16.25-.13.29-.14.26-.12.3-.12.26-.11.3-.11.27-.09.31-.09.27-.08.1,0a10.41,10.41,0,0,0-2.68,4.35,13.53,13.53,0,0,1-2.87-1.11Zm-.61.68a14.73,14.73,0,0,0,3.18,1.26,21.92,21.92,0,0,0-.84,5.8h-5A11.7,11.7,0,0,1,15,14.07Zm0,15A11.7,11.7,0,0,1,12.28,22h5a21.92,21.92,0,0,0,.84,5.8A14.73,14.73,0,0,0,15,29Zm6,3.86-.25-.08-.32-.09-.26-.09-.31-.11-.26-.11-.3-.12L19,32.17,18.73,32l-.25-.13-.28-.16A2,2,0,0,1,18,31.6l-.27-.17-.24-.15-.27-.19L17,30.92l-.26-.2-.22-.18-.25-.21L16,30.14l-.24-.23c-.06-.07-.13-.13-.2-.2l0,0a14.45,14.45,0,0,1,2.87-1.11,10.41,10.41,0,0,0,2.68,4.35Zm2.61.36c-1.79-.25-3.37-2.12-4.36-4.89a21.36,21.36,0,0,1,4.36-.51v5.4Zm0-6.24a22.52,22.52,0,0,0-4.62.55A21.17,21.17,0,0,1,18.15,22h5.44v5Zm0-5.88H18.15A21.17,21.17,0,0,1,19,15.54a22.52,22.52,0,0,0,4.62.55Zm0-5.88a21.36,21.36,0,0,1-4.36-.51c1-2.77,2.57-4.64,4.36-4.89v5.4Zm9.46-1.18a11.76,11.76,0,0,1,2.69,7.06h-5a21.53,21.53,0,0,0-.85-5.8A14.61,14.61,0,0,0,33.05,14.07Zm-6-3.86.26.08.32.09.26.09.31.11.26.11.3.12.26.12.29.14.25.13.28.16a2,2,0,0,1,.25.14l.27.17.24.15.26.19.23.17.26.2.22.18.25.21L32,13c.08.08.16.15.23.23l.21.2,0,0a14.69,14.69,0,0,1-2.87,1.11,10.41,10.41,0,0,0-2.68-4.35Zm-2.6-.36c1.79.25,3.36,2.12,4.35,4.89a21.27,21.27,0,0,1-4.35.51V9.85Zm0,6.24a22.52,22.52,0,0,0,4.62-.55,21.17,21.17,0,0,1,.82,5.59H24.43Zm0,5.88h5.44a21.17,21.17,0,0,1-.82,5.59h0A22.52,22.52,0,0,0,24.43,27Zm0,11.28v-5.4a21.27,21.27,0,0,1,4.35.51C27.79,31.13,26.22,33,24.43,33.25Zm8-3.54c-.06.07-.13.13-.2.2l-.24.23-.21.19-.24.21-.23.18a2.43,2.43,0,0,1-.25.2l-.23.17-.26.18-.24.16-.28.17-.24.14-.28.16-.25.13-.29.14-.26.12-.3.12-.26.1-.31.12-.26.09-.31.09-.27.08-.1,0a10.41,10.41,0,0,0,2.68-4.35,13.53,13.53,0,0,1,2.87,1.11Zm.61-.68a14.61,14.61,0,0,0-3.19-1.26,21.53,21.53,0,0,0,.85-5.8h5A11.76,11.76,0,0,1,33.05,29Z" style="fill:#fff"/><path d="M47.77,10.14v3.55c0,1.23.65,1.58,1.33,1.58s1.3-.4,1.3-1.58V10.14h1.12v3.49c0,2-1.15,2.52-2.44,2.52a2.18,2.18,0,0,1-2.43-2.48V10.14Z" style="fill:#fff"/><path d="M53.53,14.37a1.19,1.19,0,0,0,1.34.93c.77,0,1.09-.32,1.09-.8s-.29-.77-1.37-1c-1.54-.36-2-.91-2-1.72,0-1,.73-1.69,2.1-1.69,1.52,0,2.13.83,2.22,1.67H55.82c-.07-.42-.32-.83-1.12-.83-.59,0-.93.25-.93.73s.28.64,1.26.87c1.72.41,2.07,1.06,2.07,1.87,0,1-.79,1.78-2.31,1.78a2.09,2.09,0,0,1-2.38-1.78Z" style="fill:#fff"/><path d="M62.07,13.44H59.2v1.71h3.17l-.14.92H58.12V10.14h4.09v.93h-3v1.45h2.87Z" style="fill:#fff"/><path d="M66.58,10.14v5.93H65.47V10.14Z" style="fill:#fff"/><path d="M68.06,16.07V10.14h1.41c.77,1.35,2.31,3.94,2.6,4.59h0C72,14.06,72,13.06,72,12.09V10.14h1v5.93H71.72c-.69-1.2-2.35-4.1-2.67-4.78h0c0,.57,0,1.72,0,2.78v2Z" style="fill:#fff"/><path d="M77.92,16.07V14a.31.31,0,0,0,0-.18l-2.06-3.63h1.26c.49.92,1.18,2.23,1.46,2.83.26-.58,1-1.93,1.48-2.83h1.17l-2.1,3.62a.24.24,0,0,0,0,.18v2.13Z" style="fill:#fff"/><path d="M87,13.08a2.82,2.82,0,0,1-2.87,3.08,2.76,2.76,0,0,1-2.8-3.05,2.81,2.81,0,0,1,2.88-3A2.74,2.74,0,0,1,87,13.08Zm-4.51,0c0,1.2.55,2.16,1.68,2.16s1.68-1,1.68-2.14S85.33,11,84.16,11,82.49,11.89,82.49,13.08Z" style="fill:#fff"/><path d="M89.21,10.14v3.55c0,1.23.65,1.58,1.33,1.58s1.3-.4,1.3-1.58V10.14H93v3.49c0,2-1.15,2.52-2.44,2.52a2.18,2.18,0,0,1-2.43-2.48V10.14Z" style="fill:#fff"/><path d="M95.47,13.62v2.45H94.38V10.14h2.51c1.27,0,2,.7,2,1.62a1.39,1.39,0,0,1-.92,1.4c.36.11.8.44.8,1.49v.28a4.36,4.36,0,0,0,.08,1.14H97.74a3.92,3.92,0,0,1-.12-1.31v-.1c0-.71-.18-1-1.18-1Zm0-.9h1.15c.77,0,1.09-.29,1.09-.85s-.35-.83-1-.83h-1.2Z" style="fill:#fff"/><path d="M48.82,31.55l-2.56-9.88h2c.88,4.09,1.52,6.82,1.66,7.92h0c.34-1.63,1.43-5.49,2-7.92h1.7c.54,2,1.66,6.24,1.95,7.84h0c.33-2,1.44-6.14,1.85-7.84h1.81L56.5,31.55H54.56C54,29.34,53,25.62,52.7,24.1h0c-.33,1.66-1.36,5.37-1.92,7.45Z" style="fill:#fff"/><path d="M61.19,28.25c0,1.11.57,2.06,1.66,2.06a1.35,1.35,0,0,0,1.45-.9h1.78a3.15,3.15,0,0,1-3.28,2.32c-2.38,0-3.4-1.84-3.4-3.75,0-2.27,1.16-3.95,3.47-3.95,2.48,0,3.31,1.85,3.31,3.6a4.09,4.09,0,0,1,0,.62Zm3.2-1.13c0-1-.44-1.78-1.52-1.78s-1.54.75-1.63,1.78Z" style="fill:#fff"/><path d="M67.66,21.1h1.78v4a2.33,2.33,0,0,1,2.18-1c1.95,0,3,1.61,3,3.71s-1.09,4-3.2,4a2,2,0,0,1-2-1,5.38,5.38,0,0,1-.07.79h-1.7c0-.8,0-1.62,0-2.42Zm5.15,6.68c0-1.35-.54-2.3-1.7-2.3s-1.76.85-1.76,2.43c0,1.34.41,2.38,1.72,2.38C72.2,30.29,72.81,29.3,72.81,27.78Z" style="fill:#fff"/><path d="M79.88,21.67H84c2.29,0,3.22,1.19,3.22,2.5a2.22,2.22,0,0,1-1.32,2.15,2.38,2.38,0,0,1,1.61,2.3c0,1.75-1.36,2.93-3.38,2.93H79.88Zm3.89,4c1.16,0,1.63-.49,1.63-1.28s-.58-1.24-1.52-1.24H81.7v2.52ZM81.7,30.1h2.1c1.19,0,1.83-.52,1.83-1.53s-.57-1.47-1.92-1.47h-2Z" style="fill:#fff"/><path d="M89.06,26.2c0-.83,0-1.46,0-2h1.75c0,.18,0,.86,0,1.37A2.44,2.44,0,0,1,93.23,24v1.72c-1.48,0-2.4.52-2.4,2.48v3.32H89.06Z" style="fill:#fff"/><path d="M101,27.86c0,2.19-1.3,3.87-3.6,3.87S93.9,30.1,93.9,27.9,95.23,24,97.53,24C99.65,24,101,25.56,101,27.86Zm-5.32,0c0,1.48.68,2.43,1.77,2.43s1.74-.93,1.74-2.42-.63-2.44-1.77-2.44S95.71,26.28,95.71,27.88Z" style="fill:#fff"/><path d="M103.6,24.2c.75,3.12,1.17,4.9,1.3,5.76h0c.15-.78.46-2.16,1.41-5.76H108c.94,3.8,1.22,4.91,1.33,5.66h0c.16-.77.41-1.87,1.37-5.66h1.77l-2.21,7.35h-1.91c-.64-2.75-1.11-4.56-1.27-5.47h0c-.12.89-.61,2.74-1.31,5.47h-1.94l-2.1-7.35Z" style="fill:#fff"/><path d="M114.79,29.38a1.4,1.4,0,0,0,1.53,1c.86,0,1.19-.34,1.19-.86s-.33-.77-1.5-1.06c-2.29-.56-2.7-1.27-2.7-2.29s.76-2.18,2.87-2.18,2.88,1.18,2.95,2.19h-1.69c-.08-.34-.32-.91-1.34-.91-.79,0-1,.37-1,.75s.25.63,1.5.93c2.38.55,2.76,1.36,2.76,2.44,0,1.24-1,2.3-3.06,2.3s-3.05-1-3.22-2.35Z" style="fill:#fff"/><path d="M122.13,28.25c0,1.11.56,2.06,1.65,2.06a1.35,1.35,0,0,0,1.45-.9H127a3.15,3.15,0,0,1-3.28,2.32c-2.38,0-3.39-1.84-3.39-3.75,0-2.27,1.15-3.95,3.47-3.95s3.3,1.85,3.3,3.6a6.12,6.12,0,0,1,0,.62Zm3.2-1.13c0-1-.45-1.78-1.53-1.78s-1.53.75-1.63,1.78Z" style="fill:#fff"/><path d="M128.61,26.2c0-.83,0-1.46,0-2h1.75c0,.18,0,.86,0,1.37a2.44,2.44,0,0,1,2.4-1.54v1.72c-1.48,0-2.4.52-2.4,2.48v3.32h-1.77Z" style="fill:#fff"/></g></g></svg>