<svg xmlns="http://www.w3.org/2000/svg" xmlns:xlink="http://www.w3.org/1999/xlink" viewBox="0 0 147.74 43.77"><defs><linearGradient id="Degradado_sin_nombre_34" x1="-1199.69" y1="6375.41" x2="-1200.69" y2="6376.4" gradientTransform="translate(22240.41 -118053.61) scale(18.52)" gradientUnits="userSpaceOnUse"><stop offset="0" stop-color="#00a0ff"/><stop offset="0.01" stop-color="#00a1ff"/><stop offset="0.26" stop-color="#00beff"/><stop offset="0.51" stop-color="#00d2ff"/><stop offset="0.76" stop-color="#00dfff"/><stop offset="1" stop-color="#00e3ff"/></linearGradient><linearGradient id="Degradado_sin_nombre_33" x1="-1198.98" y1="6376.08" x2="-1200.41" y2="6376.08" gradientTransform="translate(22240.41 -118053.61) scale(18.52)" gradientUnits="userSpaceOnUse"><stop offset="0" stop-color="#ffe000"/><stop offset="0.41" stop-color="#ffbd00"/><stop offset="0.78" stop-color="orange"/><stop offset="1" stop-color="#ff9c00"/></linearGradient><linearGradient id="Degradado_sin_nombre_3" x1="-1199.52" y1="6376.21" x2="-1200.86" y2="6377.56" gradientTransform="translate(22240.41 -118053.61) scale(18.52)" gradientUnits="userSpaceOnUse"><stop offset="0" stop-color="#ff3a44"/><stop offset="1" stop-color="#c31162"/></linearGradient><linearGradient id="Degradado_sin_nombre_4" x1="-1200.55" y1="6374.91" x2="-1199.95" y2="6375.51" gradientTransform="translate(22240.41 -118053.61) scale(18.52)" gradientUnits="userSpaceOnUse"><stop offset="0" stop-color="#32a071"/><stop offset="0.07" stop-color="#2da771"/><stop offset="0.48" stop-color="#15cf74"/><stop offset="0.8" stop-color="#06e775"/><stop offset="1" stop-color="#00f076"/></linearGradient></defs><g id="Capa_2" data-name="Capa 2"><g id="Capa_1-2" data-name="Capa 1"><path d="M142.27,43.77H5.47A5.41,5.41,0,0,1,0,38.3V5.47A5.42,5.42,0,0,1,5.47,0h136.8a5.42,5.42,0,0,1,5.47,5.47V38.3A5.41,5.41,0,0,1,142.27,43.77Z"/><path d="M142.27.88a4.61,4.61,0,0,1,4.59,4.59V38.3a4.62,4.62,0,0,1-4.59,4.6H5.47A4.62,4.62,0,0,1,.88,38.3V5.47A4.61,4.61,0,0,1,5.47.88h136.8m0-.88H5.47A5.49,5.49,0,0,0,0,5.47V38.3a5.41,5.41,0,0,0,5.47,5.47h136.8a5.41,5.41,0,0,0,5.47-5.47V5.47A5.49,5.49,0,0,0,142.27,0Z" style="fill:#a6a6a6"/><path d="M51.87,11.16a3,3,0,0,1-.76,2.19,3.39,3.39,0,0,1-5.8-2.41A3.36,3.36,0,0,1,48.7,7.55,2.86,2.86,0,0,1,50,7.88a2.4,2.4,0,0,1,1,.77l-.55.54a2.05,2.05,0,0,0-1.75-.76A2.19,2.19,0,0,0,47,9.19a2.26,2.26,0,0,0-.77,1.86A2.23,2.23,0,0,0,47,12.91a2.81,2.81,0,0,0,1.75.77,2.39,2.39,0,0,0,1.86-.77,1.78,1.78,0,0,0,.55-1.31H48.7v-.88h3.17v.44Zm5-2.73H54v2.08h2.74v.76H54v2.08h3v.88H53.08V7.66h3.83Zm3.61,5.8h-.88V8.43H57.78V7.66h4.6v.77H60.52Zm5,0V7.66h.88v6.57Zm4.6,0h-.88V8.43H67.41V7.66H71.9v.77H70v5.8Zm10.4-.88a3.39,3.39,0,0,1-5.8-2.41,3.36,3.36,0,0,1,3.39-3.39,3.36,3.36,0,0,1,3.39,3.39A3.24,3.24,0,0,1,80.55,13.35Zm-4.16-.55a2.57,2.57,0,0,0,1.75.77,2.18,2.18,0,0,0,1.75-.77,2.61,2.61,0,0,0,.77-1.86,2.26,2.26,0,0,0-.77-1.86,2.63,2.63,0,0,0-1.75-.76,2.19,2.19,0,0,0-1.75.76,2.65,2.65,0,0,0-.77,1.86A2.23,2.23,0,0,0,76.39,12.8Zm6.34,1.43V7.66h1l3.17,5.14V7.66h.88v6.57h-.88L83.5,8.86v5.37Z" style="fill:#fff;stroke:#fff;stroke-miterlimit:10;stroke-width:0.200000002980232px"/><path d="M74.53,23.86a4.6,4.6,0,0,0-4.71,4.7,4.67,4.67,0,0,0,4.71,4.71,4.6,4.6,0,0,0,4.7-4.71A4.54,4.54,0,0,0,74.53,23.86Zm0,7.44a2.85,2.85,0,0,1,0-5.69,2.64,2.64,0,0,1,2.62,2.84A2.71,2.71,0,0,1,74.53,31.3ZM64.35,23.86a4.6,4.6,0,0,0-4.71,4.7,4.67,4.67,0,0,0,4.71,4.71,4.6,4.6,0,0,0,4.7-4.71A4.53,4.53,0,0,0,64.35,23.86Zm0,7.44a2.85,2.85,0,0,1,0-5.69A2.65,2.65,0,0,1,67,28.45,2.72,2.72,0,0,1,64.35,31.3Zm-12.15-6v2h4.71a4.16,4.16,0,0,1-1.1,2.52,4.85,4.85,0,0,1-3.61,1.42,5.1,5.1,0,0,1-5.14-5.25,5.17,5.17,0,0,1,5.14-5.26,5.4,5.4,0,0,1,3.61,1.43l1.43-1.43a7.05,7.05,0,0,0-4.93-2A7.39,7.39,0,0,0,45,25.94a7.38,7.38,0,0,0,7.33,7.22,6.33,6.33,0,0,0,5-2.08,6.59,6.59,0,0,0,1.75-4.6,4.09,4.09,0,0,0-.11-1.2Zm49.69,1.53A4.27,4.27,0,0,0,98,23.86a4.41,4.41,0,0,0-4.38,4.7,4.58,4.58,0,0,0,4.6,4.71A4.5,4.5,0,0,0,102,31.19l-1.54-1.09a2.66,2.66,0,0,1-2.29,1.31A2.37,2.37,0,0,1,95.87,30l6.24-2.63-.22-.55Zm-6.35,1.53A2.65,2.65,0,0,1,98,25.61a2,2,0,0,1,1.75,1l-4.16,1.75ZM90.4,32.83h2.07V19.15H90.4Zm-3.29-8a3.63,3.63,0,0,0-2.51-1.09,4.7,4.7,0,0,0-4.49,4.7,4.53,4.53,0,0,0,4.49,4.6A3.16,3.16,0,0,0,87,32h.11v.65a2.49,2.49,0,0,1-4.81,1.1l-1.75.76a4.5,4.5,0,0,0,4.15,2.74c2.41,0,4.38-1.42,4.38-4.82V24.08h-2v.76ZM84.7,31.3a2.85,2.85,0,0,1,0-5.69,2.63,2.63,0,0,1,2.52,2.84A2.63,2.63,0,0,1,84.7,31.3Zm26.71-12.15h-4.93V32.83h2.08V27.69h2.85a4.27,4.27,0,1,0,0-8.54Zm.11,6.57h-3V21h3a2.4,2.4,0,0,1,2.4,2.3,2.5,2.5,0,0,1-2.4,2.41Zm12.58-2a3.67,3.67,0,0,0-3.61,2.08l1.86.76a2,2,0,0,1,1.86-1,2,2,0,0,1,2.19,1.75v.11a4.32,4.32,0,0,0-2.08-.55c-2,0-3.94,1.1-3.94,3.07a3.2,3.2,0,0,0,3.39,3.06,3.09,3.09,0,0,0,2.63-1.31h.11v1.09h2V27.58a4.14,4.14,0,0,0-4.38-3.83Zm-.22,7.55c-.65,0-1.64-.33-1.64-1.2,0-1.1,1.21-1.43,2.19-1.43a4.21,4.21,0,0,1,1.86.44A2.55,2.55,0,0,1,123.88,31.3Zm11.49-7.22L133.08,30H133l-2.41-5.91h-2.19L132,32.39,129.9,37H132l5.58-12.91ZM117,32.83h2.08V19.15H117Z" style="fill:#fff"/><path d="M11.38,8.21a2.12,2.12,0,0,0-.44,1.53V33.93a2.17,2.17,0,0,0,.55,1.53l.11.11L25.17,22v-.22Z" style="fill:url(#Degradado_sin_nombre_34)"/><path d="M29.55,26.59l-4.49-4.48v-.33l4.49-4.49.11.11L35,20.46c1.53.88,1.53,2.3,0,3.18Z" style="fill:url(#Degradado_sin_nombre_33)"/><path d="M29.66,26.48l-4.6-4.59L11.38,35.57c.55.54,1.31.54,2.3.11l16-9.2" style="fill:url(#Degradado_sin_nombre_3)"/><path d="M29.66,17.29l-16-9.08a1.77,1.77,0,0,0-2.3.11L25.06,21.89l4.6-4.6Z" style="fill:url(#Degradado_sin_nombre_4)"/><path d="M29.55,26.37l-15.87,9a1.78,1.78,0,0,1-2.19,0l-.11.11.11.11a1.81,1.81,0,0,0,2.19,0Z" style="opacity:0.200000002980232;isolation:isolate"/><path d="M11.38,35.35a2.14,2.14,0,0,1-.44-1.53v.11a2.17,2.17,0,0,0,.55,1.53v-.11ZM35,23.31l-5.47,3.06.11.11L35,23.42a1.81,1.81,0,0,0,1.09-1.53C36.11,22.43,35.68,22.87,35,23.31Z" style="opacity:0.119999997317791;isolation:isolate"/><path d="M13.68,8.32,35,20.46c.66.44,1.09.88,1.09,1.43A1.79,1.79,0,0,0,35,20.36L13.68,8.21c-1.53-.88-2.74-.22-2.74,1.53v.11C10.94,8.21,12.15,7.44,13.68,8.32Z" style="fill:#fff;opacity:0.25;isolation:isolate"/></g></g></svg>