<svg xmlns="http://www.w3.org/2000/svg" xmlns:xlink="http://www.w3.org/1999/xlink" viewBox="0 0 147.78 43.79"><defs><linearGradient id="Degradado_sin_nombre_35" x1="-1140.4" y1="6649.73" x2="-1140.4" y2="6651.86" gradientTransform="matrix(74.17, 0, 0, -74.13, 84697.03, 493018.71)" gradientUnits="userSpaceOnUse"><stop offset="0" stop-color="#1a1a1a" stop-opacity="0.1"/><stop offset="0.12" stop-color="#212121" stop-opacity="0.15"/><stop offset="0.31" stop-color="#353535" stop-opacity="0.23"/><stop offset="0.53" stop-color="#575757" stop-opacity="0.32"/><stop offset="0.78" stop-color="#858585" stop-opacity="0.42"/><stop offset="1" stop-color="#b3b3b3" stop-opacity="0.51"/></linearGradient></defs><g id="Capa_2" data-name="Capa 2"><g id="Capa_1-2" data-name="Capa 1"><path d="M146.8,38.62a4.2,4.2,0,0,1-4.2,4.19H5.18A4.21,4.21,0,0,1,1,38.62V5.17A4.22,4.22,0,0,1,5.18,1H142.6a4.2,4.2,0,0,1,4.2,4.2h0V38.62Z" style="fill:#fff"/><path d="M142.6,43.79H5.18A5.19,5.19,0,0,1,0,38.62V5.17A5.18,5.18,0,0,1,5.18,0H142.6a5.19,5.19,0,0,1,5.18,5.17V38.62a5.19,5.19,0,0,1-5.18,5.17Z" style="fill:#a6a6a6"/><path d="M146.8,38.62a4.2,4.2,0,0,1-4.2,4.19H5.18A4.21,4.21,0,0,1,1,38.62V5.17A4.22,4.22,0,0,1,5.18,1H142.6a4.2,4.2,0,0,1,4.2,4.2h0V38.62Z"/><path d="M33,21.66a6.34,6.34,0,0,1,3-5.32,6.49,6.49,0,0,0-5.12-2.77c-2.15-.23-4.24,1.29-5.34,1.29s-2.81-1.27-4.63-1.23a6.79,6.79,0,0,0-5.74,3.5c-2.48,4.29-.63,10.61,1.75,14.08,1.19,1.7,2.58,3.6,4.39,3.53s2.45-1.13,4.6-1.13,2.75,1.13,4.6,1.09S33.65,33,34.8,31.27a14,14,0,0,0,1.94-4A6.17,6.17,0,0,1,33,21.66ZM29.49,11.28a6.17,6.17,0,0,0,1.43-4.47,6.37,6.37,0,0,0-4.11,2.13,5.92,5.92,0,0,0-1.47,4.31,5.27,5.27,0,0,0,4.15-2Z" style="fill:#fff"/><path d="M142.6,0H69L97.82,43.79H142.6a5.19,5.19,0,0,0,5.18-5.18V5.17A5.19,5.19,0,0,0,142.6,0Z" style="fill:url(#Degradado_sin_nombre_35)"/><path d="M58.78,34.5H56.29l-1.36-4.28H50.19l-1.3,4.28H46.47l4.69-14.58h2.9L58.78,34.5Zm-4.26-6.08-1.24-3.81c-.13-.38-.37-1.3-.73-2.74h0c-.15.62-.38,1.53-.7,2.74L50.6,28.42Zm16.3.69a6,6,0,0,1-1.45,4.24,4.28,4.28,0,0,1-3.24,1.38,3.21,3.21,0,0,1-3-1.49v5.52H60.79V27.44q0-1.68-.09-3.45h2.06l.13,1.66h0a4.16,4.16,0,0,1,6.65-.41,5.78,5.78,0,0,1,1.24,3.87Zm-2.38.09a4.34,4.34,0,0,0-.69-2.53,2.39,2.39,0,0,0-2-1,2.43,2.43,0,0,0-1.57.57,2.73,2.73,0,0,0-.92,1.51,3.39,3.39,0,0,0-.11.71v1.75a2.83,2.83,0,0,0,.71,1.94,2.34,2.34,0,0,0,1.82.79,2.4,2.4,0,0,0,2.06-1A4.48,4.48,0,0,0,68.44,29.2Zm14.47-.09a5.92,5.92,0,0,1-1.46,4.24,4.28,4.28,0,0,1-3.24,1.38,3.23,3.23,0,0,1-3-1.49v5.52H72.88V27.44q0-1.68-.09-3.45h2L75,25.65h0a4.16,4.16,0,0,1,6.65-.41,5.84,5.84,0,0,1,1.24,3.87Zm-2.38.09a4.34,4.34,0,0,0-.69-2.53,2.4,2.4,0,0,0-2-1,2.43,2.43,0,0,0-1.57.57,2.67,2.67,0,0,0-.92,1.51,3.16,3.16,0,0,0-.11.71v1.75a2.87,2.87,0,0,0,.7,1.94,2.54,2.54,0,0,0,3.88-.23A4.41,4.41,0,0,0,80.53,29.2Zm15.9,1.21a3.91,3.91,0,0,1-1.3,3,5.74,5.74,0,0,1-4,1.27,6.85,6.85,0,0,1-3.77-.91l.54-1.94a6.55,6.55,0,0,0,3.37.91,3.15,3.15,0,0,0,2-.6,1.93,1.93,0,0,0,.74-1.59,2,2,0,0,0-.61-1.49,5.54,5.54,0,0,0-2-1.12q-3.82-1.42-3.83-4.18A3.68,3.68,0,0,1,89,20.85a5.35,5.35,0,0,1,3.57-1.14,7.06,7.06,0,0,1,3.31.69l-.58,1.9a5.88,5.88,0,0,0-2.8-.67,2.89,2.89,0,0,0-1.94.61A1.76,1.76,0,0,0,90,23.56,1.79,1.79,0,0,0,90.65,25a7.73,7.73,0,0,0,2.12,1.12,7.24,7.24,0,0,1,2.77,1.77,3.72,3.72,0,0,1,.89,2.53Zm7.74-4.67h-2.58v5.1c0,1.3.46,1.95,1.37,1.95a4.21,4.21,0,0,0,1-.11l.07,1.77a5.36,5.36,0,0,1-1.82.26,2.8,2.8,0,0,1-2.16-.84A4.16,4.16,0,0,1,99.3,31V25.74H97.77V24H99.3V22.06l2.29-.69V24h2.58v1.76Zm11.59,3.42a5.75,5.75,0,0,1-1.39,4,4.92,4.92,0,0,1-3.85,1.6,4.69,4.69,0,0,1-3.68-1.53,5.56,5.56,0,0,1-1.38-3.87,5.74,5.74,0,0,1,1.42-4,4.9,4.9,0,0,1,3.82-1.55,4.78,4.78,0,0,1,3.71,1.53,5.5,5.5,0,0,1,1.35,3.85Zm-2.42.05a4.69,4.69,0,0,0-.63-2.48,2.32,2.32,0,0,0-2.1-1.25,2.36,2.36,0,0,0-2.14,1.25,4.76,4.76,0,0,0-.63,2.52,4.66,4.66,0,0,0,.63,2.48,2.4,2.4,0,0,0,4.22,0,4.7,4.7,0,0,0,.65-2.5Zm10-3.17a4.52,4.52,0,0,0-.74-.06,2.21,2.21,0,0,0-1.9.93,3.49,3.49,0,0,0-.58,2.07V34.5h-2.34V27.3c0-1.11,0-2.21-.07-3.31h2l.08,2h.07a3.6,3.6,0,0,1,1.17-1.67,2.83,2.83,0,0,1,1.68-.56,5.14,5.14,0,0,1,.59,0V26Zm10.44,2.71a5.31,5.31,0,0,1-.08,1.05h-7a3,3,0,0,0,1,2.38,3.46,3.46,0,0,0,2.29.74,7.75,7.75,0,0,0,2.83-.5l.37,1.62a8.64,8.64,0,0,1-3.52.65,5.1,5.1,0,0,1-3.84-1.44,5.28,5.28,0,0,1-1.4-3.85,6,6,0,0,1,1.3-4,4.49,4.49,0,0,1,3.68-1.68,3.93,3.93,0,0,1,3.44,1.68,5.71,5.71,0,0,1,.92,3.31Zm-2.22-.61a3.22,3.22,0,0,0-.46-1.8,2,2,0,0,0-1.86-1,2.24,2.24,0,0,0-1.86.95,3.57,3.57,0,0,0-.69,1.82Z" style="fill:#fff"/><path d="M49.52,14.77a16,16,0,0,1-1.68-.08v-7a13,13,0,0,1,2-.15c2.67,0,3.91,1.32,3.91,3.47C53.73,13.43,52.27,14.77,49.52,14.77Zm.39-6.37a4.85,4.85,0,0,0-.92.07v5.36a6.39,6.39,0,0,0,.77,0A2.53,2.53,0,0,0,52.51,11,2.33,2.33,0,0,0,49.91,8.4Zm7.66,6.43a2.46,2.46,0,0,1-2.49-2.66,2.52,2.52,0,0,1,2.58-2.73,2.44,2.44,0,0,1,2.48,2.65,2.53,2.53,0,0,1-2.57,2.74Zm0-4.55c-.83,0-1.36.77-1.36,1.86S56.8,14,57.6,14,59,13.15,59,12.11s-.53-1.83-1.34-1.83Zm11.14-.74-1.62,5.17h-1l-.67-2.24c-.16-.55-.3-1.11-.41-1.67h0a12,12,0,0,1-.42,1.67l-.71,2.24H62.79L61.27,9.54h1.17L63,12c.14.58.25,1.14.35,1.66h0A16.48,16.48,0,0,1,63.83,12l.73-2.46h.94L66.2,12a17.38,17.38,0,0,1,.41,1.7h0c.08-.53.2-1.1.35-1.7l.63-2.41Zm6,5.17H73.55v-3c0-.91-.35-1.37-1-1.37a1.2,1.2,0,0,0-1.15,1.27v3.07H70.21V11c0-.46,0-.95,0-1.48h1l0,.8h0a1.87,1.87,0,0,1,1.64-.9c1.09,0,1.8.83,1.8,2.18v3.09Zm3.16,0H76.71V7.18h1.15Zm4.19.12a2.46,2.46,0,0,1-2.49-2.66,2.52,2.52,0,0,1,2.57-2.73,2.44,2.44,0,0,1,2.49,2.65,2.53,2.53,0,0,1-2.57,2.74Zm0-4.55c-.83,0-1.36.77-1.36,1.86S81.27,14,82.08,14s1.35-.83,1.35-1.87-.53-1.83-1.34-1.83Zm7,4.43-.08-.6h0a1.76,1.76,0,0,1-1.51.72,1.5,1.5,0,0,1-1.58-1.52c0-1.28,1.1-1.94,3-1.94v-.09q0-1-1.08-1a2.39,2.39,0,0,0-1.35.38l-.23-.75a3.28,3.28,0,0,1,1.77-.45c1.35,0,2,.71,2,2.13v1.91a7.86,7.86,0,0,0,.08,1.23ZM89,12.14c-1.28,0-1.92.31-1.92,1a.73.73,0,0,0,.79.8A1.1,1.1,0,0,0,89,12.93Zm6.69,2.57-.06-.83h0a1.73,1.73,0,0,1-1.66.95c-1.24,0-2.16-1.1-2.16-2.64s1-2.75,2.26-2.75a1.56,1.56,0,0,1,1.46.7h0v-3h1.15v6.14c0,.5,0,1,0,1.39Zm-.17-3a1.25,1.25,0,0,0-1.21-1.34c-.85,0-1.37.76-1.37,1.82s.54,1.75,1.35,1.75a1.29,1.29,0,0,0,1.23-1.37v-.86Zm8.43,3.16a2.45,2.45,0,0,1-2.48-2.66A2.51,2.51,0,0,1,104,9.44a2.43,2.43,0,0,1,2.48,2.65,2.52,2.52,0,0,1-2.57,2.74Zm0-4.55c-.82,0-1.35.77-1.35,1.86S103.17,14,104,14s1.35-.83,1.35-1.87-.53-1.83-1.34-1.83Zm8.71,4.43h-1.15v-3c0-.91-.35-1.37-1-1.37a1.2,1.2,0,0,0-1.15,1.27v3.07H108.2V11c0-.46,0-.95,0-1.48h1l0,.8h0a1.87,1.87,0,0,1,1.64-.9c1.08,0,1.8.83,1.8,2.18Zm7.72-4.3h-1.26v2.5c0,.64.22,1,.67,1a2.27,2.27,0,0,0,.5,0l0,.87a2.7,2.7,0,0,1-.89.13c-.91,0-1.45-.5-1.45-1.81v-2.6h-.75V9.54H118V8.6l1.13-.34V9.54h1.26v.87Zm6.08,4.3h-1.15V11.77c0-.93-.35-1.4-1-1.4a1.13,1.13,0,0,0-1.15,1.23v3.11H122V7.18h1.15v3.1h0a1.73,1.73,0,0,1,1.56-.84c1.09,0,1.76.85,1.76,2.2v3.07Zm6.22-2.31h-3.44a1.48,1.48,0,0,0,1.63,1.53,3.9,3.9,0,0,0,1.39-.24l.18.8a4.4,4.4,0,0,1-1.74.31,2.4,2.4,0,0,1-2.57-2.6,2.52,2.52,0,0,1,2.44-2.77,2.17,2.17,0,0,1,2.15,2.45,1.8,1.8,0,0,1,0,.52Zm-1.05-.82c0-.79-.4-1.36-1.14-1.36a1.36,1.36,0,0,0-1.25,1.36Z" style="fill:#fff"/></g></g></svg>