<svg xmlns="http://www.w3.org/2000/svg" viewBox="0 0 390.08 43.77"><g id="Capa_2" data-name="Capa 2"><g id="Capa_1-2" data-name="Capa 1"><path d="M24.24,30.43a7.32,7.32,0,0,1,1.54,4.72,7.09,7.09,0,0,1-3,6c-2,1.46-4.69,2.19-8.14,2.19H2.84a3,3,0,0,1-2.08-.69A2.44,2.44,0,0,1,0,40.76v-25a2.44,2.44,0,0,1,.76-1.93,3,3,0,0,1,2.08-.69H14.22q5,0,7.91,2.08A6.77,6.77,0,0,1,25,21a6.63,6.63,0,0,1-1.35,4.16,7.75,7.75,0,0,1-3.74,2.57A7.87,7.87,0,0,1,24.24,30.43ZM5.78,25.89h7.48c4.06,0,6.1-1.42,6.1-4.25a3.56,3.56,0,0,0-1.52-3.17,8.17,8.17,0,0,0-4.58-1H5.78ZM18.72,38a3.87,3.87,0,0,0,1.46-3.34,3.94,3.94,0,0,0-1.49-3.39A7.73,7.73,0,0,0,14,30.17H5.78v8.92H14A8.08,8.08,0,0,0,18.72,38Z" style="fill:#fff"/><path d="M67.77,42.69A2.44,2.44,0,0,1,67,40.76v-25a2.44,2.44,0,0,1,.76-1.93,3,3,0,0,1,2.08-.69H86.41a3.37,3.37,0,0,1,2.07.56,1.86,1.86,0,0,1,.73,1.58,2,2,0,0,1-.73,1.65,3.25,3.25,0,0,1-2.07.58H72.79v8.32H85.5a3.36,3.36,0,0,1,2.06.56A1.91,1.91,0,0,1,88.29,28a1.88,1.88,0,0,1-.73,1.59,3.36,3.36,0,0,1-2.06.55H72.79V39H86.41a3.25,3.25,0,0,1,2.07.58,2,2,0,0,1,.73,1.65,1.86,1.86,0,0,1-.73,1.58,3.37,3.37,0,0,1-2.07.56H69.85A3,3,0,0,1,67.77,42.69Z" style="fill:#fff"/><path d="M121.48,13.69a2.65,2.65,0,0,1,.76,2V40.85a2.73,2.73,0,0,1-.78,2,2.76,2.76,0,0,1-2,.77,2.69,2.69,0,0,1-2.25-1L100.45,22.28V40.85a2.86,2.86,0,0,1-.73,2,3,3,0,0,1-4,0,2.82,2.82,0,0,1-.73-2V15.68a2.59,2.59,0,0,1,.78-2,2.84,2.84,0,0,1,2.06-.75,2.66,2.66,0,0,1,2.2,1l16.7,20.28V15.68a2.65,2.65,0,0,1,.76-2,2.7,2.7,0,0,1,2-.75A2.76,2.76,0,0,1,121.48,13.69Z" style="fill:#fff"/><path d="M174.26,13.69a2.63,2.63,0,0,1,.78,2V41.06A2.47,2.47,0,0,1,174.3,43a2.69,2.69,0,0,1-1.92.69A2.51,2.51,0,0,1,170.5,43a2.55,2.55,0,0,1-.69-1.89V23.4L162,37.21a4.55,4.55,0,0,1-1.19,1.39,2.6,2.6,0,0,1-1.52.45,2.63,2.63,0,0,1-1.51-.43,4,4,0,0,1-1.19-1.41l-7.85-13.6V41.06a2.49,2.49,0,0,1-.71,1.87,2.58,2.58,0,0,1-1.9.71,2.38,2.38,0,0,1-2.57-2.58V15.68a2.65,2.65,0,0,1,.76-2,2.76,2.76,0,0,1,2-.75,3.1,3.1,0,0,1,2.8,1.84l10.18,18.14,10.14-18.14a3,3,0,0,1,2.7-1.84A2.86,2.86,0,0,1,174.26,13.69Z" style="fill:#fff"/><path d="M189.19,41.88a13.07,13.07,0,0,1-5.35-5.4A17.28,17.28,0,0,1,182,28.24,17.24,17.24,0,0,1,183.82,20a12.88,12.88,0,0,1,5.34-5.38,17,17,0,0,1,8.22-1.89,16.81,16.81,0,0,1,8.18,1.89A12.84,12.84,0,0,1,210.88,20a17.24,17.24,0,0,1,1.86,8.21,17.16,17.16,0,0,1-1.88,8.24,13,13,0,0,1-5.34,5.4,18.58,18.58,0,0,1-16.33,0Zm15.14-5.4c1.66-1.92,2.5-4.66,2.5-8.24s-.84-6.31-2.5-8.21a10,10,0,0,0-14,0q-2.5,2.85-2.5,8.21c0,3.58.83,6.32,2.5,8.24a9.91,9.91,0,0,0,14,0Z" style="fill:#fff"/><path d="M250.4,13.69a2.63,2.63,0,0,1,.78,2V41.06a2.46,2.46,0,0,1-.73,1.89,2.7,2.7,0,0,1-1.93.69A2.38,2.38,0,0,1,246,41.06V23.4l-7.79,13.81A4.43,4.43,0,0,1,237,38.6a2.57,2.57,0,0,1-1.51.45,2.6,2.6,0,0,1-1.51-.43,4.11,4.11,0,0,1-1.2-1.41l-7.84-13.6V41.06a2.53,2.53,0,0,1-.71,1.87,2.6,2.6,0,0,1-1.91.71,2.38,2.38,0,0,1-2.57-2.58V15.68a2.69,2.69,0,0,1,.76-2,2.79,2.79,0,0,1,2-.75,3.08,3.08,0,0,1,2.8,1.84l10.18,18.14,10.14-18.14a3,3,0,0,1,2.71-1.84A2.85,2.85,0,0,1,250.4,13.69Z" style="fill:#fff"/><path d="M259.87,42.69a2.47,2.47,0,0,1-.75-1.93v-25a2.47,2.47,0,0,1,.75-1.93,3,3,0,0,1,2.09-.69h16.56a3.37,3.37,0,0,1,2.07.56,1.89,1.89,0,0,1,.73,1.58,2,2,0,0,1-.73,1.65,3.25,3.25,0,0,1-2.07.58H264.9v8.32h12.7a3.37,3.37,0,0,1,2.07.56A1.91,1.91,0,0,1,280.4,28a1.88,1.88,0,0,1-.73,1.59,3.38,3.38,0,0,1-2.07.55H264.9V39h13.62a3.25,3.25,0,0,1,2.07.58,2,2,0,0,1,.73,1.65,1.89,1.89,0,0,1-.73,1.58,3.37,3.37,0,0,1-2.07.56H262A3,3,0,0,1,259.87,42.69Z" style="fill:#fff"/><path d="M313.59,13.69a2.69,2.69,0,0,1,.76,2V40.85a2.73,2.73,0,0,1-.78,2,2.78,2.78,0,0,1-2,.77,2.69,2.69,0,0,1-2.25-1L292.56,22.28V40.85a2.82,2.82,0,0,1-.74,2,3,3,0,0,1-4,0,2.82,2.82,0,0,1-.74-2V15.68a2.63,2.63,0,0,1,.78-2,2.86,2.86,0,0,1,2.07-.75,2.67,2.67,0,0,1,2.2,1L308.8,34.2V15.68a2.68,2.68,0,0,1,.75-2,2.72,2.72,0,0,1,2-.75A2.77,2.77,0,0,1,313.59,13.69Z" style="fill:#fff"/><path d="M330.65,42.84a2.61,2.61,0,0,1-.8-2V17.7H321.5c-1.83,0-2.75-.76-2.75-2.28s.92-2.27,2.75-2.27h22.62c1.83,0,2.75.76,2.75,2.27s-.92,2.28-2.75,2.28h-8.35V40.85a2.61,2.61,0,0,1-.8,2,3,3,0,0,1-2.14.75A3.09,3.09,0,0,1,330.65,42.84Z" style="fill:#fff"/><path d="M355.56,41.88a13,13,0,0,1-5.34-5.4,17.16,17.16,0,0,1-1.88-8.24A17.24,17.24,0,0,1,350.2,20a12.77,12.77,0,0,1,5.34-5.38,18.73,18.73,0,0,1,16.4,0A12.89,12.89,0,0,1,377.26,20a17.24,17.24,0,0,1,1.86,8.21,17.28,17.28,0,0,1-1.88,8.24,13.07,13.07,0,0,1-5.35,5.4,18.58,18.58,0,0,1-16.33,0Zm15.14-5.4c1.67-1.92,2.5-4.66,2.5-8.24s-.83-6.31-2.5-8.21a10,10,0,0,0-13.95,0c-1.66,1.9-2.5,4.64-2.5,8.21s.84,6.32,2.5,8.24a9.91,9.91,0,0,0,13.95,0Z" style="fill:#fff"/><path d="M384.25,42.72a3.22,3.22,0,0,1,0-4.59,3.68,3.68,0,0,1,4.87,0,3.22,3.22,0,0,1,0,4.59,3.68,3.68,0,0,1-4.87,0Z" style="fill:#fff"/><path d="M45.55,43.35A14.34,14.34,0,0,1,31.27,28.64L31.36,24a2.81,2.81,0,0,1,5.61.16l-.1,4.59a8.7,8.7,0,0,0,8.68,9c5,0,8.68-3.92,8.68-9.11l.08-4.56a2.8,2.8,0,1,1,5.6.13l-.07,4.49A14.34,14.34,0,0,1,45.55,43.35Z" style="fill:#fff"/><path d="M32.2,10.08H28a2.09,2.09,0,1,1,0-4.17H32.2a2.09,2.09,0,1,1,0,4.17Z" style="fill:#fff"/><path d="M63.17,10.08H59a2.09,2.09,0,1,1,0-4.17h4.19a2.09,2.09,0,1,1,0,4.17Z" style="fill:#fff"/><path d="M38.56,14.8c-.37,0-.65,0-.81,0A7.39,7.39,0,0,1,37.86,0a2.1,2.1,0,0,1,0,4.19,3.2,3.2,0,1,0,0,6.39l.24,0s3.51.33,4.64-1.95c.16-.31.31-.63.46-1C44.85,4.29,46.91,0,52.43,0h.22a7.39,7.39,0,1,1,0,14.77,2.1,2.1,0,0,1,0-4.19,3.2,3.2,0,0,0,.06-6.39H52.5C49.68,4.19,48.66,6,47,9.53l-.48,1C44.59,14.34,40.43,14.8,38.56,14.8Z" style="fill:#fff"/></g></g></svg>