<svg xmlns="http://www.w3.org/2000/svg" xmlns:xlink="http://www.w3.org/1999/xlink" viewBox="0 0 194 198"><defs><linearGradient id="linear-gradient" x1="2.44" y1="227.5" x2="125.64" y2="60.08" gradientUnits="userSpaceOnUse"><stop offset="0" stop-color="#0b0146"/><stop offset="0.19" stop-color="#163a37"/><stop offset="0.38" stop-color="#1f6a2b"/><stop offset="0.47" stop-color="#237d26"/><stop offset="0.6" stop-color="#3f9123"/><stop offset="0.87" stop-color="#76b91c"/><stop offset="1" stop-color="#8cc919"/></linearGradient></defs><g id="Capa_2" data-name="Capa 2"><g id="Capa_1-2" data-name="Capa 1"><rect width="194" height="198" rx="23.74" style="fill:url(#linear-gradient)"/><path d="M96.9,156.7c-21.13,0-37.68-17.06-37.68-38.83l.24-12.32a7.4,7.4,0,0,1,14.79.4L74,118.08c0,13.49,9.85,23.83,22.9,23.83s22.89-10.34,22.89-24l.21-12a7.39,7.39,0,1,1,14.78.35l-.2,11.85C134.58,139.64,118,156.7,96.9,156.7Z" style="fill:#fff"/><path d="M61.67,69h-11a5.5,5.5,0,1,1,0-11h11a5.5,5.5,0,1,1,0,11Z" style="fill:#fff"/><path d="M143.37,69h-11a5.5,5.5,0,1,1,0-11h11a5.5,5.5,0,1,1,0,11Z" style="fill:#fff"/><path d="M78.45,81.37c-1,0-1.71,0-2.13-.08a19.48,19.48,0,0,1,.28-39,5.52,5.52,0,1,1,0,11,8.44,8.44,0,1,0,0,16.88c.21,0,.42,0,.63,0,.06,0,9.27.88,12.25-5.13.41-.83.82-1.67,1.22-2.51,4.35-9,9.77-20.21,24.35-20.29l.26,0h.32a19.48,19.48,0,1,1,0,39,5.52,5.52,0,1,1,0-11,8.44,8.44,0,0,0,.14-16.88l-.24,0h-.31c-7.44,0-10.12,4.82-14.58,14.06-.42.87-.84,1.73-1.27,2.6C94.36,80.17,83.39,81.37,78.45,81.37Z" style="fill:#fff"/></g></g></svg>