<svg xmlns="http://www.w3.org/2000/svg" viewBox="0 0 71.14 71.14"><g id="Capa_2" data-name="Capa 2"><g id="Capa_1-2" data-name="Capa 1"><circle cx="35.57" cy="35.57" r="33.57" style="fill:#ce6b01"/><path d="M35.57,4A31.57,31.57,0,1,1,4,35.57,31.57,31.57,0,0,1,35.57,4m0-4A35.57,35.57,0,1,0,71.14,35.57,35.61,35.61,0,0,0,35.57,0Z" style="fill:#fff"/><path d="M54.29,30.36H50.54c-2.06-5.72-7.61-9.65-14.92-9.65h-12v9.65H19.42v3.46h4.17v3.63H19.42v3.46h4.17v9.54h12c7.23,0,12.73-3.9,14.85-9.54h3.82V37.45h-3a16.47,16.47,0,0,0,.12-1.87v-.09c0-.56,0-1.12-.09-1.67h3V30.36ZM27,23.79h8.66c5.37,0,9.36,2.64,11.2,6.56H27V23.79Zm8.66,23.54H27V40.9H46.8C44.94,44.75,41,47.33,35.62,47.33ZM47.94,35.65a13.12,13.12,0,0,1-.12,1.79H27V33.81H47.83a14.46,14.46,0,0,1,.11,1.76Z" style="fill:#fff"/></g></g></svg>