<svg xmlns="http://www.w3.org/2000/svg" viewBox="0 0 85.44 92.8"><g id="Capa_2" data-name="Capa 2"><g id="Capa_1-2" data-name="Capa 1"><path d="M37,26.54v5.61a1.69,1.69,0,1,1-3.36,0V26.56c-17.15,1-30.31,14.3-30.31,30.54,0,16.9,14.36,30.6,32.16,30.6S67.57,74,67.57,57.1C67.57,40.77,54.13,27.42,37,26.54Z" style="fill:none;stroke:#110546;stroke-linecap:round;stroke-linejoin:round;stroke-width:2px"/><ellipse cx="35.4" cy="64.59" rx="9.51" ry="7.28" style="fill:none;stroke:#110546;stroke-linecap:round;stroke-linejoin:round;stroke-width:2px"/><path d="M33.61,64.62a2.09,2.09,0,1,1-2.09-2.09A2.09,2.09,0,0,1,33.61,64.62Z" style="fill:#110546"/><path d="M41.46,64.62a2.09,2.09,0,1,1-2.09-2.09A2.09,2.09,0,0,1,41.46,64.62Z" style="fill:#110546"/><path d="M8,41.12a4.54,4.54,0,0,1-.89-.74c-2.06-2.2-4-7.91-1.83-10s7.76.31,9.82,2.52l.24.28a33.2,33.2,0,0,1,4-2.61c-4.87-3.48-14.19-5.88-17-3.34-3,2.68-.57,14.13,3.17,18.64A29.35,29.35,0,0,1,8,41.12Z" style="fill:none;stroke:#110546;stroke-linecap:round;stroke-linejoin:round;stroke-width:2px"/><path d="M55.27,33.06l.12-.13c2.06-2.21,7.62-4.58,9.82-2.52s.22,7.77-1.83,10a5.65,5.65,0,0,1-.65.58,29.64,29.64,0,0,1,2.49,4.65c3.61-4.7,5.88-15.73,2.93-18.35s-12-.19-16.9,3.24A31.89,31.89,0,0,1,55.27,33.06Z" style="fill:none;stroke:#110546;stroke-linecap:round;stroke-linejoin:round;stroke-width:2px"/><path d="M14.41,80.24c-.06,1.09,0,2.31-.2,3.6-.77,6,1.18,8,5.69,8,3.74,0,5.69-2.25,6.34-5.37A32.6,32.6,0,0,1,14.41,80.24Z" style="fill:none;stroke:#110546;stroke-linecap:round;stroke-linejoin:round;stroke-width:2px"/><path d="M56.38,80.34a32.48,32.48,0,0,1-11.83,6.13c.66,3.1,2.61,5.33,6.34,5.33,4.51,0,6.45-2,5.69-8C56.42,82.59,56.44,81.4,56.38,80.34Z" style="fill:none;stroke:#110546;stroke-linecap:round;stroke-linejoin:round;stroke-width:2px"/><path d="M14.45,86.13s2.32.24,9.31,3.55c0,0,.24,1.35-2,1.78s-5.76.36-6.44-.86a8.91,8.91,0,0,1-1-3.06C14.32,87.11,14.45,86.13,14.45,86.13Z" style="fill:#110546"/><path d="M56.41,86.13s-2.33.24-9.31,3.55c0,0-.25,1.35,2,1.78s5.75.36,6.43-.86a8.91,8.91,0,0,0,1-3.06C56.53,87.11,56.41,86.13,56.41,86.13Z" style="fill:#110546"/><path id="Shape" d="M34.93,49A4.79,4.79,0,0,0,36,49c3.68-.34,6.49-4,6.61-4.21a.65.65,0,0,0,0-.79c-.12-.17-2.93-3.86-6.61-4.2a3.83,3.83,0,0,0-1.07,0c-3.68.34-6.49,4-6.62,4.2a.68.68,0,0,0,0,.79C28.44,44.94,31.25,48.64,34.93,49Zm-2.78-4.6a3.33,3.33,0,0,1,.66-2,2.65,2.65,0,0,0,5.3,0,3.27,3.27,0,0,1,.66,2,3.31,3.31,0,1,1-6.62,0Zm4.64-2a1.33,1.33,0,1,1-2.65,0,1.33,1.33,0,0,1,2.65,0Zm4.44,2A13.81,13.81,0,0,1,39.9,45.7a4.57,4.57,0,0,0,0-2.64A15.06,15.06,0,0,1,41.23,44.38ZM31,43.05a4.74,4.74,0,0,0,0,2.64,13.71,13.71,0,0,1-1.32-1.32A13.71,13.71,0,0,1,31,43.05Z" style="fill:#09aeff"/><path id="Shape-2" data-name="Shape" d="M35.46,50.33a.67.67,0,0,0-.66.67v1.32a.66.66,0,0,0,1.32,0V51A.66.66,0,0,0,35.46,50.33Z" style="fill:#09aeff"/><path id="Shape-3" data-name="Shape" d="M40.61,48.59a.67.67,0,0,0-1.12.29.68.68,0,0,0,.18.65l.94.93a.66.66,0,0,0,.94-.93Z" style="fill:#09aeff"/><path id="Shape-4" data-name="Shape" d="M40.14,40.36a.63.63,0,0,0,.47-.2l.94-.93a.66.66,0,0,0,.18-.64.65.65,0,0,0-.48-.48.66.66,0,0,0-.64.18l-.94.94a.68.68,0,0,0-.14.72A.65.65,0,0,0,40.14,40.36Z" style="fill:#09aeff"/><path id="Shape-5" data-name="Shape" d="M35.46,38.42a.66.66,0,0,0,.66-.66V36.43a.66.66,0,0,0-1.32,0v1.33A.67.67,0,0,0,35.46,38.42Z" style="fill:#09aeff"/><path id="Shape-6" data-name="Shape" d="M30.31,40.16a.66.66,0,0,0,.65.19.69.69,0,0,0,.47-.48.66.66,0,0,0-.18-.64l-.94-.94a.66.66,0,0,0-.93.94Z" style="fill:#09aeff"/><path id="Shape-7" data-name="Shape" d="M29.85,50.65a.62.62,0,0,0,.46-.19l.94-.93a.68.68,0,0,0,.18-.65.66.66,0,0,0-.47-.47.68.68,0,0,0-.65.18l-.93.94a.66.66,0,0,0-.15.72A.68.68,0,0,0,29.85,50.65Z" style="fill:#09aeff"/><path d="M17.71,52.41a.75.75,0,0,1,.38.1c4.32,2.37,7.31,0,7.34-.06a.76.76,0,0,1,1.08.11.77.77,0,0,1-.1,1.08c-.16.12-3.83,3.09-9.06.21a.76.76,0,0,1-.3-1A.78.78,0,0,1,17.71,52.41Z" style="fill:#110546"/><path d="M45,52.41a.81.81,0,0,1,.39.1c4.32,2.37,7.3,0,7.33-.06a.78.78,0,0,1,1.09.11.77.77,0,0,1-.11,1.08c-.15.12-3.83,3.09-9,.21a.76.76,0,0,1-.31-1A.79.79,0,0,1,45,52.41Z" style="fill:#110546"/><path d="M30.93,77.94a5.19,5.19,0,0,0,9.93,0" style="fill:none;stroke:#110546;stroke-linecap:round;stroke-linejoin:round;stroke-width:2px"/><path d="M84.89,28.11c-.51,0-5.08-.17-5.08-5.5a.55.55,0,1,0-1.1,0c0,5.33-4.57,5.5-5.08,5.5h0a.55.55,0,0,0,0,1.1c.55,0,5.08.17,5.08,5.5a.55.55,0,0,0,.55.55c.25.09.51-.17.51-.5,0-5.34,4.57-5.51,5.07-5.51h0a.57.57,0,0,0,0-1.14Zm-5.67,3.6a5.84,5.84,0,0,0-3-3,5.67,5.67,0,0,0,3-3,5.61,5.61,0,0,0,3,3A5.68,5.68,0,0,0,79.22,31.71Z" style="fill:#09e7ff"/><path d="M80.68,9.18c-.77,0-7.7-.25-7.7-8.35A.86.86,0,0,0,72.14,0a.85.85,0,0,0-.83.83c0,8.1-6.94,8.35-7.71,8.35h-.07a.84.84,0,0,0,.07,1.67c.83,0,7.71.26,7.71,8.35a.85.85,0,0,0,.83.84c.39.13.77-.26.77-.77,0-8.09,6.94-8.35,7.71-8.35h.06a.87.87,0,0,0,.84-.9A.86.86,0,0,0,80.68,9.18Zm-8.6,5.46a8.84,8.84,0,0,0-4.63-4.56,8.6,8.6,0,0,0,4.63-4.56,8.59,8.59,0,0,0,4.62,4.56A8.62,8.62,0,0,0,72.08,14.64Z" style="fill:#09e7ff"/><path d="M55.49,14.39c-.51,0-5.08-.17-5.08-5.5a.56.56,0,0,0-.55-.55.57.57,0,0,0-.55.55c0,5.33-4.57,5.5-5.08,5.5h0a.55.55,0,0,0-.51.55.56.56,0,0,0,.55.55c.55,0,5.08.17,5.08,5.5a.56.56,0,0,0,.55.55c.26.09.51-.17.51-.5,0-5.34,4.57-5.51,5.08-5.51h0a.57.57,0,0,0,0-1.14ZM49.82,18a5.84,5.84,0,0,0-3-3,5.67,5.67,0,0,0,3-3,5.62,5.62,0,0,0,3,3A5.73,5.73,0,0,0,49.82,18Z" style="fill:#09e7ff"/></g></g></svg>