<svg xmlns="http://www.w3.org/2000/svg" viewBox="0 0 100 69.73"><g id="Capa_2" data-name="Capa 2"><g id="Capa_1-2" data-name="Capa 1"><path d="M19.89,44A4.5,4.5,0,0,1,16,45.13a7.62,7.62,0,0,1-.81-.3l-.69-.32a17.34,17.34,0,0,1-2.6-1.58,13.61,13.61,0,0,1-3.79-4.37l-.22,0A3.4,3.4,0,0,1,7,38.31a4,4,0,0,1-1.55-1.07c-1.88-.9-3.25-3.48-3.75-4.56A7.65,7.65,0,0,1,1,29.27a.92.92,0,1,1,1.84.11,5.85,5.85,0,0,0,.52,2.52,1.87,1.87,0,0,0,.12.25,20.43,20.43,0,0,1-.07-3.72.93.93,0,1,1,1.85.09,26.44,26.44,0,0,0,0,2.66,3.77,3.77,0,0,1,1.9-1.09A2.72,2.72,0,0,1,9.92,31a1.08,1.08,0,0,1-1.74,1.28.67.67,0,0,0-.59-.11,1.69,1.69,0,0,0-1.14,1A2.43,2.43,0,0,0,6.53,35,2.3,2.3,0,0,0,7.77,36.3a1.5,1.5,0,0,0,1.46-.18A1,1,0,0,0,9.53,35a1.08,1.08,0,0,1,1.94-1,3.2,3.2,0,0,1-.77,3.66A10.55,10.55,0,0,0,11.76,39a11.14,11.14,0,0,0,1.89,1.52,9.17,9.17,0,0,0,1.77.89s1.36-1,2.86-2.28" style="fill:none;stroke:#110546;stroke-linecap:round;stroke-linejoin:round;stroke-width:2px"/><path d="M80.11,44A4.5,4.5,0,0,0,84,45.13a7.62,7.62,0,0,0,.81-.3l.69-.32a17.34,17.34,0,0,0,2.6-1.58,13.61,13.61,0,0,0,3.79-4.37l.22,0a3.4,3.4,0,0,0,.94-.23,4,4,0,0,0,1.55-1.07c1.88-.9,3.25-3.48,3.75-4.56A7.65,7.65,0,0,0,99,29.27a.92.92,0,1,0-1.84.11,5.85,5.85,0,0,1-.52,2.52,1.87,1.87,0,0,1-.12.25,20.43,20.43,0,0,0,.07-3.72.93.93,0,0,0-1.85.09,26.44,26.44,0,0,1,0,2.66,3.77,3.77,0,0,0-1.9-1.09,2.72,2.72,0,0,0-2.77.94,1.08,1.08,0,0,0,1.74,1.28.67.67,0,0,1,.59-.11,1.69,1.69,0,0,1,1.14,1A2.43,2.43,0,0,1,93.47,35a2.3,2.3,0,0,1-1.24,1.28,1.5,1.5,0,0,1-1.46-.18,1,1,0,0,1-.3-1.13,1.08,1.08,0,0,0-1.94-1,3.2,3.2,0,0,0,.77,3.66A10.55,10.55,0,0,1,88.24,39a11.14,11.14,0,0,1-1.89,1.52,9.17,9.17,0,0,1-1.77.89s-1.36-1-2.86-2.28" style="fill:none;stroke:#110546;stroke-linecap:round;stroke-linejoin:round;stroke-width:2px"/><path d="M51.77,1.35V7a1.7,1.7,0,1,1-3.39,0V1.36C31.06,2.39,17.77,15.8,17.77,32.2c0,17.07,14.5,30.9,32.47,30.9S82.66,49.27,82.66,32.2C82.66,15.71,69.09,2.23,51.77,1.35Z" style="fill:none;stroke:#110546;stroke-linecap:round;stroke-linejoin:round;stroke-width:2px"/><ellipse cx="50.17" cy="39.76" rx="9.61" ry="7.35" style="fill:none;stroke:#110546;stroke-linecap:round;stroke-linejoin:round;stroke-width:2px"/><path d="M48.37,39.79a2.11,2.11,0,1,1-2.11-2.11A2.1,2.1,0,0,1,48.37,39.79Z" style="fill:#110546"/><path d="M56.3,39.79a2.12,2.12,0,1,1-2.12-2.11A2.11,2.11,0,0,1,56.3,39.79Z" style="fill:#110546"/><path d="M22.53,16.06a4.31,4.31,0,0,1-.9-.74c-2.08-2.23-4.08-8-1.85-10.07s7.84.32,9.91,2.54l.25.29A33.76,33.76,0,0,1,34,5.44C29.1,1.93,19.69-.5,16.81,2.07c-3,2.71-.59,14.27,3.19,18.82A30.41,30.41,0,0,1,22.53,16.06Z" style="fill:none;stroke:#110546;stroke-linecap:round;stroke-linejoin:round;stroke-width:2px"/><path d="M70.24,7.93l.12-.14c2.08-2.22,7.69-4.62,9.92-2.54s.22,7.84-1.86,10.07a4.92,4.92,0,0,1-.65.58,30.19,30.19,0,0,1,2.52,4.69c3.64-4.74,5.93-15.87,3-18.52S71.14,1.88,66.18,5.34A32.14,32.14,0,0,1,70.24,7.93Z" style="fill:none;stroke:#110546;stroke-linecap:round;stroke-linejoin:round;stroke-width:2px"/><path d="M56.72,28.51a3,3,0,0,0,5.33-.27" style="fill:none;stroke:#fff;stroke-linecap:round;stroke-linejoin:round;stroke-width:2px"/><path d="M38.46,28.51a3,3,0,0,0,5.32-.27" style="fill:none;stroke:#fff;stroke-linecap:round;stroke-linejoin:round;stroke-width:2px"/><path d="M35,23.12a2.51,2.51,0,0,0,1-.24c.33-.13.67-.25,1-.35s.65-.19,1-.28a2.53,2.53,0,0,0,.93-.38c.22-.19.23-.54-.2-.82a2.76,2.76,0,0,0-2.27-.13,2.69,2.69,0,0,0-1.75,1.42C34.49,22.82,34.7,23.09,35,23.12Z" style="fill:#110546"/><path d="M64.61,23.48a2.46,2.46,0,0,1-1-.33c-.32-.17-.65-.32-.93-.45s-.63-.26-1-.39a2.22,2.22,0,0,1-.89-.47c-.2-.21-.17-.55.28-.79a2.8,2.8,0,0,1,2.28.1A2.73,2.73,0,0,1,65,22.75C65.14,23.24,64.9,23.49,64.61,23.48Z" style="fill:#110546"/><path d="M57.32,27.88a.89.89,0,0,1,.31.15c3.27,2.83,6.27,1.31,6.3,1.3a.69.69,0,0,1,.91.28.68.68,0,0,1-.29.91c-.15.08-3.84,1.95-7.8-1.47a.68.68,0,0,1-.07-.95A.69.69,0,0,1,57.32,27.88Z" style="fill:#110546"/><path d="M35.32,29.07a.57.57,0,0,1,.34,0c4,1.58,6.35-.83,6.37-.86a.68.68,0,0,1,.95,0,.67.67,0,0,1,0,1c-.13.13-3,3.11-7.85,1.19a.67.67,0,0,1-.38-.88A.66.66,0,0,1,35.32,29.07Z" style="fill:#110546"/><path d="M76.62,58.55A3.67,3.67,0,0,0,75.39,57a5.91,5.91,0,0,0-1.71-.84c-.29-.09-.59-.17-.88-.23l-.87-.18-.87-.14-.87-.1a24.11,24.11,0,0,0-3.39-.06c-1.11,0-2.18.16-3.22.31-2.09.3-4,.71-5.85,1.11s-3.5.8-5,1.21l-.56.15c-1.3.37-2.48.75-3.52,1.12s-2.14.83-2.93,1.19h0l0,0-.2-.1L45,60.15l-.51-.23-.53-.24-.26-.12-.28-.11L42.26,59l-1.19-.42a32.06,32.06,0,0,0-5.31-1.24c-.95-.13-1.93-.23-2.94-.27-.25,0-.5,0-.76,0h-.77a12.16,12.16,0,0,0-1.58.13,7.45,7.45,0,0,0-3.1,1.14,4.88,4.88,0,0,0-1.24,1.2,5,5,0,0,0-.8,1.58,3.91,3.91,0,0,0-.08,1.8l0,.11a.45.45,0,0,0,0,.11l.06.22a1.8,1.8,0,0,0,.08.21l.09.21c.07.13.14.26.22.39l.12.18.14.18a1.07,1.07,0,0,0,.14.16l.15.17c.1.09.2.2.31.29l.16.14.17.13.34.24a11,11,0,0,0,1.44.76c.24.11.49.21.73.3l.73.26.72.26.73.21.72.22.72.18L33,68a2.33,2.33,0,0,0,.36.08l.36.07c.47.09.93.19,1.4.24l.69.1.34,0,.34,0,.68.06.33,0,.33,0,1.3,0a35.08,35.08,0,0,0,4.74-.25A36.37,36.37,0,0,0,50.56,67l.54-.18.48-.16.73-.29c.19-.08.34-.14.43-.19l.22-.07c1.11.26,2.36.54,3.73.82.78.16,1.59.3,2.45.44.43.07.87.12,1.31.18l.69.08.69.06a24.91,24.91,0,0,0,6-.2A17.65,17.65,0,0,0,71,66.63,13.32,13.32,0,0,0,72.55,66a11,11,0,0,0,1.51-.88,8.4,8.4,0,0,0,1.36-1.18c.11-.11.2-.23.3-.35l.28-.38c.09-.12.17-.26.25-.39a3.48,3.48,0,0,0,.22-.43c.07-.14.13-.29.19-.44a2,2,0,0,1,.07-.23l0-.11,0-.12a4.64,4.64,0,0,0-.17-2.9Zm-29.85,9q-1.35.24-2.94.42a38.46,38.46,0,0,1-4.66.15L37.9,68c-.11,0-.22,0-.33,0l-.32,0-.66-.07-.34,0-.33,0-.67-.1c-.46-.06-.91-.16-1.37-.25l-.35-.07-.34-.08-.7-.18c-.23-.06-.47-.11-.7-.18l-.7-.21-.71-.22-.7-.26L29,66c-.24-.09-.47-.18-.7-.29A8.74,8.74,0,0,1,27,65l-.31-.22-.14-.11-.14-.12c-.1-.08-.18-.17-.27-.25L26,64.15,25.85,64l-.11-.15-.1-.15-.17-.31a1.11,1.11,0,0,1-.07-.16,1.15,1.15,0,0,1-.06-.17l-.05-.17,0-.09v-.08a3.06,3.06,0,0,1,.07-1.44A4.27,4.27,0,0,1,26,60a4.7,4.7,0,0,1,1.06-1,3.21,3.21,0,0,1,.31-.19l.16-.1.17-.08.17-.08.17-.08.35-.13a7.88,7.88,0,0,1,1.45-.36,14.53,14.53,0,0,1,1.48-.13h.74c.25,0,.5,0,.74,0,1,0,1.94.12,2.87.24a31.42,31.42,0,0,1,5.21,1.15l1.17.38,1.12.42.27.11.26.11.52.22.51.22.34.17h0l.12.06c.69.32,1.34.66,1.94,1C47.39,62.76,48,65.43,46.77,67.51Z" style="fill:#110546;stroke:#110546;stroke-linecap:round;stroke-linejoin:round;stroke-width:2px"/><path d="M76.09,60.45a4.31,4.31,0,0,1-.12.79l0,.1,0,.1-.06.19c0,.12-.1.25-.16.37s-.12.23-.18.35a2.84,2.84,0,0,1-.22.34,2.52,2.52,0,0,1-.24.33l-.26.31a7.8,7.8,0,0,1-1.22,1.07,9.85,9.85,0,0,1-1.4.82,13.69,13.69,0,0,1-1.47.65,16.72,16.72,0,0,1-3,.82,25,25,0,0,1-5.81.26c-.23,0-.46,0-.68,0l-.67-.06c-.44,0-.87-.09-1.3-.15-.84-.12-1.66-.25-2.43-.38-1.29-.23-2.47-.46-3.54-.67A11.77,11.77,0,0,1,52,59.9c0-.34,0-.69.06-1.06l.78-.19c1.53-.38,3.21-.74,5-1.11s3.75-.75,5.8-1a28.61,28.61,0,0,1,6.44-.2l.83.1.83.13.83.18c.28.06.55.14.81.22a5.08,5.08,0,0,1,1.46.71,2.89,2.89,0,0,1,1,1.22l0,0A3.54,3.54,0,0,1,76.09,60.45Z" style="fill:#fff"/><path d="M46.77,67.51q-1.35.24-2.94.42a38.46,38.46,0,0,1-4.66.15L37.9,68c-.11,0-.22,0-.33,0l-.32,0-.66-.07-.34,0-.33,0-.67-.1c-.46-.06-.91-.16-1.37-.25l-.35-.07-.34-.08-.7-.18c-.23-.06-.47-.11-.7-.18l-.7-.21-.71-.22-.7-.26L29,66c-.24-.09-.47-.18-.7-.29A8.74,8.74,0,0,1,27,65l-.31-.22-.14-.11-.14-.12c-.1-.08-.18-.17-.27-.25L26,64.15,25.85,64l-.11-.15-.1-.15-.17-.31a1.11,1.11,0,0,1-.07-.16,1.15,1.15,0,0,1-.06-.17l-.05-.17,0-.09v-.08a3,3,0,0,1,0-1.27c0-.06,0-.11,0-.17A4.27,4.27,0,0,1,26,60a4.7,4.7,0,0,1,1.06-1,3.21,3.21,0,0,1,.31-.19l.16-.1.17-.08.17-.08.17-.08.35-.13a7.88,7.88,0,0,1,1.45-.36,14.53,14.53,0,0,1,1.48-.13h.74c.25,0,.5,0,.74,0,1,0,1.94.12,2.87.24a31.42,31.42,0,0,1,5.21,1.15l1.17.38,1.12.42.27.11.26.11.52.22.51.22.34.17h0l.12.06c.69.32,1.34.66,1.94,1A10.09,10.09,0,0,1,47.38,63,7,7,0,0,1,46.77,67.51Z" style="fill:#fff"/><path d="M45.54,51a4.55,4.55,0,0,0,8.7,0" style="fill:none;stroke:#110546;stroke-linecap:round;stroke-linejoin:round;stroke-width:2px"/></g></g></svg>