<svg xmlns="http://www.w3.org/2000/svg" viewBox="0 0 69.55 69.55"><g id="Capa_2" data-name="Capa 2"><g id="Capa_1-2" data-name="Capa 1"><g id="g16"><g id="coin"><path d="M34.8,68.05a33.48,33.48,0,0,1-8.08-1A33.26,33.26,0,1,1,42.82,2.5a33.27,33.27,0,0,1-8,65.55Z" style="fill:#09aeff"/><path d="M34.75,3a31.78,31.78,0,0,1,0,63.55A31.78,31.78,0,0,1,34.75,3m0-3h0a34.82,34.82,0,1,0,8.43,1,34.7,34.7,0,0,0-8.43-1Z" style="fill:#fff"/></g><path id="symbol" d="M48.78,30.25c.63-4.23-2.59-6.5-7-8l1.43-5.73-3.49-.87-1.39,5.58c-.91-.23-1.85-.44-2.79-.66L37,14.94l-3.48-.87L32,19.8l-2.23-.53h0L25,18.05l-.93,3.73s2.59.59,2.53.63a1.86,1.86,0,0,1,1.63,2L26.61,31a1.88,1.88,0,0,1,.36.12L26.6,31l-2.28,9.14a1.26,1.26,0,0,1-1.59.83s-2.54-.63-2.54-.63l-1.73,4L23,45.44l2.48.64L24,51.88l3.48.86L29,47c.95.26,1.88.5,2.78.72l-1.42,5.71,3.48.87,1.45-5.79c5.94,1.13,10.41.68,12.29-4.7,1.52-4.33-.07-6.83-3.2-8.45,2.28-.53,4-2,4.45-5.12Zm-8,11.17c-1.07,4.32-8.36,2-10.72,1.4L32,35.14C34.36,35.73,41.94,36.9,40.81,41.42Zm1.08-11.24c-1,3.94-7,1.94-9,1.45l1.73-7C36.58,25.16,42.92,26.08,41.89,30.18Z" style="fill:#fff"/></g></g></g></svg>