<svg xmlns="http://www.w3.org/2000/svg" viewBox="0 0 80.06 80.06"><g id="Capa_2" data-name="Capa 2"><g id="Capa_1-2" data-name="Capa 1"><circle cx="40.03" cy="40.03" r="38.03" style="fill:none;stroke:#fff;stroke-linecap:round;stroke-linejoin:round;stroke-width:4px"/><path d="M61.39,34H57c-2.43-6.73-8.94-11.34-17.54-11.34H25.32V34H20.41v4.06h4.91v4.27H20.41V46.4h4.91V57.6H39.45c8.5,0,15-4.57,17.45-11.2h4.49V42.33h-3.5a20,20,0,0,0,.13-2.2V40c0-.67,0-1.32-.09-2H61.4V34ZM29.28,26.28H39.45c6.31,0,11,3.1,13.16,7.7H29.28v-7.7ZM39.45,53.94H29.28V46.39h23.3C50.41,50.91,45.73,53.94,39.45,53.94ZM53.93,40.22a14.52,14.52,0,0,1-.15,2.1H29.28V38.05H53.8a17.43,17.43,0,0,1,.13,2.07Z" style="fill:#fff"/></g></g></svg>