<svg xmlns="http://www.w3.org/2000/svg" viewBox="0 0 70.68 67.76"><g id="Capa_2" data-name="Capa 2"><g id="Capa_1-2" data-name="Capa 1"><path d="M37.07,1.34V7A1.69,1.69,0,1,1,33.7,7V1.36C16.5,2.38,3.32,15.7,3.32,32c0,16.94,14.39,30.67,32.23,30.67S67.73,48.92,67.73,32C67.73,15.6,54.26,2.22,37.07,1.34Z" style="fill:none;stroke:#110546;stroke-linecap:round;stroke-linejoin:round;stroke-width:2px"/><path d="M28.62,29.91a2,2,0,1,1-2-2A2,2,0,0,1,28.62,29.91Z" style="fill:#393939"/><path d="M46.55,29.91a2,2,0,1,1-2-2A2,2,0,0,1,46.55,29.91Z" style="fill:#393939"/><path d="M60.43,20.58c.68.11,1.35.23,2,.4,0,.41,0,.81,0,1.22s0,.77,0,1.16a.87.87,0,0,1-.19.57,5.47,5.47,0,0,1-.51.45,3.85,3.85,0,0,0-1.62,2.37c-.19.73-.37,1.45-.62,2.16a20.75,20.75,0,0,1-1.24,2.86,8.21,8.21,0,0,1-1.28,1.71,9.26,9.26,0,0,1-2.29,1.79,10.69,10.69,0,0,1-4.13,1.23,8.68,8.68,0,0,1-1.52.14A18.92,18.92,0,0,1,44.7,36a9.5,9.5,0,0,1-4.81-3.16,8.1,8.1,0,0,1-1.76-4.26,3.23,3.23,0,0,0-.22-1.11,1.89,1.89,0,0,0-1.15-.94,3.4,3.4,0,0,0-2.67.21,1.74,1.74,0,0,0-.76.76A8.82,8.82,0,0,0,33,29.22a9.1,9.1,0,0,1-.89,2.36,12.25,12.25,0,0,1-1,1.41,12.07,12.07,0,0,1-2.53,2.14,13.59,13.59,0,0,1-5.91,1.73,7.17,7.17,0,0,1-1.67,0,19.84,19.84,0,0,1-3-.45,8,8,0,0,1-3.2-1.75,11.65,11.65,0,0,1-3.18-5.45c-.2-.61-.26-1.25-.41-1.87a4.12,4.12,0,0,0-.73-1.52A15,15,0,0,0,9,24.41c0-.92,0-1.84.09-2.76l.35-.11a30.49,30.49,0,0,1,3.14-.6l.78-.1c.65-.07,1.3-.17,1.94-.24a6,6,0,0,1,.61-.05c.86,0,1.71-.14,2.58-.12a55.66,55.66,0,0,1,6.83.42A35.6,35.6,0,0,1,30.89,22a6.23,6.23,0,0,0,1.42.26c1.29.08,2.58,0,3.87,0a18.27,18.27,0,0,0,3.47-.16c1.13-.21,2.21-.63,3.33-.88a41.88,41.88,0,0,1,7.13-1.06c1.5-.12,3,0,4.51-.07.56,0,1.12.05,1.69.07s1,.08,1.45.11.87.05,1.3.11ZM60.58,22a2.22,2.22,0,0,0-1.14.21c-.15.08-.3.27-.18.44a1.24,1.24,0,0,0,.93.44,1.9,1.9,0,0,0,1.43-.3c.15-.13.06-.37-.07-.48A1.86,1.86,0,0,0,60.58,22Zm-5.91-.41c-.73,0-1.47,0-2.2,0a5.61,5.61,0,0,1-.58,0,1.9,1.9,0,0,0-.63.05,7,7,0,0,0-1.52,0,25.91,25.91,0,0,0-7.36,1.44,6.72,6.72,0,0,0-1.47.73,4,4,0,0,0-1.42,1.93,5.43,5.43,0,0,0,0,3A8.13,8.13,0,0,0,42,33.12l.34.26h0q.2.13.39.3a16.59,16.59,0,0,0,1.47.86l0,0c.57.16,1.11.39,1.68.53a12.72,12.72,0,0,0,3.13.39,10.07,10.07,0,0,0,4-.61,7.17,7.17,0,0,0,1.9-1,9.4,9.4,0,0,0,2.28-2.7,13.15,13.15,0,0,0,1.4-3.78,8.92,8.92,0,0,0,.21-2.82A3.16,3.16,0,0,0,58,22.79a5,5,0,0,0-1.41-.9A3.87,3.87,0,0,0,54.67,21.63Zm-29,.83a7,7,0,0,1-.78-.13l-.45,0A43.85,43.85,0,0,0,17.07,22a5.17,5.17,0,0,0-3.28,1,3.15,3.15,0,0,0-1.17,1.92,7.75,7.75,0,0,0-.1,1.8,6.29,6.29,0,0,0,.21,1.78,20,20,0,0,0,1.18,3.1,7.61,7.61,0,0,0,1.35,1.88l.3.31a5.27,5.27,0,0,0,.51.55,6.15,6.15,0,0,0,1.5.79,10.5,10.5,0,0,0,4.29.74A12,12,0,0,0,28,34.05,8.72,8.72,0,0,0,32,27.12a3.26,3.26,0,0,0-.83-2.46,7.57,7.57,0,0,0-3.53-1.82A10.84,10.84,0,0,0,25.64,22.46ZM11,22.58a2.39,2.39,0,0,0-1,.07.72.72,0,0,0-.48.35c-.07.21.12.38.29.47a2.27,2.27,0,0,0,1.12.21,1.65,1.65,0,0,0,1-.3.35.35,0,0,0-.07-.52A2,2,0,0,0,11,22.58Z" style="fill:#247d2c"/><path d="M60.58,22a1.86,1.86,0,0,1,1,.31c.13.11.22.35.07.48a1.9,1.9,0,0,1-1.43.3,1.24,1.24,0,0,1-.93-.44c-.12-.17,0-.36.18-.44A2.22,2.22,0,0,1,60.58,22Z" style="fill:#8bc321"/><path d="M11,22.58a2,2,0,0,1,.86.28.35.35,0,0,1,.07.52,1.65,1.65,0,0,1-1,.3,2.27,2.27,0,0,1-1.12-.21c-.17-.09-.36-.26-.29-.47a.72.72,0,0,1,.48-.35A2.39,2.39,0,0,1,11,22.58Z" style="fill:#8bc321"/><path d="M8,16a3.89,3.89,0,0,1-.88-.74C5.08,13,3.1,7.29,5.31,5.22s7.78.31,9.84,2.53A3.33,3.33,0,0,1,15.4,8a32.11,32.11,0,0,1,4-2.62C14.56,1.92,5.22-.49,2.36,2.06c-3,2.69-.58,14.17,3.17,18.69A30.8,30.8,0,0,1,8,16Z" style="fill:none;stroke:#110546;stroke-linecap:round;stroke-linejoin:round;stroke-width:2px"/><path d="M55.41,7.88a.74.74,0,0,1,.12-.13c2.06-2.22,7.63-4.59,9.84-2.53s.22,7.78-1.84,10a4.3,4.3,0,0,1-.65.58,29.41,29.41,0,0,1,2.5,4.66C69,15.74,71.27,4.69,68.32,2.06s-12-.19-16.94,3.25A32.38,32.38,0,0,1,55.41,7.88Z" style="fill:none;stroke:#110546;stroke-linecap:round;stroke-linejoin:round;stroke-width:2px"/><path d="M14.44,55.17c-.06,1.09,0,2.32-.2,3.61-.77,6,1.18,8,5.7,8,3.76,0,5.71-2.25,6.36-5.39A32.45,32.45,0,0,1,14.44,55.17Z" style="fill:none;stroke:#110546;stroke-linecap:round;stroke-linejoin:round;stroke-width:2px"/><path d="M56.52,55.27a32.41,32.41,0,0,1-11.86,6.14c.66,3.12,2.61,5.35,6.35,5.35,4.52,0,6.47-2,5.7-8C56.55,57.53,56.57,56.34,56.52,55.27Z" style="fill:none;stroke:#110546;stroke-linecap:round;stroke-linejoin:round;stroke-width:2px"/><path d="M25.64,22.46a7,7,0,0,1-.78-.13l-.45,0A43.85,43.85,0,0,0,17.07,22a5.17,5.17,0,0,0-3.28,1,3.15,3.15,0,0,0-1.17,1.92,7.75,7.75,0,0,0-.1,1.8,6.29,6.29,0,0,0,.21,1.78,20,20,0,0,0,1.18,3.1,7.61,7.61,0,0,0,1.35,1.88l.3.31a5.27,5.27,0,0,0,.51.55,6.15,6.15,0,0,0,1.5.79,10.5,10.5,0,0,0,4.29.74A12,12,0,0,0,28,34.05,8.72,8.72,0,0,0,32,27.12a3.26,3.26,0,0,0-.83-2.46,7.57,7.57,0,0,0-3.53-1.82A10.84,10.84,0,0,0,25.64,22.46Z" style="fill:#d5f516"/><path d="M54.67,21.63c-.73,0-1.47,0-2.2,0a5.61,5.61,0,0,1-.58,0,1.9,1.9,0,0,0-.63.05,7,7,0,0,0-1.52,0,25.91,25.91,0,0,0-7.36,1.44,6.72,6.72,0,0,0-1.47.73,4,4,0,0,0-1.42,1.93,5.43,5.43,0,0,0,0,3A8.13,8.13,0,0,0,42,33.12l.34.26h0q.2.13.39.3a16.59,16.59,0,0,0,1.47.86l0,0c.57.16,1.11.39,1.68.53a12.72,12.72,0,0,0,3.13.39,10.07,10.07,0,0,0,4-.61,7.17,7.17,0,0,0,1.9-1,9.4,9.4,0,0,0,2.28-2.7,13.15,13.15,0,0,0,1.4-3.78,8.92,8.92,0,0,0,.21-2.82A3.16,3.16,0,0,0,58,22.79a5,5,0,0,0-1.41-.9A3.87,3.87,0,0,0,54.67,21.63Z" style="fill:#d5f516"/><ellipse cx="35.42" cy="39.06" rx="9.52" ry="7.29" style="fill:#fff;stroke:#110546;stroke-linecap:round;stroke-linejoin:round;stroke-width:2px"/><path d="M33.63,39.09A2.09,2.09,0,1,1,31.54,37,2.09,2.09,0,0,1,33.63,39.09Z" style="fill:#110546"/><path d="M41.49,39.09A2.09,2.09,0,1,1,39.4,37,2.1,2.1,0,0,1,41.49,39.09Z" style="fill:#110546"/><path d="M14.28,60.62s2.51.26,10.06,3.84c0,0,.26,1.46-2.12,1.92s-6.22.4-6.95-.93a9.4,9.4,0,0,1-1.13-3.31C14.14,61.68,14.28,60.62,14.28,60.62Z" style="fill:#110546"/><path d="M56.62,60.62s-2.46.26-9.86,3.76c0,0-.26,1.43,2.08,1.89s6.1.39,6.81-.91a9.33,9.33,0,0,0,1.1-3.25C56.75,61.66,56.62,60.62,56.62,60.62Z" style="fill:#110546"/></g></g></svg>