<svg xmlns="http://www.w3.org/2000/svg" viewBox="0 0 69.14 69.14"><g id="Capa_2" data-name="Capa 2"><g id="Capa_1-2" data-name="Capa 1"><circle cx="34.57" cy="34.57" r="33.07" style="fill:#f8e12e"/><path d="M34.57,3A31.57,31.57,0,1,1,3,34.57,31.57,31.57,0,0,1,34.57,3m0-3A34.57,34.57,0,1,0,69.14,34.57,34.61,34.61,0,0,0,34.57,0Z" style="fill:#fff"/><path d="M30.58,18.11s9,0,14.55,6.65,4,18.3-4,22.93a27.56,27.56,0,0,1-22.45,2.12A9,9,0,0,1,14,37c2.6-4.53,3.08-10.69,3.28-12.14S19.89,16.18,30.58,18.11Z" style="fill:#fff;opacity:0.6000000000000001"/><path d="M27.31,17.92S32.8,12,39.54,17.15s10.51.28,14.55,5.2-3.47,17.44-6.93,20.33S35.4,54.34,23.07,50.39c0,0-6.94-6.56-4.82-18.41C23.74,19.75,27.31,17.92,27.31,17.92Z" style="fill:#fff;opacity:0.42"/><path d="M41.57,51.06S33.86,59.25,27,54,14.69,36.8,23.55,26.68s24.57-6.55,30,4.05,1,12.53-3.18,14.07S41.57,51.06,41.57,51.06Z" style="fill:#fff;opacity:0.8"/><ellipse cx="33.76" cy="35.18" rx="11.29" ry="11.57" style="fill:#f8e12e"/></g></g></svg>