<?xml version="1.0" encoding="utf-8"?>
<!-- Generator: Adobe Illustrator 22.1.0, SVG Export Plug-In . SVG Version: 6.00 Build 0)  -->
<svg version="1.1" id="Capa_1" xmlns="http://www.w3.org/2000/svg" xmlns:xlink="http://www.w3.org/1999/xlink" x="0px" y="0px"
	 viewBox="0 0 80.1 80.1" style="enable-background:new 0 0 80.1 80.1;" xml:space="preserve">
<style type="text/css">
	.st0{fill:none;stroke:#FFFFFF;stroke-width:4;stroke-linecap:round;stroke-linejoin:round;}
	.st1{opacity:0.42;fill:#FFFFFF;enable-background:new    ;}
	.st2{opacity:0.8;fill:#FFFFFF;enable-background:new    ;}
	.st3{opacity:0.6;fill:#FFFFFF;enable-background:new    ;}
</style>
<g>
	<g id="Capa_2_2_">
		<g id="Capa_1-2_1_">
			<circle class="st0" cx="40" cy="40" r="38"/>
			<path class="st1" d="M60,27.4c-4-4.9-7.8-0.1-14.5-5.2c-6.8-5.1-12.2,0.8-12.2,0.8s-3.6,1.8-9,14.1C22.1,48.8,29,55.4,29,55.4
				c12.3,3.9,20.6-4.8,24.1-7.7C56.5,44.8,64,32.3,60,27.4z M39.7,51.8c-6.2,0-11.3-5.2-11.3-11.6s5.1-11.6,11.3-11.6
				c6.2,0,11.3,5.2,11.3,11.6S45.9,51.8,39.7,51.8z"/>
		</g>
	</g>
	<path class="st2" d="M59.5,35.7c-5.4-10.5-21.1-14.1-30-4s-3.4,22,3.5,27.3c6.8,5.3,14.6-2.9,14.6-2.9s4.6-4.8,8.8-6.3
		C60.5,48.2,64.9,46.2,59.5,35.7z M39.7,51.8c-6.2,0-11.3-5.2-11.3-11.6s5.1-11.6,11.3-11.6c6.2,0,11.3,5.2,11.3,11.6
		S45.9,51.8,39.7,51.8z"/>
	<path class="st3" d="M51,29.8c-5.6-6.7-14.6-6.7-14.6-6.7c-10.7-1.9-13.1,5.3-13.3,6.7s-0.7,7.6-3.3,12.1c-0.2,0.4-0.4,0.8-0.6,1.2
		c-1.8,4.6,0.6,9.8,5.2,11.6c7.4,2.5,15.6,1.8,22.5-2.1C55,48.1,56.6,36.4,51,29.8z M39.7,51.8c-6.2,0-11.3-5.2-11.3-11.6
		s5.1-11.6,11.3-11.6c6.2,0,11.3,5.2,11.3,11.6S45.9,51.8,39.7,51.8z"/>
</g>
</svg>
