<svg xmlns="http://www.w3.org/2000/svg" viewBox="0 0 80.06 80.06"><g id="Capa_2" data-name="Capa 2"><g id="Capa_1-2" data-name="Capa 1"><circle cx="40.03" cy="40.03" r="38.03" style="fill:none;stroke:#fff;stroke-linecap:round;stroke-linejoin:round;stroke-width:4px"/><path d="M36.48,23.12s9,0,14.55,6.65,4,18.31-4,22.93a27.52,27.52,0,0,1-22.45,2.12A9,9,0,0,1,19.91,42c2.6-4.53,3.09-10.7,3.28-12.14S25.79,21.2,36.48,23.12Z" style="fill:#fff;opacity:0.6000000000000001"/><path d="M33.21,22.93s5.49-5.88,12.24-.77S56,22.45,60,27.36,56.53,44.8,53.06,47.69,41.3,59.35,29,55.4c0,0-6.94-6.55-4.82-18.4C29.64,24.76,33.21,22.93,33.21,22.93Z" style="fill:#fff;opacity:0.42"/><path d="M47.47,56.07S39.76,64.26,32.92,59,20.59,41.81,29.45,31.7s24.57-6.55,30,4,1,12.53-3.18,14.07S47.47,56.07,47.47,56.07Z" style="fill:#fff;opacity:0.8"/><ellipse cx="39.66" cy="40.19" rx="11.29" ry="11.57" style="fill:#09d1ff"/></g></g></svg>