<svg xmlns="http://www.w3.org/2000/svg" xmlns:xlink="http://www.w3.org/1999/xlink" viewBox="0 0 148.32 140.66"><defs><clipPath id="clip-path" transform="translate(2.02 -8.39)"><path d="M2.45,70.41,34,74.83h0l7.41-1.52s.38-5.5,1.52-7c0,0,.38-.76-.76-3.23s-4.18-11.2-2.85-15,5.88-2.66,5.88-2.66S56.75,49,58.84,49l4.75-1.89,5.5-1.52,13.67,1.33L90,50.53l2.85-3.22,9.49-2.47,4.18,1.71.94,6.26-.94,9.68L109,73.12l34.93-.57c.49-5.25.87-10.7,1.1-16.34a318.41,318.41,0,0,0-.72-38.33A231.07,231.07,0,0,0,109,7C80.41.56,57.81-4.5,38.2,6.25,25,13.5,9.8,29.76,9.8,29.76h0Q4.89,40.05,0,50.33,1.23,60.37,2.45,70.41Z" style="fill:none"/></clipPath></defs><g id="Capa_2" data-name="Capa 2"><g id="Capa_1-2" data-name="Capa 1"><path d="M74.86,45.71v5.58a1.68,1.68,0,1,1-3.35,0V45.73C54.44,46.74,41.34,60,41.34,76.12c0,16.83,14.29,30.47,32,30.47s32-13.64,32-30.47C105.31,59.86,91.93,46.58,74.86,45.71Z" transform="translate(2.02 -8.39)" style="fill:none;stroke:#110546;stroke-linecap:round;stroke-linejoin:round;stroke-width:2px"/><ellipse cx="75.3" cy="75.19" rx="9.47" ry="7.25" style="fill:none;stroke:#110546;stroke-linecap:round;stroke-linejoin:round;stroke-width:2px"/><path d="M71.51,83.61a2.08,2.08,0,1,1-2.08-2.08A2.08,2.08,0,0,1,71.51,83.61Z" transform="translate(2.02 -8.39)" style="fill:#110546"/><path d="M79.32,83.61a2.08,2.08,0,1,1-2.08-2.08A2.08,2.08,0,0,1,79.32,83.61Z" transform="translate(2.02 -8.39)" style="fill:#110546"/><path d="M46,60.22a4.22,4.22,0,0,1-.88-.74c-2-2.19-4-7.87-1.83-9.92s7.73.31,9.77,2.5l.25.29a31.63,31.63,0,0,1,4-2.6c-4.84-3.47-14.12-5.86-17-3.33-3,2.67-.57,14.07,3.15,18.56A29.49,29.49,0,0,1,46,60.22Z" transform="translate(2.02 -8.39)" style="fill:none;stroke:#110546;stroke-linecap:round;stroke-linejoin:round;stroke-width:2px"/><path d="M93.07,52.2l.11-.14c2-2.19,7.58-4.55,9.78-2.5s.22,7.73-1.83,9.92a4.16,4.16,0,0,1-.64.57A30.3,30.3,0,0,1,103,64.68c3.59-4.68,5.85-15.65,2.92-18.26S94,46.23,89.07,49.65A31.9,31.9,0,0,1,93.07,52.2Z" transform="translate(2.02 -8.39)" style="fill:none;stroke:#110546;stroke-linecap:round;stroke-linejoin:round;stroke-width:2px"/><path d="M52.39,99.16c-.06,1.08,0,2.3-.2,3.58-.76,5.93,1.17,7.92,5.66,7.92,3.73,0,5.67-2.23,6.32-5.34A32.55,32.55,0,0,1,52.39,99.16Z" transform="translate(2.02 -8.39)" style="fill:none;stroke:#110546;stroke-linecap:round;stroke-linejoin:round;stroke-width:2px"/><path d="M94.17,99.26a32.3,32.3,0,0,1-11.77,6.09c.65,3.09,2.59,5.31,6.3,5.31,4.49,0,6.42-2,5.67-7.92C94.21,101.5,94.22,100.31,94.17,99.26Z" transform="translate(2.02 -8.39)" style="fill:none;stroke:#110546;stroke-linecap:round;stroke-linejoin:round;stroke-width:2px"/><path d="M66.2,68.52a2.51,2.51,0,0,0-4.41,1" transform="translate(2.02 -8.39)" style="fill:none;stroke:#110546;stroke-linecap:round;stroke-linejoin:round"/><path d="M85.83,69.36a2.51,2.51,0,0,0-4.46-.76" transform="translate(2.02 -8.39)" style="fill:none;stroke:#110546;stroke-linecap:round;stroke-linejoin:round"/><path d="M76.62,19.8a4.07,4.07,0,0,1-4.13-4.47.45.45,0,0,0-.45-.44.44.44,0,0,0-.44.44,4.08,4.08,0,0,1-4.13,4.47h0a.45.45,0,0,0,0,.9c.45,0,4.13.13,4.13,4.46a.45.45,0,0,0,.44.45c.21.07.42-.14.42-.41a4.07,4.07,0,0,1,4.12-4.47h0a.46.46,0,0,0,.44-.48A.45.45,0,0,0,76.62,19.8ZM72,22.72a4.76,4.76,0,0,0-2.48-2.44A4.6,4.6,0,0,0,72,17.84a4.61,4.61,0,0,0,2.47,2.44A4.69,4.69,0,0,0,72,22.72Z" transform="translate(2.02 -8.39)" style="fill:#f8d91c"/><path d="M120.47,24.17a3.28,3.28,0,0,1-3.32-3.59.36.36,0,0,0-.36-.36.36.36,0,0,0-.36.36,3.27,3.27,0,0,1-3.31,3.59h0a.36.36,0,0,0-.33.36.36.36,0,0,0,.36.36,3.26,3.26,0,0,1,3.31,3.59.37.37,0,0,0,.36.36c.17.05.34-.11.34-.33a3.28,3.28,0,0,1,3.31-3.6h0a.37.37,0,0,0,.36-.38A.36.36,0,0,0,120.47,24.17Zm-3.7,2.35a3.81,3.81,0,0,0-2-2,3.78,3.78,0,0,0,2-2,3.73,3.73,0,0,0,2,2A3.66,3.66,0,0,0,116.77,26.52Z" transform="translate(2.02 -8.39)" style="fill:#f8d91c"/><path d="M33.18,76.86c-.55,0-5.48-.18-5.48-5.94a.6.6,0,0,0-.59-.59.61.61,0,0,0-.6.59c0,5.76-4.93,5.94-5.48,5.94h0a.59.59,0,0,0-.55.59.61.61,0,0,0,.59.6c.6,0,5.48.18,5.48,5.93a.62.62,0,0,0,.6.6c.27.09.54-.19.54-.55,0-5.76,4.94-5.94,5.48-5.94h0a.61.61,0,0,0,.59-.64A.6.6,0,0,0,33.18,76.86Zm-6.12,3.88a6.25,6.25,0,0,0-3.29-3.24,6.14,6.14,0,0,0,3.29-3.24,6.16,6.16,0,0,0,3.29,3.24A6.14,6.14,0,0,0,27.06,80.74Z" transform="translate(2.02 -8.39)" style="fill:#f8d91c"/><path d="M139.28,26.3c-.54,0-5.48-.18-5.48-5.94a.59.59,0,1,0-1.18,0c0,5.76-4.93,5.94-5.48,5.94h0a.59.59,0,0,0-.55.59.62.62,0,0,0,.6.6c.59,0,5.48.18,5.48,5.93a.61.61,0,0,0,.59.6c.28.09.55-.19.55-.55,0-5.76,4.93-5.94,5.48-5.94h0a.62.62,0,0,0,.6-.64A.61.61,0,0,0,139.28,26.3Zm-6.11,3.88a6.32,6.32,0,0,0-3.29-3.24,6.21,6.21,0,0,0,3.29-3.24,6.14,6.14,0,0,0,3.28,3.24A6.16,6.16,0,0,0,133.17,30.18Z" transform="translate(2.02 -8.39)" style="fill:#f8d91c"/><path d="M31.68,24.91A3.52,3.52,0,0,1,28.11,21a.39.39,0,0,0-.77,0,3.52,3.52,0,0,1-3.57,3.87h0a.38.38,0,0,0-.35.38.39.39,0,0,0,.38.39,3.51,3.51,0,0,1,3.57,3.87.4.4,0,0,0,.39.38c.17.06.35-.12.35-.36a3.52,3.52,0,0,1,3.57-3.86h0a.4.4,0,0,0,.39-.42A.4.4,0,0,0,31.68,24.91Zm-4,2.52a4.16,4.16,0,0,0-2.14-2.11,4,4,0,0,0,2.14-2.11,3.92,3.92,0,0,0,2.14,2.11A4,4,0,0,0,27.7,27.43Z" transform="translate(2.02 -8.39)" style="fill:#f8d91c"/><path d="M79.85,94.39H67.25a.7.7,0,0,0-.7.7,7,7,0,0,0,14,0A.71.71,0,0,0,79.85,94.39ZM69.64,99.1a3.48,3.48,0,0,1,4.79,1.17,3.3,3.3,0,0,1,.18.32,5.59,5.59,0,0,1-5-1.49Zm6.3,1.05a4.87,4.87,0,0,0-6.41-2.56,4.75,4.75,0,0,0-.77.41A5.61,5.61,0,0,1,68,95.79H79.1A5.6,5.6,0,0,1,75.94,100.15Z" transform="translate(2.02 -8.39)" style="fill:#110546"/><g style="clip-path:url(#clip-path)"><path d="M-1.46,79.3H42.4a.58.58,0,0,0,0-1.16H-1.46A.58.58,0,0,0-1.46,79.3Z" transform="translate(2.02 -8.39)" style="fill:#0d75ce"/><path d="M35.84,142.75l21.93-38a.58.58,0,0,0-1-.57l-21.93,38A.58.58,0,0,0,35.84,142.75Z" transform="translate(2.02 -8.39)" style="fill:#0d75ce"/><path d="M109.44,142.17l-21.93-38a.58.58,0,0,0-1,.57l21.93,38A.58.58,0,0,0,109.44,142.17Z" transform="translate(2.02 -8.39)" style="fill:#0d75ce"/><path d="M145.74,78.14H101.88a.58.58,0,0,0,0,1.16h43.86A.58.58,0,0,0,145.74,78.14Z" transform="translate(2.02 -8.39)" style="fill:#0d75ce"/><path d="M108.44,14.69,92.25,42.89a.58.58,0,0,0,1,.57l16.19-28.19A.58.58,0,0,0,108.44,14.69Z" transform="translate(2.02 -8.39)" style="fill:#ce6b01"/><path d="M34.84,15.27,50.53,42.62a.58.58,0,0,0,1-.58L35.84,14.69A.58.58,0,0,0,34.84,15.27Z" transform="translate(2.02 -8.39)" style="fill:#ce6b01"/><path d="M83.22,11,79,35.67a.58.58,0,0,0,1.14.19l4.24-24.64A.57.57,0,0,0,83.22,11Z" transform="translate(2.02 -8.39)" style="fill:#ce6b01"/><path d="M19.05,35.28l14.4,11.88a.58.58,0,0,0,.74-.88L19.79,34.39A.58.58,0,0,0,19.05,35.28Z" transform="translate(2.02 -8.39)" style="fill:#ce6b01"/><path d="M8,103l23.47-8.65a.58.58,0,0,0-.4-1.08L7.57,101.9A.58.58,0,0,0,8,103Z" transform="translate(2.02 -8.39)" style="fill:#0d75ce"/><path d="M61.06,146.42l4.25-24.64a.58.58,0,0,0-1.14-.2l-4.24,24.65A.57.57,0,0,0,61.06,146.42Z" transform="translate(2.02 -8.39)" style="fill:#0d75ce"/><path d="M125.23,122.16l-19.22-16a.58.58,0,0,0-.74.89l19.22,16A.58.58,0,0,0,125.23,122.16Z" transform="translate(2.02 -8.39)" style="fill:#0d75ce"/><path d="M136.31,54.46l-23.47,8.65a.58.58,0,0,0,.4,1.08l23.47-8.64A.58.58,0,0,0,136.31,54.46Z" transform="translate(2.02 -8.39)" style="fill:#ce6b01"/><path d="M17.79,59.3l19.65,7.37a.58.58,0,0,0,.4-1.09L18.19,58.22A.58.58,0,0,0,17.79,59.3Z" transform="translate(2.02 -8.39)" style="fill:#ce6b01"/><path d="M5.51,54.78l5.42,2a.58.58,0,0,0,.4-1.09l-5.42-2A.58.58,0,0,0,5.51,54.78Z" transform="translate(2.02 -8.39)" style="fill:#ce6b01"/><path d="M28.15,116.08l24-19.93a.58.58,0,0,0-.74-.89L27.41,115.2A.58.58,0,0,0,28.15,116.08Z" transform="translate(2.02 -8.39)" style="fill:#ce6b01"/><path d="M18.09,124.45l4.44-3.69a.58.58,0,0,0-.74-.89l-4.43,3.69A.58.58,0,0,0,18.09,124.45Z" transform="translate(2.02 -8.39)" style="fill:#ce6b01"/><path d="M82.5,135.5l-5.29-30.71a.57.57,0,0,0-1.13.19l5.28,30.72A.58.58,0,0,0,82.5,135.5Z" transform="translate(2.02 -8.39)" style="fill:#ce6b01"/><path d="M84.72,148.39l-1-5.69a.58.58,0,0,0-1.14.2l1,5.69A.58.58,0,0,0,84.72,148.39Z" transform="translate(2.02 -8.39)" style="fill:#ce6b01"/><path d="M126.49,98.14,97.25,87.36a.58.58,0,0,0-.4,1.08l29.24,10.78A.58.58,0,0,0,126.49,98.14Z" transform="translate(2.02 -8.39)" style="fill:#ce6b01"/><path d="M138.77,102.66l-5.42-2a.58.58,0,0,0-.4,1.08l5.42,2A.58.58,0,0,0,138.77,102.66Z" transform="translate(2.02 -8.39)" style="fill:#ce6b01"/><path d="M116.13,41.36l-3.83,3.21a.58.58,0,0,0,.73.89l3.84-3.21A.58.58,0,0,0,116.13,41.36Z" transform="translate(2.02 -8.39)" style="fill:#ce6b01"/><path d="M126.19,33l-4.44,3.69a.58.58,0,0,0,.74.89l4.44-3.69A.58.58,0,0,0,126.19,33Z" transform="translate(2.02 -8.39)" style="fill:#ce6b01"/><path d="M61.78,21.94l3.14,18.44a.57.57,0,0,0,1.13-.19L62.92,21.75A.58.58,0,0,0,61.78,21.94Z" transform="translate(2.02 -8.39)" style="fill:#ce6b01"/><path d="M59.56,9.05l1,5.69a.58.58,0,0,0,1.14-.2l-1-5.69A.58.58,0,0,0,59.56,9.05Z" transform="translate(2.02 -8.39)" style="fill:#ce6b01"/></g><path d="M66.66,74.07a2,2,0,1,1-2-2A2,2,0,0,1,66.66,74.07Z" transform="translate(2.02 -8.39)" style="fill:#110546"/><path d="M84.46,74.07a2,2,0,1,1-2-2A2,2,0,0,1,84.46,74.07Z" transform="translate(2.02 -8.39)" style="fill:#110546"/><path d="M52.43,105s2.31.24,9.26,3.53c0,0,.25,1.34-1.95,1.77s-5.73.37-6.4-.85a8.67,8.67,0,0,1-1-3C52.31,106,52.43,105,52.43,105Z" transform="translate(2.02 -8.39)" style="fill:#110546"/><path d="M94.2,105s-2.32.24-9.27,3.53c0,0-.25,1.34,1.95,1.77s5.73.37,6.4-.85a8.75,8.75,0,0,0,1-3C94.32,106,94.2,105,94.2,105Z" transform="translate(2.02 -8.39)" style="fill:#110546"/></g></g></svg>