<svg xmlns="http://www.w3.org/2000/svg" viewBox="0 0 80.06 80.06"><g id="Capa_2" data-name="Capa 2"><g id="Capa_1-2" data-name="Capa 1"><circle cx="40.03" cy="40.03" r="38.03" style="fill:none;stroke:#fff;stroke-linecap:round;stroke-linejoin:round;stroke-width:4px"/><g id="g16"><path id="symbol" d="M56.6,36.36c.75-5.07-3.11-7.8-8.39-9.62l1.71-6.88-4.18-1-1.67,6.69c-1.1-.27-2.23-.53-3.35-.78L42.4,18l-4.19-1L36.5,23.82c-.91-.21-1.81-.41-2.67-.63v0l-5.77-1.44L27,26.2s3.1.71,3,.75a2.24,2.24,0,0,1,2,2.44l-2,7.83a3.07,3.07,0,0,1,.44.14L30,37.25l-2.74,11a1.52,1.52,0,0,1-1.92,1c0,.06-3-.76-3-.76L20.2,53.24l5.45,1.36,3,.77-1.73,7,4.18,1,1.72-6.88c1.14.31,2.25.59,3.33.86L34.42,64.2l4.19,1,1.73-6.94c7.13,1.35,12.5.81,14.76-5.64,1.82-5.2-.09-8.2-3.85-10.15,2.74-.63,4.8-2.43,5.35-6.15ZM47,49.77c-1.29,5.2-10,2.39-12.88,1.68l2.3-9.21C39.29,43,48.39,44.35,47,49.77Zm1.3-13.48C47.15,41,39.87,38.61,37.5,38l2.09-8.35C42,30.26,49.56,31.36,48.33,36.29Z" style="fill:#fff"/></g></g></g></svg>