<svg xmlns="http://www.w3.org/2000/svg" xmlns:xlink="http://www.w3.org/1999/xlink" viewBox="0 0 919.8 919.8"><defs><linearGradient id="Degradado_sin_nombre_102" x1="291.7" y1="97.36" x2="184.82" y2="351.93" gradientUnits="userSpaceOnUse"><stop offset="0" stop-color="#8bc321"/><stop offset="1" stop-color="#09e7ff"/></linearGradient><clipPath id="clip-path" transform="translate(255.44 211.7)"><path d="M290.61,5.39h0a5.36,5.36,0,0,1-5.36,5.37H210.84a5.36,5.36,0,0,1-5.36-5.37h0A5.36,5.36,0,0,0,200.11,0H153.35a16.51,16.51,0,0,0-16.51,16.51V384.18a22.74,22.74,0,0,0,22.74,22.74H335.77a23.48,23.48,0,0,0,23.48-23.48v-366A17.42,17.42,0,0,0,341.83,0H296A5.37,5.37,0,0,0,290.61,5.39Z" style="fill:none"/></clipPath><linearGradient id="Degradado_sin_nombre_108" x1="231.26" y1="407.28" x2="229.09" y2="411.22" gradientUnits="userSpaceOnUse"><stop offset="0" stop-color="#247d2c"/><stop offset="1" stop-color="#8bc321"/></linearGradient><linearGradient id="Degradado_sin_nombre_108-2" x1="-9797.57" y1="407.28" x2="-9799.75" y2="411.22" gradientTransform="matrix(-1, 0, 0, 1, -9537.79, 0)" xlink:href="#Degradado_sin_nombre_108"/><linearGradient id="Degradado_sin_nombre_108-3" x1="215.14" y1="382.09" x2="276" y2="382.09" xlink:href="#Degradado_sin_nombre_108"/><linearGradient id="Degradado_sin_nombre_108-4" x1="212.95" y1="362.13" x2="230.37" y2="362.13" xlink:href="#Degradado_sin_nombre_108"/><linearGradient id="Degradado_sin_nombre_108-5" x1="260.54" y1="361.99" x2="277.83" y2="361.99" xlink:href="#Degradado_sin_nombre_108"/></defs><g id="Capa_2" data-name="Capa 2"><g id="Capa_1-2" data-name="Capa 1"><path d="M290.89,5.37h0a5.36,5.36,0,0,1-5.36,5.36H211.12a5.36,5.36,0,0,1-5.36-5.36h0A5.36,5.36,0,0,0,200.39,0H153.63a16.51,16.51,0,0,0-16.51,16.51V384.15a22.74,22.74,0,0,0,22.74,22.74H336.05a23.49,23.49,0,0,0,23.49-23.48v-366A17.43,17.43,0,0,0,342.11,0H296.26A5.37,5.37,0,0,0,290.89,5.37Z" transform="translate(255.44 211.7)" style="fill:url(#Degradado_sin_nombre_102)"/><g style="opacity:0.32"><g style="clip-path:url(#clip-path)"><g style="opacity:0.25"><polygon points="0.82 348.98 0 348.76 15.64 289.62 74.53 274.05 90.1 215.16 149 297.89 164.56 239 223.46 223.43 239.02 164.54 297.91 148.98 313.48 90.08 372.37 74.52 387.94 15.63 447.06 0 447.28 0.82 388.63 16.32 373.06 75.21 314.17 90.78 298.61 149.67 239.72 165.24 224.15 224.13 165.26 239.69 149.69 298.59 90.8 215.85 75.23 274.75 16.33 290.32 0.82 348.98" style="fill:#fff"/><polygon points="5.36 353.52 4.54 353.3 20.18 294.16 79.08 278.59 94.64 219.7 153.54 302.43 169.1 243.54 228 227.97 243.56 169.08 302.45 153.52 318.02 94.63 376.91 79.06 392.48 20.17 451.6 4.54 451.82 5.36 393.17 20.86 377.61 79.75 318.71 95.32 303.15 154.21 244.25 169.78 228.69 228.67 169.8 244.24 154.23 303.13 95.34 220.39 79.77 279.29 20.87 294.86 5.36 353.52" style="fill:#fff"/><polygon points="9.9 358.06 9.08 357.84 24.72 298.7 83.61 283.13 99.18 224.24 158.08 306.97 173.65 248.08 232.54 232.51 248.1 173.62 306.99 158.06 322.56 99.17 381.45 83.6 397.01 24.71 456.14 9.08 456.36 9.9 397.71 25.4 382.15 84.29 323.25 99.86 307.69 158.75 248.79 174.32 233.23 233.21 174.34 248.78 158.77 307.67 99.88 224.93 84.31 283.83 25.41 299.4 9.9 358.06" style="fill:#fff"/><polygon points="14.44 362.6 13.62 362.38 29.26 303.24 88.16 287.67 103.72 228.78 162.62 311.51 178.19 252.62 237.08 237.05 252.64 178.16 311.53 162.6 327.1 103.7 385.99 88.14 401.56 29.25 460.68 13.62 460.9 14.44 402.25 29.95 386.69 88.83 327.79 104.4 312.23 163.29 253.34 178.86 237.77 237.75 178.88 253.31 163.31 312.21 104.42 229.47 88.85 288.37 29.95 303.94 14.44 362.6" style="fill:#fff"/><polygon points="18.98 367.14 18.16 366.92 33.8 307.78 92.69 292.21 108.26 233.32 167.16 316.05 182.72 257.16 241.62 241.59 257.18 182.71 316.07 167.14 331.64 108.25 390.53 92.68 406.1 33.79 465.22 18.16 465.44 18.98 406.79 34.48 391.23 93.37 332.33 108.94 316.77 167.83 257.88 183.4 242.31 242.29 183.42 257.86 167.85 316.75 108.96 234.01 93.39 292.91 34.49 308.48 18.98 367.14" style="fill:#fff"/><polygon points="23.52 371.68 22.7 371.46 38.34 312.32 97.23 296.75 112.8 237.86 171.7 320.59 187.26 261.7 246.16 246.13 261.72 187.25 320.61 171.68 336.18 112.79 395.07 97.22 410.63 38.33 469.76 22.7 469.98 23.52 411.33 39.02 395.77 97.92 336.88 113.48 321.31 172.37 262.42 187.94 246.85 246.83 187.96 262.39 172.39 321.29 113.5 238.55 97.93 297.45 39.03 313.02 23.52 371.68" style="fill:#fff"/><polygon points="28.06 376.22 27.24 376 42.88 316.86 101.78 301.29 117.34 242.4 176.24 325.13 191.81 266.24 250.7 250.67 266.26 191.78 325.15 176.22 340.72 117.33 399.61 101.76 415.18 42.87 474.3 27.24 474.52 28.06 415.87 43.56 400.31 102.45 341.42 118.02 325.85 176.91 266.96 192.48 251.39 251.37 192.5 266.94 176.93 325.83 118.04 243.09 102.47 301.99 43.57 317.56 28.06 376.22" style="fill:#fff"/><polygon points="32.6 380.76 31.78 380.54 47.42 321.4 106.31 305.83 121.88 246.94 180.78 329.67 196.34 270.78 255.24 255.21 270.8 196.32 329.69 180.76 345.26 121.87 404.15 106.3 419.72 47.41 478.84 31.78 479.06 32.6 420.41 48.1 404.85 107 345.95 122.56 330.39 181.45 271.5 197.02 255.93 255.91 197.04 271.48 181.47 330.37 122.58 247.63 107.01 306.53 48.11 322.1 32.6 380.76" style="fill:#fff"/><polygon points="37.14 385.3 36.32 385.08 51.96 325.94 110.86 310.37 126.42 251.48 185.32 334.21 200.88 275.32 259.78 259.75 275.34 200.87 334.23 185.3 349.8 126.41 408.69 110.84 424.26 51.95 483.38 36.32 483.6 37.14 424.95 52.65 409.39 111.53 350.5 127.1 334.93 186 276.04 201.56 260.47 260.45 201.58 276.02 186.01 334.91 127.12 252.17 111.55 311.07 52.65 326.64 37.14 385.3" style="fill:#fff"/><polygon points="41.68 389.84 40.86 389.62 56.5 330.48 115.4 314.91 130.96 354.32 189.86 338.75 205.43 279.86 264.32 264.29 279.88 205.41 338.77 189.84 354.34 130.95 413.23 115.38 428.8 56.49 487.92 40.86 488.14 41.68 429.49 57.19 413.93 116.08 355.04 131.64 339.47 190.53 280.58 206.1 265.01 264.99 206.12 280.56 190.55 339.45 131.66 355.02 116.09 315.61 57.19 331.18 41.68 389.84" style="fill:#fff"/><polygon points="46.22 394.38 45.4 394.16 61.04 335.02 119.94 319.45 135.5 358.86 194.4 343.29 209.97 284.4 268.86 268.83 284.42 209.94 343.31 194.38 358.88 135.49 417.77 119.92 433.34 61.03 492.46 45.4 492.68 46.22 434.03 61.73 418.47 120.61 359.57 136.18 344.01 195.07 285.12 210.64 269.55 269.53 210.66 285.1 195.09 343.99 136.2 359.56 120.63 320.15 61.73 335.72 46.22 394.38" style="fill:#fff"/><polygon points="50.76 398.92 49.94 398.7 65.58 339.56 124.48 323.99 140.04 363.4 198.94 347.83 214.51 288.94 273.4 273.37 288.96 214.49 347.85 198.92 363.42 140.03 422.31 124.46 437.88 65.57 497 49.94 497.22 50.76 438.57 66.27 423.01 125.16 364.12 140.72 348.55 199.62 289.66 215.18 274.09 274.07 215.2 289.64 199.63 348.53 140.74 364.1 125.17 324.69 66.27 340.26 50.76 398.92" style="fill:#fff"/><polygon points="55.3 403.46 54.48 403.24 70.12 344.11 129.02 426.83 144.58 367.94 203.48 352.37 219.05 293.48 277.94 277.91 293.5 219.03 352.39 203.46 367.96 144.57 426.85 129 442.42 70.11 501.54 54.48 501.76 55.3 443.11 70.81 427.55 129.69 368.65 145.26 353.09 204.16 294.2 219.72 278.63 278.61 219.74 294.18 204.17 353.07 145.28 368.64 129.71 427.53 70.81 344.8 55.3 403.46" style="fill:#fff"/><polygon points="59.84 408 59.02 407.78 74.66 348.64 133.56 431.37 149.12 372.48 208.02 356.91 223.59 298.02 282.48 282.45 298.04 223.57 356.93 208 372.5 149.11 431.39 133.54 446.96 74.65 506.08 59.02 506.3 59.84 447.65 75.35 432.09 134.24 373.19 149.8 357.63 208.69 298.74 224.26 283.17 283.15 224.28 298.72 208.71 357.61 149.82 373.18 134.25 432.07 75.36 349.34 59.84 408" style="fill:#fff"/><polygon points="64.38 412.54 63.56 412.32 79.2 353.19 138.1 435.91 153.66 377.02 212.56 361.45 228.13 302.56 287.02 286.99 302.58 228.11 361.47 212.54 377.04 153.65 435.93 138.08 451.5 79.19 510.63 63.56 510.84 64.38 452.19 79.89 436.63 138.78 377.74 154.34 362.17 213.24 303.28 228.8 287.71 287.69 228.82 303.26 213.25 362.15 154.36 377.72 138.79 436.61 79.89 353.88 64.38 412.54" style="fill:#fff"/><polygon points="68.92 417.08 68.1 416.86 83.74 357.73 142.64 440.45 158.21 381.56 217.1 365.99 232.67 307.1 291.56 291.53 307.12 232.65 366.01 217.08 381.58 158.19 440.47 142.62 456.04 83.73 515.16 68.1 515.38 68.92 456.73 84.43 441.17 143.32 382.28 158.88 366.71 217.78 307.82 233.34 292.25 292.23 233.36 307.8 217.79 366.69 158.9 382.26 143.33 441.15 84.44 358.42 68.92 417.08" style="fill:#fff"/><polygon points="73.47 421.62 72.64 421.4 88.28 362.26 147.18 444.99 162.75 386.1 221.64 370.53 237.21 311.64 296.1 296.07 311.66 237.19 370.55 221.62 386.12 162.73 445.01 147.16 460.58 88.27 519.71 72.64 519.92 73.47 461.27 88.97 445.71 147.86 386.82 163.42 371.25 222.31 312.36 237.88 296.79 296.77 237.9 312.34 222.34 371.23 163.44 386.8 147.87 445.69 88.97 362.96 73.47 421.62" style="fill:#fff"/><polygon points="78 426.16 77.18 425.94 92.82 366.81 151.72 449.53 167.28 390.64 226.18 375.07 241.75 316.18 300.64 300.61 316.2 241.73 375.09 226.16 390.66 167.27 449.55 151.7 465.12 92.81 524.25 77.18 524.46 78 465.81 93.51 450.25 152.4 391.36 167.96 375.79 226.86 316.9 242.42 301.33 301.31 242.44 316.88 226.88 375.77 167.98 391.34 152.41 450.23 93.52 367.5 78 426.16" style="fill:#fff"/><polygon points="82.55 430.7 81.72 430.48 97.36 371.35 156.26 454.07 171.82 395.18 230.72 379.61 246.29 320.72 305.18 305.15 320.74 246.27 379.63 230.7 395.2 171.81 454.09 156.24 469.66 97.35 528.78 81.72 529 82.55 470.35 98.05 454.79 156.94 395.9 172.5 380.33 231.4 321.44 246.96 305.87 305.85 246.98 321.42 231.41 380.31 172.52 395.88 156.95 454.77 98.06 372.04 82.55 430.7" style="fill:#fff"/><polygon points="87.08 435.24 86.26 435.02 101.9 375.89 160.8 458.61 176.37 399.72 235.26 384.15 250.83 325.26 309.72 309.69 325.28 250.81 384.17 235.24 399.74 176.35 458.63 160.78 474.2 101.89 533.33 86.26 533.54 87.08 474.89 102.59 459.33 161.48 400.44 177.04 384.87 235.94 325.98 251.5 310.41 310.39 251.52 325.96 235.96 384.85 177.06 400.42 161.49 459.31 102.59 376.58 87.08 435.24" style="fill:#fff"/><polygon points="91.63 439.78 90.8 439.56 106.44 380.43 165.34 463.15 180.91 404.26 239.8 388.69 255.37 329.8 314.26 314.23 329.82 255.35 388.71 239.78 404.28 180.89 463.17 165.32 478.74 106.43 537.87 90.8 538.08 91.63 479.43 107.13 463.87 166.02 404.98 181.58 389.41 240.48 330.52 256.04 314.95 314.93 256.06 330.5 240.5 389.39 181.6 404.96 166.03 463.85 107.14 381.12 91.63 439.78" style="fill:#fff"/><polygon points="96.17 444.32 95.34 444.1 110.98 384.97 169.88 467.69 185.44 408.8 244.34 393.23 259.91 334.34 318.8 318.77 334.36 259.89 393.25 244.32 408.82 185.43 467.71 169.86 483.28 110.97 542.4 95.34 542.62 96.17 483.97 111.67 468.41 170.56 409.52 186.12 393.95 245.02 335.06 260.58 319.49 319.47 260.6 335.04 245.03 393.93 186.14 409.5 170.57 468.39 111.67 385.66 96.17 444.32" style="fill:#fff"/><polygon points="100.7 448.86 99.88 448.64 115.52 389.51 174.42 472.24 189.99 413.34 248.88 397.77 264.45 338.88 323.34 323.31 338.9 264.43 397.79 248.86 413.36 189.97 472.25 174.4 487.82 115.51 546.95 99.88 547.16 100.7 488.51 116.21 472.95 175.1 414.06 190.66 398.49 249.56 339.6 265.12 324.04 324.01 265.14 339.58 249.57 398.47 190.68 414.04 175.11 472.93 116.22 390.2 100.7 448.86" style="fill:#fff"/><polygon points="105.25 453.4 104.42 453.18 120.06 394.05 178.96 476.77 194.53 417.88 253.42 402.31 268.99 343.42 327.88 327.85 343.44 268.97 402.33 253.4 417.9 194.51 476.79 178.94 492.36 120.05 551.49 104.42 551.7 105.25 493.05 120.75 477.49 179.64 418.6 195.2 403.03 254.1 344.14 269.66 328.57 328.55 269.68 344.12 254.12 403.01 195.22 418.58 179.65 477.47 120.76 394.74 105.25 453.4" style="fill:#fff"/><polygon points="109.79 457.94 108.96 457.72 124.6 398.59 183.5 481.31 199.07 422.42 257.96 406.85 273.53 347.96 332.42 332.39 347.98 273.51 406.87 257.94 422.44 199.05 481.33 183.48 496.9 124.59 556.03 108.96 556.24 109.79 497.59 125.29 482.03 184.18 423.14 199.74 407.57 258.64 348.68 274.2 333.12 333.09 274.22 348.66 258.66 407.55 199.76 423.12 184.19 482.01 125.3 399.28 109.79 457.94" style="fill:#fff"/><polygon points="114.33 462.48 113.5 462.26 129.14 501.43 188.04 485.86 203.61 426.96 262.5 411.39 278.07 352.5 336.96 336.93 352.52 278.05 411.41 262.48 426.98 203.59 485.87 188.02 501.44 129.13 560.57 113.5 560.78 114.33 502.13 129.83 486.57 188.72 427.68 204.28 412.11 263.18 353.22 278.74 337.65 337.63 278.76 353.2 263.2 412.09 204.3 427.66 188.73 486.55 129.84 502.13 114.33 462.48" style="fill:#fff"/><polygon points="118.87 467.02 118.04 466.8 133.68 505.97 192.58 490.4 208.15 431.5 267.04 415.93 282.61 357.04 341.5 341.47 357.06 282.59 415.95 267.02 431.52 208.13 490.41 192.56 505.98 133.67 565.11 118.04 565.32 118.87 506.67 134.37 491.11 193.26 432.22 208.82 416.65 267.72 357.76 283.28 342.19 342.17 283.3 357.74 267.74 416.63 208.84 432.2 193.27 491.09 134.38 506.67 118.87 467.02" style="fill:#fff"/><polygon points="123.41 471.56 122.58 471.34 138.22 510.51 197.12 494.94 212.69 436.04 271.58 420.47 287.15 361.58 346.04 346.01 361.6 287.13 420.49 271.56 436.06 212.67 494.95 197.1 510.52 138.21 569.65 122.58 569.86 123.41 511.21 138.91 495.65 197.8 436.76 213.36 421.19 272.26 362.3 287.82 346.74 346.71 287.84 362.28 272.28 421.17 213.38 436.74 197.81 495.63 138.92 511.2 123.41 471.56" style="fill:#fff"/><polygon points="127.95 574.4 127.12 475.88 142.76 515.05 201.66 499.48 217.23 440.58 276.12 425.01 291.69 366.12 350.58 350.55 366.14 291.67 425.03 276.1 440.6 217.21 499.49 201.64 515.06 142.75 574.19 127.12 574.4 127.95 515.75 143.45 500.19 202.34 441.3 217.91 425.73 276.8 366.84 292.36 351.27 351.25 292.38 366.82 276.82 425.71 217.92 441.28 202.35 500.17 143.46 515.75 127.95 574.4" style="fill:#fff"/><polygon points="132.49 578.94 131.66 578.73 147.3 519.59 206.2 504.02 221.77 445.12 280.66 429.55 296.23 370.66 355.12 355.09 370.68 296.21 429.57 280.64 445.14 221.75 504.03 206.18 519.6 147.29 578.73 131.66 578.94 132.49 520.29 147.99 504.73 206.88 445.84 222.44 430.27 281.34 371.38 296.9 355.81 355.79 296.92 371.36 281.36 430.25 222.46 445.82 206.89 504.71 148 520.28 132.49 578.94" style="fill:#fff"/><polygon points="137.03 583.48 136.2 583.27 151.84 524.13 210.74 508.56 226.31 449.66 285.2 434.09 300.77 375.2 359.66 359.63 375.22 300.75 434.11 285.18 449.68 226.29 508.57 210.72 524.14 151.83 583.27 136.2 583.48 137.03 524.83 152.53 509.27 211.42 450.38 226.99 434.81 285.88 375.92 301.44 360.36 360.33 301.46 375.9 285.9 434.79 227 450.36 211.43 509.25 152.54 524.83 137.03 583.48" style="fill:#fff"/><polygon points="141.57 588.02 140.74 587.81 156.38 528.67 215.28 513.1 230.85 454.2 289.74 438.63 305.31 379.74 364.2 364.17 379.76 305.29 438.65 289.72 454.22 230.83 513.11 215.26 528.68 156.37 587.81 140.74 588.02 141.57 529.38 157.07 513.81 215.96 454.92 231.53 439.35 290.42 380.46 305.98 364.9 364.87 306 380.44 290.44 439.33 231.54 454.9 215.97 513.79 157.08 529.37 141.57 588.02" style="fill:#fff"/><polygon points="146.11 592.57 145.28 592.35 160.92 533.21 219.82 517.64 235.39 458.74 294.28 443.17 309.85 384.28 368.74 368.71 384.3 309.83 443.19 294.26 458.76 235.37 517.65 219.8 533.22 160.91 592.35 145.28 592.56 146.11 533.91 161.61 518.35 220.5 459.46 236.06 443.89 294.96 385 310.52 369.44 369.41 310.54 384.98 294.98 443.87 236.08 459.44 220.51 518.33 161.62 533.91 146.11 592.57" style="fill:#fff"/><polygon points="150.65 597.1 149.82 596.89 165.46 537.75 224.36 522.18 239.93 463.28 298.82 447.71 314.39 388.82 373.28 373.25 388.84 314.37 447.73 298.8 463.3 239.91 522.19 224.34 537.76 165.45 596.89 149.82 597.1 150.65 538.46 166.15 522.89 225.04 464 240.6 448.43 299.5 389.54 315.06 373.98 373.95 315.08 389.52 299.52 448.41 240.62 463.98 225.05 522.87 166.16 538.45 150.65 597.1" style="fill:#fff"/><polygon points="155.19 601.64 154.36 601.43 170 542.29 228.9 526.72 244.47 467.82 303.36 452.25 318.93 393.36 377.82 377.8 393.38 318.91 452.27 303.34 467.84 244.45 526.73 228.88 542.3 169.99 601.43 154.36 601.64 155.19 543 170.69 527.43 229.58 468.54 245.15 452.97 304.04 394.08 319.61 378.52 378.49 319.63 394.06 304.06 452.95 245.16 468.52 229.59 527.41 170.7 542.99 155.19 601.64" style="fill:#fff"/><polygon points="159.73 606.18 158.9 605.97 174.54 546.83 233.44 531.26 249.01 472.36 307.9 456.79 323.47 397.9 382.36 382.33 397.92 323.45 456.81 307.88 472.38 248.99 531.27 233.42 546.84 174.53 605.97 158.9 606.18 159.73 547.53 175.23 531.97 234.12 473.08 249.69 457.51 308.58 398.62 324.14 383.06 383.03 324.17 398.6 308.6 457.49 249.7 473.06 234.13 531.95 175.24 547.53 159.73 606.18" style="fill:#fff"/><polygon points="164.27 610.73 163.44 610.51 179.08 551.37 237.98 535.8 253.55 476.9 312.44 461.33 328.01 402.44 386.9 386.88 402.46 327.99 461.35 312.42 476.92 253.53 535.81 237.96 551.38 179.07 610.51 163.44 610.73 164.27 552.08 179.77 536.51 238.66 477.62 254.22 462.05 313.12 403.16 328.69 387.6 387.57 328.7 403.14 313.14 462.03 254.24 477.6 238.68 536.49 179.78 552.07 164.27 610.73" style="fill:#fff"/><polygon points="168.81 615.26 167.98 615.05 183.62 555.91 242.52 540.34 258.09 481.44 316.98 465.88 332.55 406.98 391.44 391.42 407 332.53 465.89 316.96 481.46 258.07 540.35 242.5 555.92 183.61 615.05 167.98 615.26 168.81 556.62 184.31 541.05 243.2 482.16 258.77 466.59 317.66 407.7 333.23 392.14 392.11 333.25 407.68 317.68 466.57 258.78 482.14 243.22 541.03 184.32 556.61 168.81 615.26" style="fill:#fff"/><polygon points="173.35 619.8 172.52 619.59 188.16 560.45 247.06 544.88 262.63 485.98 321.52 470.42 337.09 411.52 395.98 395.96 411.54 337.07 470.43 321.5 486 262.61 544.89 247.04 560.46 188.15 619.59 172.53 619.8 173.35 561.15 188.85 545.59 247.74 486.7 263.31 471.13 322.2 412.24 337.76 396.68 396.65 337.79 412.22 322.22 471.11 263.32 486.68 247.75 545.57 188.86 561.15 173.35 619.8" style="fill:#fff"/><polygon points="177.89 624.35 177.06 624.13 192.7 564.99 251.6 549.42 267.17 490.52 326.06 474.95 341.63 416.06 400.52 400.5 416.08 341.61 474.97 326.04 490.54 267.15 549.43 251.58 565 192.69 624.13 177.06 624.35 177.89 565.7 193.39 550.13 252.28 491.24 267.85 475.67 326.74 416.78 342.31 401.22 401.19 342.32 416.76 326.76 475.65 267.86 491.22 252.29 550.11 193.4 565.69 177.89 624.35" style="fill:#fff"/><polygon points="182.43 628.88 181.6 628.67 197.24 569.53 256.14 553.96 271.71 495.06 330.6 479.5 346.17 420.6 405.06 405.04 420.62 346.15 479.51 330.58 495.08 271.69 553.97 256.12 569.54 197.23 628.67 181.6 628.88 182.43 570.24 197.93 554.67 256.82 495.78 272.39 480.21 331.28 421.32 346.85 405.76 405.73 346.87 421.3 331.3 480.19 272.4 495.76 256.83 554.65 197.94 570.23 182.43 628.88" style="fill:#fff"/><polygon points="186.97 633.43 186.15 633.21 201.78 574.07 260.68 558.5 276.25 499.61 335.14 484.04 350.71 425.14 409.6 409.58 425.16 350.69 484.06 335.12 499.62 276.23 558.51 260.66 574.08 201.77 633.21 186.15 633.42 186.97 574.78 202.47 559.21 261.36 500.32 276.93 484.75 335.82 425.86 351.38 410.3 410.27 351.4 425.84 335.84 484.73 276.94 500.3 261.38 559.19 202.48 574.77 186.97 633.43" style="fill:#fff"/><polygon points="191.51 637.97 190.69 637.75 206.32 578.61 265.22 563.04 280.79 504.14 339.68 488.57 355.25 429.68 414.14 414.12 429.7 355.23 488.6 339.66 504.16 280.77 563.05 265.2 578.62 206.31 637.75 190.69 637.97 191.51 579.32 207.01 563.75 265.9 504.86 281.47 489.29 340.36 430.4 355.93 414.84 414.81 355.95 430.38 340.38 489.27 281.48 504.84 265.92 563.73 207.02 579.31 191.51 637.97" style="fill:#fff"/><polygon points="196.05 642.51 195.22 642.29 210.86 583.15 269.76 567.58 285.33 508.69 344.22 493.12 359.79 434.22 418.68 418.66 434.24 359.77 493.13 344.2 508.7 285.31 567.59 269.74 583.16 210.85 642.29 195.22 642.51 196.05 583.86 211.55 568.29 270.44 509.4 286.01 493.83 344.9 434.94 360.47 419.38 419.35 360.49 434.92 344.92 493.81 286.02 509.38 270.46 568.27 211.56 583.85 196.05 642.51" style="fill:#fff"/><polygon points="200.59 647.05 199.76 646.83 215.4 587.69 274.3 572.12 289.87 513.23 348.76 497.65 364.33 438.76 423.22 423.2 438.78 364.31 497.68 348.74 513.24 289.85 572.13 274.28 587.7 215.39 646.83 199.76 647.05 200.59 588.4 216.09 572.83 274.98 513.94 290.55 498.37 349.44 439.48 365 423.92 423.89 365.03 439.46 349.46 498.35 290.56 513.92 275 572.81 216.1 588.39 200.59 647.05" style="fill:#fff"/><polygon points="205.13 651.59 204.31 651.37 219.94 592.23 278.84 576.66 294.41 517.76 353.3 502.19 368.87 443.3 427.76 427.74 443.32 368.85 502.21 353.28 517.78 294.39 576.67 278.82 592.24 219.93 651.37 204.31 651.59 205.13 592.94 220.63 577.37 279.52 518.48 295.09 502.91 353.98 444.02 369.55 428.46 428.43 369.57 444 354 502.89 295.1 518.46 279.54 577.35 220.64 592.93 205.13 651.59" style="fill:#fff"/><polygon points="209.67 656.13 208.84 655.91 224.48 596.77 283.38 581.2 298.95 522.3 357.84 506.74 373.41 447.84 432.3 432.28 447.86 373.39 506.75 357.82 522.32 298.93 581.22 283.36 596.78 224.47 655.91 208.84 656.13 209.67 597.48 225.17 581.91 284.06 523.02 299.63 507.45 358.52 448.56 374.09 433 432.97 374.11 448.54 358.54 507.43 299.64 523 284.08 581.89 225.18 597.47 209.67 656.13" style="fill:#fff"/><polygon points="214.21 660.67 213.39 660.45 229.02 601.31 287.92 585.74 303.49 526.85 362.38 511.28 377.95 452.38 436.84 436.82 452.4 377.93 511.3 362.36 526.86 303.47 585.75 287.9 601.32 229.01 660.45 213.39 660.67 214.21 602.02 229.71 586.45 288.6 527.56 304.17 511.99 363.06 453.1 378.63 437.54 437.51 378.65 453.08 363.08 511.97 304.19 527.54 288.62 586.43 229.72 602.01 214.21 660.67" style="fill:#fff"/><polygon points="218.75 665.21 217.93 664.99 233.56 605.85 292.46 590.28 308.03 531.38 366.92 515.82 382.49 456.92 441.38 441.36 456.94 382.47 515.84 366.9 531.4 308.01 590.29 292.44 605.86 233.55 664.99 217.93 665.21 218.75 606.56 234.25 590.99 293.14 532.1 308.71 516.53 367.6 457.64 383.17 442.08 442.05 383.19 457.62 367.62 516.51 308.73 532.08 293.16 590.97 234.26 606.55 218.75 665.21" style="fill:#fff"/><polygon points="223.29 669.75 222.47 669.53 238.1 610.39 297 594.82 312.57 535.93 371.46 520.36 387.03 461.46 445.92 445.9 461.48 387.01 520.38 371.44 535.94 312.55 594.84 296.98 610.4 238.09 669.53 222.47 669.75 223.29 611.1 238.79 595.53 297.68 536.64 313.25 521.07 372.14 462.18 387.71 446.62 446.59 387.73 462.16 372.16 521.05 313.26 536.62 297.7 595.51 238.8 611.09 223.29 669.75" style="fill:#fff"/><polygon points="227.83 674.29 227.01 674.07 242.64 614.93 301.54 599.36 317.11 540.47 376 524.9 391.57 466 450.46 450.44 466.02 391.55 524.92 375.98 540.48 317.09 599.38 301.52 614.94 242.63 674.07 227.01 674.29 227.83 615.64 243.33 600.07 302.22 541.18 317.79 525.61 376.68 466.72 392.25 451.16 451.13 392.27 466.7 376.7 525.59 317.81 541.16 302.24 600.05 243.34 615.63 227.83 674.29" style="fill:#fff"/><polygon points="232.37 678.83 231.55 678.61 247.18 619.47 306.08 603.9 321.65 545.01 380.54 529.44 396.11 470.54 455 454.98 470.56 396.09 529.46 380.52 545.02 321.63 603.91 306.06 619.48 247.17 678.61 231.55 678.83 232.37 620.18 247.87 604.61 306.76 545.72 322.33 530.15 381.22 471.26 396.79 455.7 455.67 396.81 471.24 381.24 530.13 322.35 545.7 306.78 604.6 247.88 620.17 232.37 678.83" style="fill:#fff"/><polygon points="236.91 683.37 236.09 683.15 251.72 624.01 310.62 608.44 326.19 549.55 385.08 533.98 400.65 475.08 459.54 459.52 475.11 400.63 534 385.06 549.56 326.17 608.46 310.6 624.02 251.71 683.15 236.09 683.37 236.91 624.72 252.41 609.15 311.3 550.26 326.87 534.69 385.76 475.8 401.33 460.24 460.21 401.35 475.78 385.78 534.67 326.88 550.24 311.32 609.13 252.42 624.71 236.91 683.37" style="fill:#fff"/><polygon points="241.45 687.91 240.63 687.69 256.26 628.55 315.16 612.98 330.73 554.09 389.62 538.52 405.19 479.62 464.08 464.06 479.64 405.17 538.54 389.6 554.1 330.71 613 315.14 628.56 256.25 687.69 240.63 687.91 241.45 629.26 256.95 613.69 315.84 554.8 331.41 539.23 390.3 480.34 405.87 464.78 464.75 405.89 480.32 390.32 539.21 331.43 554.78 315.86 613.67 256.96 629.25 241.45 687.91" style="fill:#fff"/><polygon points="245.99 692.45 245.17 692.23 260.8 633.09 319.7 617.52 335.27 558.63 394.16 543.06 409.73 484.17 468.62 468.6 484.19 409.71 543.08 394.14 558.64 335.25 617.54 319.68 633.1 260.79 692.23 245.17 692.45 245.99 633.8 261.49 618.23 320.38 559.34 335.95 543.77 394.84 484.88 410.41 469.32 469.29 410.43 484.86 394.86 543.75 335.96 559.32 320.4 618.22 261.5 633.79 245.99 692.45" style="fill:#fff"/><polygon points="250.88 697.34 250.06 697.12 265.69 637.98 324.59 622.41 340.16 563.52 399.05 547.95 414.62 489.05 473.51 473.49 489.07 414.6 547.97 399.03 563.53 340.14 622.42 324.57 637.99 265.68 697.12 250.06 697.34 250.88 638.69 266.38 623.12 325.27 564.23 340.84 548.66 399.73 489.77 415.3 474.21 474.18 415.32 489.75 399.75 548.64 340.86 564.21 325.29 623.11 266.39 638.68 250.88 697.34" style="fill:#fff"/><polygon points="255.42 701.88 254.6 701.66 270.23 642.52 329.13 626.95 344.7 568.06 403.59 552.49 419.16 493.59 478.05 478.03 493.62 419.14 552.51 403.57 568.07 344.68 626.97 329.11 642.53 270.22 701.66 254.6 701.88 255.42 643.23 270.92 627.66 329.81 568.77 345.38 553.2 404.27 494.31 419.84 478.75 478.72 419.86 494.29 404.29 553.18 345.39 568.75 329.83 627.64 270.93 643.22 255.42 701.88" style="fill:#fff"/><polygon points="259.96 706.42 259.14 706.2 274.77 647.06 333.67 631.49 349.24 572.6 408.13 557.03 423.7 498.13 482.59 482.57 498.15 423.68 557.05 408.11 572.61 349.22 631.51 333.65 647.07 274.76 706.2 259.14 706.42 259.96 647.77 275.46 632.2 334.35 573.31 349.92 557.74 408.81 498.85 424.38 483.29 483.26 424.4 498.83 408.83 557.72 349.94 573.29 334.37 632.18 275.47 647.76 259.96 706.42" style="fill:#fff"/><polygon points="264.5 710.96 263.68 710.74 279.31 651.6 338.21 636.03 353.78 577.14 412.67 561.57 428.24 502.68 487.13 487.11 502.69 428.22 561.59 412.65 577.15 353.76 636.05 338.19 651.61 279.3 710.74 263.68 710.96 264.5 652.31 280 636.74 338.89 577.85 354.46 562.28 413.35 503.39 428.92 487.83 487.8 428.94 503.37 413.37 562.26 354.48 577.83 338.91 636.73 280.01 652.3 264.5 710.96" style="fill:#fff"/><polygon points="269.04 715.5 268.22 715.28 283.85 656.14 342.75 640.57 358.32 581.68 417.21 566.11 432.78 507.21 491.67 491.65 507.24 432.76 566.13 417.19 581.69 358.3 640.59 342.73 656.15 283.84 715.28 268.22 715.5 269.04 656.85 284.54 641.28 343.43 582.39 359 566.82 417.89 507.93 433.46 492.37 492.34 433.48 507.91 417.91 566.8 359.02 582.37 343.45 641.26 284.55 656.84 269.04 715.5" style="fill:#fff"/><polygon points="273.58 720.04 272.76 719.82 288.39 660.68 347.29 645.11 362.86 586.22 421.75 570.65 437.32 511.75 496.21 496.19 511.77 437.3 570.67 421.73 586.23 362.84 645.13 347.27 660.69 288.38 719.82 272.76 720.04 273.58 661.39 289.08 645.82 347.97 586.93 363.54 571.36 422.43 512.47 438 496.91 496.88 438.02 512.45 422.45 571.34 363.56 586.91 347.99 645.8 289.09 661.38 273.58 720.04" style="fill:#fff"/><polygon points="278.12 724.58 277.3 724.36 292.93 665.22 351.83 649.65 367.4 590.76 426.29 575.19 441.86 516.29 500.75 500.73 516.32 441.84 575.21 426.27 590.77 367.38 649.67 351.81 665.23 292.93 724.36 277.3 724.58 278.12 665.93 293.62 650.36 352.51 591.47 368.08 575.9 426.97 517.01 442.54 501.45 501.42 442.56 516.99 426.99 575.88 368.1 591.45 352.53 650.35 293.63 665.92 278.12 724.58" style="fill:#fff"/><polygon points="282.66 729.12 281.84 728.9 297.47 669.76 356.37 654.19 371.94 595.3 430.83 579.73 446.4 520.84 505.29 505.27 520.86 446.38 579.75 430.81 595.32 371.92 654.21 356.35 669.77 297.46 728.9 281.84 729.12 282.66 670.47 298.16 654.9 357.05 596.01 372.62 580.44 431.51 521.55 447.08 505.99 505.96 447.1 521.53 431.53 580.42 372.64 595.99 357.07 654.88 298.17 670.46 282.66 729.12" style="fill:#fff"/><polygon points="287.2 733.66 286.38 733.44 302.01 674.3 360.91 658.73 376.48 599.84 435.37 584.27 450.94 525.38 509.83 509.81 525.4 450.92 584.29 435.35 599.86 376.46 658.75 360.89 674.31 302 733.44 286.38 733.66 287.2 675.01 302.7 659.44 361.59 600.55 377.16 584.98 436.05 526.09 451.62 510.53 510.5 451.64 526.07 436.07 584.96 377.18 600.53 361.61 659.43 302.71 675 287.2 733.66" style="fill:#fff"/><polygon points="291.74 738.2 290.92 737.98 306.55 678.84 365.45 663.27 381.02 604.38 439.91 588.81 455.48 529.91 514.37 514.35 529.94 455.46 588.83 439.89 604.39 381 663.29 365.44 678.85 306.55 737.98 290.92 738.2 291.74 679.55 307.24 663.98 366.13 605.09 381.7 589.52 440.59 530.63 456.16 515.07 515.04 456.18 530.61 440.61 589.5 381.72 605.07 366.15 663.97 307.25 679.54 291.74 738.2" style="fill:#fff"/><polygon points="296.28 742.74 295.46 742.52 311.09 683.38 369.99 667.81 385.56 608.92 444.45 593.35 460.02 534.46 518.91 518.89 534.48 460 593.37 444.44 608.93 385.54 667.83 369.98 683.39 311.08 742.52 295.46 742.74 296.28 684.09 311.78 668.52 370.67 609.63 386.24 594.06 445.13 535.17 460.7 519.61 519.58 460.72 535.15 445.15 594.04 386.26 609.61 370.69 668.51 311.79 684.08 296.28 742.74" style="fill:#fff"/><polygon points="300.82 747.28 300 747.06 315.63 687.92 374.53 672.35 390.1 613.46 448.99 597.89 464.56 539 523.45 523.43 539.02 464.54 597.91 448.98 613.48 390.08 672.37 374.51 687.93 315.63 747.06 300 747.28 300.82 688.63 316.32 673.06 375.21 614.17 390.78 598.6 449.67 539.71 465.24 524.15 524.13 465.26 539.69 449.69 598.58 390.8 614.15 375.23 673.05 316.33 688.62 300.82 747.28" style="fill:#fff"/><polygon points="305.36 751.82 304.54 751.6 320.17 692.46 379.07 676.89 394.64 618 453.53 602.43 469.1 543.54 527.99 527.97 543.56 469.08 602.45 453.51 618.01 394.62 676.91 379.06 692.47 320.17 751.6 304.54 751.82 305.36 693.17 320.86 677.6 379.75 618.71 395.32 603.14 454.21 544.25 469.78 528.69 528.66 469.8 544.23 454.23 603.12 395.34 618.69 379.77 677.59 320.87 693.16 305.36 751.82" style="fill:#fff"/><polygon points="309.9 756.36 309.08 756.14 324.71 697 383.61 681.43 399.18 622.54 458.07 606.97 473.64 548.08 532.53 532.51 548.1 473.62 606.99 458.06 622.55 399.16 681.45 383.6 697.01 324.7 756.14 309.08 756.36 309.9 697.71 325.4 682.14 384.29 623.25 399.86 607.68 458.75 548.79 474.32 533.23 533.21 474.34 548.77 458.77 607.66 399.88 623.23 384.31 682.13 325.41 697.7 309.9 756.36" style="fill:#fff"/><polygon points="314.44 760.9 313.62 760.68 329.25 701.54 388.15 685.97 403.72 627.08 462.61 611.51 478.18 552.62 537.07 537.05 552.64 478.16 611.53 462.6 627.1 403.7 685.99 388.13 701.55 329.25 760.68 313.62 760.9 314.44 702.25 329.94 686.68 388.83 627.79 404.4 612.22 463.29 553.33 478.86 537.77 537.75 478.88 553.31 463.31 612.21 404.42 627.77 388.85 686.67 329.95 702.24 314.44 760.9" style="fill:#fff"/><polygon points="318.98 765.44 318.16 765.22 333.8 706.08 392.69 690.51 408.26 631.62 467.15 616.05 482.72 557.16 541.61 541.59 557.18 482.7 616.07 467.13 631.64 408.24 690.53 392.68 706.09 333.79 765.22 318.16 765.44 318.98 706.79 334.48 691.22 393.37 632.33 408.94 616.76 467.83 557.87 483.4 542.31 542.28 483.42 557.85 467.85 616.74 408.96 632.31 393.39 691.21 334.49 706.78 318.98 765.44" style="fill:#fff"/><polygon points="323.52 769.98 322.7 769.76 338.33 710.62 397.23 695.05 412.8 636.16 471.69 620.59 487.26 561.7 546.15 546.13 561.72 487.24 620.61 471.68 636.18 412.78 695.07 397.21 710.63 338.33 769.76 322.7 769.98 323.52 711.33 339.02 695.76 397.91 636.87 413.48 621.3 472.37 562.41 487.94 546.85 546.83 487.96 562.39 472.39 621.28 413.5 636.85 397.93 695.75 339.03 711.32 323.52 769.98" style="fill:#fff"/><polygon points="328.06 774.52 327.24 774.3 342.88 715.16 401.77 699.59 417.34 640.7 476.24 625.13 491.8 566.24 550.69 550.67 566.26 491.78 625.15 476.21 640.72 417.32 699.61 401.76 715.17 342.87 774.3 327.24 774.52 328.06 715.87 343.56 700.3 402.45 641.41 418.02 625.84 476.91 566.95 492.48 551.39 551.37 492.5 566.93 476.93 625.83 418.04 641.39 402.47 700.29 343.57 715.86 328.06 774.52" style="fill:#fff"/><polygon points="332.6 779.06 331.78 778.84 347.42 719.7 406.31 704.13 421.88 645.24 480.77 629.67 496.34 570.78 555.23 555.21 570.8 496.32 629.69 480.75 645.26 421.86 704.15 406.3 719.71 347.41 778.84 331.78 779.06 332.6 720.41 348.1 704.84 406.99 645.95 422.56 630.38 481.45 571.49 497.02 555.93 555.91 497.04 571.47 481.47 630.37 422.58 645.93 407.01 704.83 348.11 720.4 332.6 779.06" style="fill:#fff"/><polygon points="337.14 783.6 336.32 783.38 351.95 724.24 410.85 708.67 426.42 649.78 485.31 634.21 500.88 575.32 559.77 559.75 575.34 500.86 634.23 485.3 649.8 426.4 708.69 410.84 724.25 351.95 783.38 336.32 783.6 337.14 724.95 352.64 709.38 411.53 650.49 427.1 634.92 485.99 576.03 501.56 560.47 560.45 501.58 576.01 486.01 634.9 427.12 650.47 411.55 709.37 352.65 724.94 337.14 783.6" style="fill:#fff"/><polygon points="341.68 788.14 340.86 787.92 356.5 728.78 415.39 713.21 430.96 654.32 489.86 638.75 505.42 579.86 564.31 564.29 579.88 505.4 638.77 489.84 654.34 430.94 713.23 415.38 728.79 356.49 787.92 340.86 788.14 341.68 729.49 357.18 713.92 416.07 655.03 431.64 639.46 490.53 580.57 506.1 565.01 564.99 506.12 580.55 490.55 639.45 431.66 655.01 416.09 713.91 357.19 729.48 341.68 788.14" style="fill:#fff"/><polygon points="346.22 792.68 345.4 792.46 361.04 733.33 419.93 717.75 435.5 658.86 494.39 643.29 509.96 584.4 568.85 568.83 584.42 509.94 643.31 494.38 658.88 435.48 717.77 419.92 733.33 361.03 792.46 345.4 792.68 346.22 734.03 361.72 718.46 420.61 659.57 436.18 644 495.07 585.11 510.64 569.55 569.53 510.66 585.09 495.09 643.99 436.2 659.55 420.63 718.45 361.73 734.02 346.22 792.68" style="fill:#fff"/><polygon points="350.76 797.22 349.94 797 365.57 737.86 424.47 722.29 440.04 663.4 498.94 647.83 514.5 588.94 573.39 573.37 588.96 514.48 647.85 498.92 663.42 440.02 722.31 424.46 737.87 365.57 797 349.94 797.22 350.76 738.57 366.26 723 425.15 664.11 440.72 648.54 499.61 589.65 515.18 574.09 574.07 515.2 589.63 499.63 648.52 440.74 664.1 425.17 722.99 366.27 738.56 350.76 797.22" style="fill:#fff"/><polygon points="355.3 801.76 354.48 801.54 370.12 742.4 429.01 726.83 444.58 667.94 503.48 652.37 519.04 593.48 577.93 577.91 593.5 519.02 652.39 503.46 667.96 444.56 726.85 429 742.41 370.11 801.54 354.48 801.76 355.3 743.11 370.8 727.54 429.69 668.65 445.26 653.09 504.15 594.19 519.72 578.63 578.61 519.74 594.17 504.17 653.07 445.28 668.63 429.71 727.53 370.81 743.1 355.3 801.76" style="fill:#fff"/><polygon points="359.84 806.3 359.02 806.08 374.66 746.95 433.55 731.37 449.12 672.48 508.02 656.91 523.58 598.02 582.48 582.45 598.04 523.56 656.93 508 672.5 449.1 731.39 433.54 746.95 374.65 806.08 359.02 806.3 359.84 747.65 375.34 732.08 434.23 673.19 449.8 657.63 508.69 598.73 524.26 583.17 583.15 524.28 598.71 508.71 657.61 449.82 673.17 434.25 732.07 375.35 747.64 359.84 806.3" style="fill:#fff"/><polygon points="364.38 810.84 363.56 810.62 379.2 751.49 438.09 735.91 453.66 677.02 512.56 661.45 528.12 602.56 587.01 586.99 602.58 528.1 661.47 512.54 677.04 453.64 735.93 438.08 751.49 379.19 810.62 363.56 810.84 364.38 752.19 379.88 736.63 438.77 677.73 454.34 662.16 513.23 603.27 528.8 587.71 587.69 528.82 603.25 513.25 662.15 454.36 677.72 438.79 736.61 379.89 752.18 364.38 810.84" style="fill:#fff"/><polygon points="368.92 815.38 368.1 815.16 383.74 756.02 442.63 740.45 458.2 681.56 517.1 665.99 532.66 607.1 591.55 591.53 607.12 532.64 666.01 517.08 681.58 458.18 740.47 442.62 756.03 383.73 815.16 368.1 815.38 368.92 756.73 384.42 741.16 443.31 682.27 458.88 666.71 517.77 607.81 533.34 592.25 592.23 533.36 607.79 517.79 666.69 458.9 682.25 443.33 741.15 384.43 756.72 368.92 815.38" style="fill:#fff"/><polygon points="373.46 819.92 372.64 819.7 388.28 760.57 447.17 744.99 462.74 686.1 521.64 670.53 537.2 611.64 596.1 596.07 611.66 537.18 670.55 521.62 686.12 462.72 745.01 447.16 760.57 388.27 819.7 372.64 819.92 373.46 761.27 388.96 745.71 447.85 686.81 463.42 671.25 522.31 612.35 537.88 596.79 596.77 537.9 612.33 522.33 671.23 463.44 686.8 447.87 745.69 388.97 761.26 373.46 819.92" style="fill:#fff"/><polygon points="378 824.46 377.18 824.24 392.82 765.11 451.71 749.53 467.28 690.64 526.18 675.07 541.74 616.18 600.63 600.61 616.2 541.72 675.09 526.16 690.66 467.26 749.55 451.7 765.11 392.81 824.24 377.18 824.46 378 765.81 393.5 750.25 452.39 691.35 467.96 675.78 526.85 616.89 542.42 601.33 601.31 542.44 616.87 526.87 675.77 467.98 691.34 452.41 750.23 393.51 765.8 378 824.46" style="fill:#fff"/><polygon points="382.54 829 381.72 828.78 397.36 769.64 456.25 754.07 471.82 695.18 530.72 679.61 546.28 620.72 605.17 605.15 620.74 546.26 679.63 530.7 695.2 471.8 754.09 456.24 769.65 397.35 828.78 381.72 829 382.54 770.35 398.04 754.78 456.93 695.89 472.5 680.33 531.39 621.43 546.96 605.87 605.85 546.98 621.41 531.41 680.31 472.52 695.88 456.95 754.77 398.05 770.34 382.54 829" style="fill:#fff"/><polygon points="387.08 833.54 386.26 833.32 401.9 774.19 460.79 758.61 476.36 699.72 535.26 684.15 550.82 625.26 609.72 609.69 625.28 550.8 684.17 535.24 699.74 476.34 758.63 460.78 774.19 401.89 833.32 386.26 833.54 387.08 774.89 402.58 759.33 461.47 700.43 477.04 684.87 535.93 625.97 551.5 610.41 610.39 551.52 625.95 535.95 684.85 477.06 700.42 461.49 759.31 402.59 774.88 387.08 833.54" style="fill:#fff"/><polygon points="391.62 838.08 390.8 837.86 406.44 778.73 465.33 763.15 480.9 704.26 539.8 688.69 555.36 629.8 614.26 614.23 629.82 555.34 688.71 539.78 704.28 480.88 763.17 465.32 778.74 406.43 837.86 390.8 838.08 391.62 779.43 407.12 763.87 466.01 704.97 481.58 689.41 540.47 630.51 556.04 614.95 614.93 556.06 630.5 540.49 689.39 481.6 704.96 466.03 763.85 407.13 779.42 391.62 838.08" style="fill:#fff"/><polygon points="396.16 842.62 395.34 842.4 410.98 783.27 469.87 767.69 485.44 708.8 544.34 693.23 559.9 634.34 618.8 618.77 634.36 559.88 693.25 544.32 708.82 485.43 767.71 469.86 783.27 410.97 842.4 395.34 842.62 396.16 783.97 411.66 768.4 470.55 709.51 486.12 693.95 545.01 635.05 560.58 619.49 619.47 560.6 635.03 545.03 693.93 486.14 709.5 470.57 768.39 411.67 783.96 396.16 842.62" style="fill:#fff"/><polygon points="400.7 847.16 399.88 846.94 415.52 787.81 474.41 772.23 489.98 713.34 548.88 697.77 564.44 638.88 623.34 623.31 638.9 564.42 697.79 548.86 713.36 489.96 772.25 474.4 787.82 415.51 846.94 399.88 847.16 400.7 788.51 416.2 772.95 475.09 714.05 490.66 698.49 549.55 639.6 565.12 624.03 624.01 565.14 639.58 549.57 698.47 490.68 714.04 475.11 772.93 416.21 788.5 400.7 847.16" style="fill:#fff"/><polygon points="405.24 851.7 404.42 851.48 420.06 792.35 478.95 776.77 494.52 717.88 553.42 702.31 568.98 643.42 627.88 627.85 643.44 568.96 702.33 553.4 717.9 494.5 776.79 478.94 792.36 420.05 851.48 404.42 851.7 405.24 793.05 420.74 777.49 479.63 718.59 495.2 703.03 554.09 644.13 569.66 628.57 628.55 569.68 644.12 554.11 703.01 495.22 718.58 479.65 777.47 420.75 793.04 405.24 851.7" style="fill:#fff"/><polygon points="409.78 856.24 408.96 856.02 424.6 796.89 483.5 781.31 499.06 722.42 557.96 706.85 573.52 647.96 632.42 632.39 647.98 573.5 706.87 557.94 722.44 499.05 781.33 483.48 796.89 424.59 856.02 408.96 856.24 409.78 797.59 425.29 782.03 484.17 723.13 499.74 707.57 558.63 648.67 574.2 633.11 633.09 574.22 648.65 558.65 707.55 499.76 723.12 484.19 782.01 425.29 797.58 409.78 856.24" style="fill:#fff"/><polygon points="414.32 860.78 413.5 860.56 429.14 801.43 488.04 785.85 503.6 726.96 562.5 711.39 578.07 652.5 636.96 636.93 652.52 578.04 711.41 562.48 726.98 503.58 785.87 488.02 801.43 429.13 860.56 413.5 860.78 414.32 802.13 429.82 786.57 488.71 727.67 504.28 712.11 563.17 653.22 578.74 637.65 637.63 578.76 653.2 563.19 712.09 504.3 727.66 488.73 786.55 429.83 802.12 414.32 860.78" style="fill:#fff"/><polygon points="418.86 865.32 418.04 865.1 433.68 805.97 492.57 790.39 508.14 731.5 567.04 715.93 582.61 657.04 641.5 641.47 657.06 582.58 715.95 567.02 731.52 508.13 790.41 492.56 805.98 433.67 865.1 418.04 865.32 418.86 806.67 434.37 791.11 493.25 732.21 508.82 716.65 567.71 657.75 583.28 642.19 642.17 583.3 657.74 567.73 716.63 508.84 732.2 493.27 791.09 434.37 806.66 418.86 865.32" style="fill:#fff"/><polygon points="423.4 869.86 422.58 869.64 438.22 810.51 497.12 794.93 512.68 736.04 571.58 720.47 587.14 661.58 646.04 646.01 661.6 587.13 720.49 571.56 736.06 512.66 794.95 497.1 810.51 438.21 869.64 422.58 869.86 423.4 811.21 438.9 795.65 497.8 736.75 513.36 721.19 572.25 662.29 587.82 646.73 646.71 587.84 662.27 572.27 721.17 513.38 736.74 497.81 795.63 438.91 811.2 423.4 869.86" style="fill:#fff"/><polygon points="427.94 874.4 427.12 874.18 442.76 815.05 501.65 799.47 517.22 740.58 576.12 725.01 591.68 666.12 650.58 650.55 666.14 591.66 725.03 576.1 740.6 517.21 799.49 501.64 815.05 442.75 874.18 427.12 874.4 427.94 815.75 443.44 800.19 502.33 741.29 517.9 725.73 576.79 666.84 592.36 651.27 651.25 592.38 666.82 576.81 725.71 517.92 741.28 502.35 800.17 443.45 815.74 427.94 874.4" style="fill:#fff"/><polygon points="432.48 878.94 431.66 878.72 447.3 819.59 506.19 804.01 521.76 745.12 580.66 729.55 596.23 670.66 655.12 655.09 670.68 596.21 729.57 580.64 745.14 521.75 804.03 506.18 819.6 447.29 878.72 431.66 878.94 432.48 820.29 447.99 804.73 506.88 745.84 522.44 730.27 581.33 671.38 596.9 655.81 655.79 596.92 671.36 581.35 730.25 522.46 745.82 506.89 804.71 447.99 820.28 432.48 878.94" style="fill:#fff"/><polygon points="437.02 883.48 436.2 883.26 451.84 824.13 510.74 808.55 526.3 749.66 585.2 734.09 600.76 675.2 659.66 659.63 675.22 600.75 734.11 585.18 749.68 526.29 808.57 510.72 824.14 451.83 883.26 436.2 883.48 437.02 824.83 452.52 809.27 511.42 750.38 526.98 734.81 585.87 675.92 601.44 660.35 660.33 601.46 675.89 585.89 734.79 527 750.36 511.43 809.25 452.53 824.82 437.02 883.48" style="fill:#fff"/><polygon points="441.56 888.02 440.74 887.8 456.38 828.67 515.28 813.09 530.84 754.2 589.74 738.63 605.3 679.74 664.2 664.17 679.76 605.28 738.65 589.72 754.22 530.83 813.11 515.26 828.68 456.37 887.8 440.74 888.02 441.56 829.37 457.06 813.81 515.96 754.91 531.52 739.35 590.41 680.46 605.98 664.89 664.87 606 680.44 590.43 739.33 531.54 754.9 515.97 813.79 457.07 829.36 441.56 888.02" style="fill:#fff"/><polygon points="446.1 892.56 445.28 892.34 460.92 833.21 519.82 817.63 535.38 758.74 594.28 743.17 609.85 684.28 668.74 668.71 684.3 609.83 743.19 594.26 758.76 535.37 817.65 519.8 833.22 460.91 892.34 445.28 892.56 446.1 833.91 461.61 818.35 520.5 759.46 536.06 743.89 594.96 685 610.52 669.43 669.41 610.54 684.98 594.97 743.87 536.08 759.44 520.51 818.33 461.61 833.9 446.1 892.56" style="fill:#fff"/><polygon points="450.64 897.1 449.82 896.88 465.46 837.75 524.36 822.17 539.92 763.28 598.82 747.71 614.39 688.82 673.28 673.25 688.84 614.37 747.73 598.8 763.3 539.91 822.19 524.34 837.76 465.45 896.88 449.82 897.1 450.64 838.45 466.15 822.89 525.03 764 540.6 748.43 599.5 689.54 615.06 673.97 673.95 615.08 689.52 599.51 748.41 540.62 763.98 525.05 822.87 466.15 838.44 450.64 897.1" style="fill:#fff"/><polygon points="455.18 901.64 454.36 901.42 470 842.29 528.9 826.71 544.46 767.82 603.36 752.25 618.93 693.36 677.82 677.79 693.38 618.9 752.27 603.34 767.84 544.45 826.73 528.88 842.3 469.99 901.42 454.36 901.64 455.18 842.99 470.69 827.43 529.58 768.53 545.14 752.97 604.03 694.08 619.6 678.51 678.49 619.62 694.06 604.05 752.95 545.16 768.52 529.59 827.41 470.69 842.98 455.18 901.64" style="fill:#fff"/><polygon points="459.72 906.18 458.9 905.96 474.54 846.83 533.44 831.25 549 772.36 607.9 756.79 623.47 697.9 682.36 682.33 697.92 623.45 756.81 607.88 772.38 548.99 831.27 533.42 846.84 474.53 905.97 458.9 906.18 459.72 847.53 475.23 831.97 534.12 773.08 549.68 757.51 608.58 698.62 624.14 683.05 683.03 624.16 698.6 608.59 757.49 549.7 773.06 534.13 831.95 475.23 847.52 459.72 906.18" style="fill:#fff"/><polygon points="464.26 910.72 463.44 910.5 479.08 851.37 537.98 835.79 553.54 776.9 612.44 761.33 628.01 702.44 686.9 686.87 702.46 627.99 761.35 612.42 776.92 553.53 835.81 537.96 851.38 479.07 910.5 463.44 910.72 464.26 852.07 479.77 836.51 538.66 777.62 554.22 762.05 613.12 703.16 628.68 687.59 687.57 628.7 703.14 613.13 762.03 554.24 777.6 538.67 836.49 479.77 852.06 464.26 910.72" style="fill:#fff"/><polygon points="468.8 915.26 467.98 915.04 483.62 855.91 542.52 840.33 558.09 781.44 616.98 765.87 632.55 706.98 691.44 691.41 707 632.53 765.89 616.96 781.46 558.07 840.35 542.5 855.92 483.61 915.04 467.98 915.26 468.8 856.61 484.31 841.05 543.2 782.16 558.76 766.59 617.65 707.7 633.22 692.13 692.11 633.24 707.68 617.67 766.57 558.78 782.14 543.21 841.03 484.31 856.6 468.8 915.26" style="fill:#fff"/><polygon points="473.35 919.8 472.52 919.59 488.16 860.45 547.06 844.87 562.63 785.98 621.52 770.41 637.09 711.52 695.98 695.95 711.54 637.07 770.43 621.5 786 562.61 844.89 547.04 860.46 488.15 919.59 472.52 919.8 473.35 861.15 488.85 845.59 547.74 786.7 563.3 771.13 622.2 712.24 637.76 696.67 696.65 637.78 712.22 622.22 771.11 563.32 786.68 547.75 845.57 488.86 861.14 473.35 919.8" style="fill:#fff"/></g></g></g><path d="M248.42,123c-12.5,0-22.29-10.08-22.29-23l.14-7.3A4.38,4.38,0,1,1,235,93l-.15,7.17c0,8,5.83,14.09,13.55,14.09S262,108.15,262,100.05l.12-7.12a4.38,4.38,0,0,1,8.75.21l-.12,7C270.71,112.93,260.92,123,248.42,123Z" transform="translate(255.44 211.7)" style="fill:#fff"/><path d="M227.58,71.08h-6.53a3.25,3.25,0,1,1,0-6.5h6.53a3.25,3.25,0,1,1,0,6.5Z" transform="translate(255.44 211.7)" style="fill:#fff"/><path d="M275.91,71.08h-6.53a3.25,3.25,0,1,1,0-6.5h6.53a3.25,3.25,0,1,1,0,6.5Z" transform="translate(255.44 211.7)" style="fill:#fff"/><path d="M237.5,78.46c-.57,0-1,0-1.25,0a11.53,11.53,0,0,1,.16-23,3.27,3.27,0,0,1,0,6.53,5,5,0,0,0,0,10,2.3,2.3,0,0,1,.37,0s5.49.52,7.25-3l.72-1.48c2.58-5.33,5.78-12,14.41-12h.34a11.53,11.53,0,0,1,0,23,3.27,3.27,0,1,1,0-6.53,5,5,0,0,0,.08-10h-.33c-4.39,0-6,2.86-8.62,8.32l-.75,1.54C246.92,77.74,240.43,78.46,237.5,78.46Z" transform="translate(255.44 211.7)" style="fill:#fff"/><path d="M196.46,120.83H78.17s-10.06-.81-11.52-5.69v-2.53l.06-.23c2.21-7.35,14.7,0,14.7,0S72.59,92.17,88.4,87s22,12.67,22,12.67S106.78,76,128.83,72.33c21.39-3.56,21.69,23.65,21.69,25.28v.07l.06-.1c.63-.91,5.66-7.56,16.48-6.19h0a29.19,29.19,0,0,1,3.93.8c14.43,4,6.34,18.36,6.34,18.36s16.91-1.84,21.32,1.83S196.46,120.83,196.46,120.83Z" transform="translate(255.44 211.7)" style="fill:#fff"/><path d="M387.72,251.46H267s-10.27-.83-11.76-5.8v-2.59c0-.08.05-.16.07-.24,2.25-7.49,15,0,15,0s-9-20.63,7.13-25.88,22.52,12.94,22.52,12.94S296.17,205.7,318.67,202c21.85-3.64,22.15,24.14,22.15,25.81v.07l.07-.1c.64-.93,5.77-7.72,16.82-6.32h0a27.62,27.62,0,0,1,4,.82c14.73,4.1,6.48,18.73,6.48,18.73s17.25-1.87,21.76,1.87S387.72,251.46,387.72,251.46Z" transform="translate(255.44 211.7)" style="fill:#fff"/><path d="M32.45,235.79H94.71a.82.82,0,0,0,0-1.64H32.45A.82.82,0,0,0,32.45,235.79Z" transform="translate(255.44 211.7)" style="fill:#09e7ff"/><path d="M85.4,325.87l31.13-53.93a.82.82,0,0,0-1.42-.82L84,325.05A.82.82,0,0,0,85.4,325.87Z" transform="translate(255.44 211.7)" style="fill:#09e7ff"/><path d="M189.88,325.05l-31.13-53.93a.82.82,0,0,0-1.42.82l31.13,53.93A.82.82,0,0,0,189.88,325.05Z" transform="translate(255.44 211.7)" style="fill:#09e7ff"/><path d="M241.41,234.15H179.15a.82.82,0,0,0,0,1.64h62.26A.82.82,0,0,0,241.41,234.15Z" transform="translate(255.44 211.7)" style="fill:#09e7ff"/><path d="M188.46,144.08,157.33,198a.82.82,0,0,0,1.42.82l31.13-53.92A.82.82,0,0,0,188.46,144.08Z" transform="translate(255.44 211.7)" style="fill:#09e7ff"/><path d="M84,144.9l31.13,53.92a.82.82,0,0,0,1.42-.82L85.4,144.08A.82.82,0,0,0,84,144.9Z" transform="translate(255.44 211.7)" style="fill:#09e7ff"/><path d="M152.65,138.86l-6,35a.82.82,0,0,0,1.61.28l6-35A.82.82,0,0,0,152.65,138.86Z" transform="translate(255.44 211.7)" style="fill:#09e7ff"/><path d="M61.56,173.3,88.85,196a.82.82,0,0,0,1-1.26L62.61,172A.82.82,0,0,0,61.56,173.3Z" transform="translate(255.44 211.7)" style="fill:#09e7ff"/><path d="M45.84,269.41l33.31-12.28a.82.82,0,0,0-.57-1.53L45.27,267.87A.82.82,0,0,0,45.84,269.41Z" transform="translate(255.44 211.7)" style="fill:#09e7ff"/><path d="M121.2,331.08l6-35a.82.82,0,0,0-1.61-.28l-6,35A.82.82,0,0,0,121.2,331.08Z" transform="translate(255.44 211.7)" style="fill:#09e7ff"/><path d="M212.3,296.64,185,273.93a.82.82,0,0,0-1,1.26l27.29,22.71A.82.82,0,0,0,212.3,296.64Z" transform="translate(255.44 211.7)" style="fill:#09e7ff"/><path d="M228,200.54l-33.31,12.27a.82.82,0,0,0,.57,1.54l33.31-12.28A.82.82,0,0,0,228,200.54Z" transform="translate(255.44 211.7)" style="fill:#09e7ff"/><path d="M59.77,207.41l41.51,15.3a.82.82,0,0,0,.57-1.54l-41.51-15.3A.82.82,0,0,0,59.77,207.41Z" transform="translate(255.44 211.7)" style="fill:#09e7ff"/><path d="M42.35,201,50,203.82a.82.82,0,0,0,.57-1.54l-7.69-2.83A.81.81,0,0,0,42.35,201Z" transform="translate(255.44 211.7)" style="fill:#09e7ff"/><path d="M74.48,288l34-28.3a.82.82,0,0,0-1-1.26l-34,28.3A.82.82,0,0,0,74.48,288Z" transform="translate(255.44 211.7)" style="fill:#09e7ff"/><path d="M60.2,299.89l6.3-5.24a.82.82,0,0,0-1-1.26l-6.29,5.24A.82.82,0,0,0,60.2,299.89Z" transform="translate(255.44 211.7)" style="fill:#09e7ff"/><path d="M151.64,315.57,144.13,272a.82.82,0,0,0-1.61.27l7.5,43.6A.82.82,0,0,0,151.64,315.57Z" transform="translate(255.44 211.7)" style="fill:#09e7ff"/><path d="M154.79,333.88l-1.39-8.08a.82.82,0,0,0-1.62.28l1.39,8.07A.82.82,0,0,0,154.79,333.88Z" transform="translate(255.44 211.7)" style="fill:#09e7ff"/><path d="M214.09,262.54l-41.51-15.3a.82.82,0,0,0-.57,1.53l41.51,15.3A.82.82,0,0,0,214.09,262.54Z" transform="translate(255.44 211.7)" style="fill:#09e7ff"/><path d="M231.51,269l-7.69-2.83a.81.81,0,0,0-.56,1.53l7.68,2.84A.82.82,0,0,0,231.51,269Z" transform="translate(255.44 211.7)" style="fill:#09e7ff"/><path d="M199.38,181.93l-34,28.3a.82.82,0,0,0,1,1.26l34-28.3A.82.82,0,0,0,199.38,181.93Z" transform="translate(255.44 211.7)" style="fill:#09e7ff"/><path d="M213.65,170.06l-6.29,5.24a.82.82,0,0,0,1,1.26l6.3-5.25A.82.82,0,0,0,213.65,170.06Z" transform="translate(255.44 211.7)" style="fill:#09e7ff"/><path d="M122.22,154.37l7.51,43.6a.82.82,0,0,0,1.61-.28l-7.5-43.6A.82.82,0,0,0,122.22,154.37Z" transform="translate(255.44 211.7)" style="fill:#09e7ff"/><path d="M119.07,136.07l1.39,8.07a.82.82,0,0,0,1.62-.28l-1.39-8.07A.82.82,0,0,0,119.07,136.07Z" transform="translate(255.44 211.7)" style="fill:#09e7ff"/><g id="Father"><path d="M128.17,263.43s-18.07,5.75-25.11,11.05-25.83,39.2-36.95,41.11-47-5.79-47-5.79l-2.79,10s30.75,15.4,56.52,15,33.44-15.38,33.44-15.38L96.34,361l36.51,24.81,46.48-23.75-10-45.33s14.31,16.54,36,18,50.73-20.05,50.73-20.05l-3.68-11.09s-29.15,11.54-48,1.25-38.48-40.35-61-39.6A31.56,31.56,0,0,1,128.17,263.43Z" transform="translate(255.44 211.7)" style="fill:#eff2f4"/><path d="M109.43,363.36s-56.85-53.44-72.77-28.6S70,417,162.94,417l7.62-11.1S136.84,386.57,109.43,363.36Z" transform="translate(255.44 211.7)" style="fill:#3562ff"/><path d="M155.71,360.81s55.77-53.11,72.38-28.71-31,83.09-123.94,85.71l-7.92-10.89S130.49,387.25,155.71,360.81Z" transform="translate(255.44 211.7)" style="fill:#3562ff"/><path d="M170.56,405.89s29.25-9.42,30.65-3.73-11.37,16.38-30.49,15.49l-7.78-.66Z" transform="translate(255.44 211.7)" style="fill:#29264a"/><path d="M96.23,406.92s-37.56-10.25-35.49-3.46S74.57,417.34,99,417.88l5.17-.07Z" transform="translate(255.44 211.7)" style="fill:#29264a"/><path d="M252.49,303.73s12.12-13.8,11.3-9.84-6.26,8.67-4,9.73,7.28,2.1,6.26-8,3.94-1.18,4.88,3,1.88,8.3-4.46,11-10.92,5-10.92,5Z" transform="translate(255.44 211.7)" style="fill:#e2a54a"/><path d="M19.09,309.91S6.59,296.45,7.52,300.4,14,308.88,11.83,310s-7.22,2.3-6.48-7.83-4-1.07-4.8,3.13-1.64,8.35,4.77,10.92a76.45,76.45,0,0,0,11,3.57Z" transform="translate(255.44 211.7)" style="fill:#e2a54a"/><path d="M125.59,208.27s3.9-9.48,12.72-9,10.85,7.38,10.85,7.38,2.32-1.54,8.64,1.48c4,1.9,5.64,11.58,1,11.91,0,0,4.72,2.84,2.68,7.49s-13.84,2.37-13.84,2.37Z" transform="translate(255.44 211.7)" style="fill:#282649"/><path d="M154.23,223c6.28,15.46,15.41,27.92,1.07,34.49a26.87,26.87,0,0,1-8.14,2.46,1.89,1.89,0,0,0-1.69,1.33c-.37,1.37-.83,7.87,1,10.31,0,0-7.07,7.79-24.57.26,0,0,2.51-15.49,1.28-21.17-1.53-7.11-12.38-28.38-4.8-33.31,6.94-4.52,21.73-19.47,32.89-.48A45.35,45.35,0,0,1,154.23,223Z" transform="translate(255.44 211.7)" style="fill:#e2a54a"/><path d="M136.21,207.66s-13.08-8.91-22.84-1c-6.09,4.93-2.05,18.28-.58,19.44,0,0-6.36,3-5.86,8s6,10.39,16.84,14.11c0,0,6.78.6,2.78-8.69s1.52-13.14,5.89-8.56c2.18,2.29,2.41,6.07,3.06,8s3.28.47,3.28.47-6.58-15.15.21-18,16.69-2,16.69-2L145.23,204Z" transform="translate(255.44 211.7)" style="fill:#282649"/><path d="M160.7,237.44l1.77,6s15,8.82,7.24,16-33.12,7.42-33.77-6.22-1.58-22.84-1.58-22.84,2.77,8.26,6.63,11.51S146.76,234.39,160.7,237.44Z" transform="translate(255.44 211.7)" style="fill:#282649"/><path d="M161.6,241.84c.54,1.53-1.35,3.51-4.21,4.41s-5.61.4-6.15-1.14,1.36-3.51,4.22-4.41S161.07,240.3,161.6,241.84Z" transform="translate(255.44 211.7)" style="fill:#e2a54a"/></g><path d="M214.67,360.51a50.8,50.8,0,0,1,1.22-6.39l8.7,1.5,6.12,4.35-6,6-5.3,3.81-3.13-4.21Z" transform="translate(255.44 211.7)" style="fill:#eff2f4"/><path d="M276.27,360.51a50.8,50.8,0,0,0-1.22-6.39l-8.71,1.5L260.23,360l6,6,5.3,3.81,3.13-4.21Z" transform="translate(255.44 211.7)" style="fill:#eff2f4"/><path d="M225.64,404c0,1,0,2.19-.19,3.41-.72,5.64,1.12,7.54,5.39,7.54,3.55,0,5.4-2.13,6-5.09A30.92,30.92,0,0,1,225.64,404Z" transform="translate(255.44 211.7)" style="fill:url(#Degradado_sin_nombre_108)"/><path d="M225.31,409.61c0,3.93,1.88,5.32,5.53,5.32a5.74,5.74,0,0,0,4.42-1.75A52.42,52.42,0,0,0,225.31,409.61Z" transform="translate(255.44 211.7)" style="fill:#247d2c"/><path d="M265.41,404c0,1,0,2.19.19,3.41.72,5.64-1.12,7.54-5.39,7.54-3.55,0-5.4-2.13-6-5.09A30.92,30.92,0,0,0,265.41,404Z" transform="translate(255.44 211.7)" style="fill:url(#Degradado_sin_nombre_108-2)"/><path d="M265.74,409.61c0,3.93-1.88,5.32-5.53,5.32a5.7,5.7,0,0,1-4.41-1.75A52.17,52.17,0,0,1,265.74,409.61Z" transform="translate(255.44 211.7)" style="fill:#247d2c"/><path d="M247,353.13v5.31a1.6,1.6,0,1,1-3.19,0v-5.3c-16.25,1-28.7,13.55-28.7,28.93,0,16,13.59,29,30.45,29s30.41-13,30.41-29C276,366.59,263.27,354,247,353.13Z" transform="translate(255.44 211.7)" style="fill:url(#Degradado_sin_nombre_108-3)"/><path d="M219.59,366.93a4.72,4.72,0,0,1-.84-.7c-1.95-2.09-3.82-7.49-1.73-9.44s7.35.29,9.3,2.38l.23.27a30.41,30.41,0,0,1,3.82-2.47c-4.61-3.3-13.44-5.57-16.14-3.17s-.55,13.39,3,17.66A28.23,28.23,0,0,1,219.59,366.93Z" transform="translate(255.44 211.7)" style="fill:url(#Degradado_sin_nombre_108-4)"/><path d="M264.35,359.3l.11-.13c2-2.09,7.21-4.33,9.3-2.38s.21,7.35-1.73,9.44a4.27,4.27,0,0,1-.62.54,28.3,28.3,0,0,1,2.36,4.41c3.42-4.45,5.57-14.89,2.78-17.38s-11.36-.18-16,3.07A30,30,0,0,1,264.35,359.3Z" transform="translate(255.44 211.7)" style="fill:url(#Degradado_sin_nombre_108-5)"/><path d="M245.66,396.47a8.85,8.85,0,0,1-8.81-9.08l.05-2.88a1.73,1.73,0,1,1,3.46.09l-.05,2.84a5.36,5.36,0,1,0,10.71-.05l0-2.81a1.73,1.73,0,0,1,3.46.08l0,2.77A8.85,8.85,0,0,1,245.66,396.47Z" transform="translate(255.44 211.7)" style="fill:#fff"/><path d="M237.42,375.94h-2.58a1.29,1.29,0,1,1,0-2.58h2.58a1.29,1.29,0,1,1,0,2.58Z" transform="translate(255.44 211.7)" style="fill:#fff"/><path d="M256.53,375.94H254a1.29,1.29,0,1,1,0-2.58h2.58a1.29,1.29,0,1,1,0,2.58Z" transform="translate(255.44 211.7)" style="fill:#fff"/><path d="M241.35,378.85l-.5,0a4.56,4.56,0,0,1,.06-9.11,1.29,1.29,0,1,1,0,2.58,2,2,0,0,0,0,3.95h.15s2.17.21,2.87-1.2c.09-.2.19-.39.28-.59,1-2.1,2.29-4.73,5.7-4.75H250a4.56,4.56,0,1,1,0,9.11,1.29,1.29,0,0,1,0-2.58,2,2,0,0,0,0-3.95H250c-1.74,0-2.37,1.12-3.41,3.29l-.3.6C245.07,378.57,242.5,378.85,241.35,378.85Z" transform="translate(255.44 211.7)" style="fill:#fff"/><path d="M14.83,197.74a6,6,0,1,1-8.55,0A6,6,0,0,1,14.83,197.74Zm-6.91,6.9a3.72,3.72,0,1,0,0-5.26A3.72,3.72,0,0,0,7.92,204.64Z" transform="translate(255.44 211.7)" style="fill:#09e7ff;opacity:0.5"/><g style="opacity:0.5"><path d="M100,113a1.11,1.11,0,0,1-1.89.78l-9.5-9.49a1.11,1.11,0,1,1,1.57-1.57l9.49,9.5A1.08,1.08,0,0,1,100,113Z" transform="translate(255.44 211.7)" style="fill:#d5f516"/><path d="M100,103.54a1.1,1.1,0,0,1-.33.78l-9.49,9.49a1.11,1.11,0,1,1-1.57-1.56l9.5-9.5a1.11,1.11,0,0,1,1.89.79Z" transform="translate(255.44 211.7)" style="fill:#d5f516"/></g><g style="opacity:0.5"><path d="M379.53,210.22a.85.85,0,0,1-.23.58.81.81,0,0,1-1.15,0l-7-7a.81.81,0,0,1,0-1.15.83.83,0,0,1,1.15,0l7,7A.85.85,0,0,1,379.53,210.22Z" transform="translate(255.44 211.7)" style="fill:#d5f516"/><path d="M379.53,203.27a.83.83,0,0,1-.23.57l-7,7a.81.81,0,1,1-1.15-1.15l7-7a.83.83,0,0,1,1.15,0A.85.85,0,0,1,379.53,203.27Z" transform="translate(255.44 211.7)" style="fill:#d5f516"/></g><g style="opacity:0.5"><path d="M26.89,139.35a1,1,0,0,1,.29.69,1,1,0,0,1-1,1H14.46a1,1,0,0,1,0-1.94H26.21A1,1,0,0,1,26.89,139.35Z" transform="translate(255.44 211.7)" style="fill:#ebeced"/><path d="M21,133.48a1,1,0,0,1,.28.68v11.75a1,1,0,0,1-1.94,0V134.16a1,1,0,0,1,1-1A1,1,0,0,1,21,133.48Z" transform="translate(255.44 211.7)" style="fill:#ebeced"/></g><g style="opacity:0.5"><path d="M20.09,344.37a.93.93,0,0,1,.29.68,1,1,0,0,1-1,1H7.66a1,1,0,1,1,0-1.94H19.41A.93.93,0,0,1,20.09,344.37Z" transform="translate(255.44 211.7)" style="fill:#ebeced"/><path d="M14.22,338.49a1,1,0,0,1,.28.69v11.75a1,1,0,0,1-1.94,0V339.18a1,1,0,0,1,1-1A1,1,0,0,1,14.22,338.49Z" transform="translate(255.44 211.7)" style="fill:#ebeced"/></g></g></g></svg>