<svg xmlns="http://www.w3.org/2000/svg" xmlns:xlink="http://www.w3.org/1999/xlink" viewBox="0 0 201.9 30.69"><defs><linearGradient id="linear-gradient" x1="25.87" y1="8.64" x2="32.69" y2="-0.9" gradientUnits="userSpaceOnUse"><stop offset="0" stop-color="#0b0146"/><stop offset="0.19" stop-color="#163a37"/><stop offset="0.38" stop-color="#1f6a2b"/><stop offset="0.47" stop-color="#237d26"/><stop offset="0.6" stop-color="#3f9123"/><stop offset="0.87" stop-color="#76b91c"/><stop offset="1" stop-color="#8cc919"/></linearGradient><linearGradient id="linear-gradient-2" x1="39.14" y1="18.13" x2="45.96" y2="8.59" xlink:href="#linear-gradient"/><linearGradient id="linear-gradient-3" x1="32.33" y1="12.96" x2="39.13" y2="3.43" xlink:href="#linear-gradient"/></defs><g id="Capa_2" data-name="Capa 2"><g id="Capa_1-2" data-name="Capa 1"><path d="M70.48,20.56A1.84,1.84,0,0,0,71,19.2a11.75,11.75,0,0,0-1.19-5.34,9.13,9.13,0,0,0-3.4-3.72A9.74,9.74,0,0,0,61.3,8.8,9.68,9.68,0,0,0,52.47,14a11.6,11.6,0,0,0-1.28,5.53,11.19,11.19,0,0,0,1.36,5.53,10,10,0,0,0,3.79,3.8,11.14,11.14,0,0,0,9.27.66,10.34,10.34,0,0,0,3.23-1.79,1.59,1.59,0,0,0,.62-1.31,1.91,1.91,0,0,0-.7-1.36,1.78,1.78,0,0,0-1.15-.39h-.08a2.09,2.09,0,0,0-1.25.48,5.82,5.82,0,0,1-2,1.05,7.74,7.74,0,0,1-2.47.43,7,7,0,0,1-3.6-.92,6.36,6.36,0,0,1-2.45-2.43A5.72,5.72,0,0,1,55,21.13H69.16A1.91,1.91,0,0,0,70.48,20.56ZM55.7,16a6.44,6.44,0,0,1,2.23-2.6,6.27,6.27,0,0,1,3.37-1,5.81,5.81,0,0,1,3.23.84,6.18,6.18,0,0,1,2.09,2.59A6.08,6.08,0,0,1,67.21,18H55.1A5.69,5.69,0,0,1,55.7,16Z" style="fill:#1b1464"/><path d="M146.29,14a10.24,10.24,0,0,0-3.8-3.82,11.59,11.59,0,0,0-11,0A10.15,10.15,0,0,0,127.7,14a11,11,0,0,0-1.38,5.53A10.87,10.87,0,0,0,127.7,25a10.15,10.15,0,0,0,3.82,3.82,11.52,11.52,0,0,0,11,0A10.34,10.34,0,0,0,146.31,25a10.85,10.85,0,0,0,1.4-5.51A11.21,11.21,0,0,0,146.29,14ZM137,26.59a6.91,6.91,0,0,1-3.52-.91A6.64,6.64,0,0,1,131,23.17a7.25,7.25,0,0,1-.9-3.64,7.38,7.38,0,0,1,.9-3.66,6.52,6.52,0,0,1,2.45-2.52,7.28,7.28,0,0,1,7,0A6.45,6.45,0,0,1,143,15.86a7.54,7.54,0,0,1,.88,3.67,7.41,7.41,0,0,1-.88,3.65,6.56,6.56,0,0,1-2.43,2.5A6.92,6.92,0,0,1,137,26.59Z" style="fill:#1b1464"/><path d="M200.87,9.3A6.1,6.1,0,0,0,198,8.76a6.86,6.86,0,0,0-3.79,1.1c-.57.34-1.24.74-1.24,1.2v-.15a2.22,2.22,0,0,0-.86-1.41A2.38,2.38,0,0,0,190.56,9a2.82,2.82,0,0,0-1.73.52,2.2,2.2,0,0,0-.84,1.41V28.12a2.08,2.08,0,0,0,.76,1.4,2.16,2.16,0,0,0,1.52.53,3,3,0,0,0,1.8-.53c.35-.34.92-.82.92-1.4V17.19a4.06,4.06,0,0,1,.49-2.63,4.53,4.53,0,0,1,2.11-1.67,6.7,6.7,0,0,1,2.43-.42,8.45,8.45,0,0,1,.85,0l1.09.07a1.93,1.93,0,0,0,1.12-.21,1.58,1.58,0,0,0,.76-1.08A1.67,1.67,0,0,0,200.87,9.3Z" style="fill:#1b1464"/><path d="M36.16,29.93a9.28,9.28,0,0,1-9.24-9.52l.06-3a1.81,1.81,0,1,1,3.62.11l-.06,3a5.63,5.63,0,1,0,11.24-.05l0-2.95a1.82,1.82,0,0,1,3.63.09l-.05,2.9A9.28,9.28,0,0,1,36.16,29.93Z" style="fill:#1b1464"/><path d="M85.4,9.17a9.29,9.29,0,0,1,9.25,9.52l-.06,9.48a1.82,1.82,0,0,1-3.63-.1L91,18.64a5.62,5.62,0,1,0-11.23.05l-.05,9.41A1.82,1.82,0,0,1,76.11,28l0-9.36A9.27,9.27,0,0,1,85.4,9.17Z" style="fill:#1b1464"/><path d="M172.45,8.64A10.76,10.76,0,1,0,183.21,19.4,10.76,10.76,0,0,0,172.45,8.64Zm0,17.75a7,7,0,1,1,7-7A7,7,0,0,1,172.45,26.39Z" style="fill:#1b1464"/><path d="M183.21,18.69l-.06,9.48a1.82,1.82,0,0,1-3.63-.1l.06-9.43Z" style="fill:#1b1464"/><path d="M158.66,30.69A5.87,5.87,0,0,1,154.38,29a7.43,7.43,0,0,1-1.86-4.85V2.45a2.29,2.29,0,0,1,4.55,0V24.22a3,3,0,0,0,.46,2,1.47,1.47,0,0,0,1.23.43,2,2,0,0,1,2,2A2.06,2.06,0,0,1,158.66,30.69Z" style="fill:#1b1464"/><path d="M121.12,19.4a10.76,10.76,0,1,0-10.76,10.76A10.76,10.76,0,0,0,121.12,19.4Zm-3.78,0a7,7,0,1,1-7-7A7,7,0,0,1,117.34,19.4Z" style="fill:#1b1464"/><path d="M121.12,20.11l-.06-18.35a1.82,1.82,0,0,0-3.63.11l.06,18.29Z" style="fill:#1b1464"/><path d="M10.76,30.16A10.76,10.76,0,1,0,0,19.4,10.76,10.76,0,0,0,10.76,30.16Zm0-17.74a7,7,0,1,1-7,7A7,7,0,0,1,10.76,12.42Z" style="fill:#1b1464"/><path d="M0,20.11.06,1.76a1.82,1.82,0,0,1,3.63.11L3.63,20.16Z" style="fill:#1b1464"/><path d="M28.38,8.39H25.67a1.36,1.36,0,0,1,0-2.72h2.71a1.36,1.36,0,0,1,0,2.72Z" style="fill:url(#linear-gradient)"/><path d="M48.42,8.39H45.71a1.36,1.36,0,0,1,0-2.72h2.71a1.36,1.36,0,0,1,0,2.72Z" style="fill:url(#linear-gradient-2)"/><path d="M32.5,11.45l-.53,0A4.78,4.78,0,0,1,32,1.88a1.35,1.35,0,1,1,0,2.7,2.08,2.08,0,0,0,0,4.15h.16s2.27.21,3-1.26l.3-.62c1.07-2.21,2.4-5,6-5h.14a4.78,4.78,0,1,1,0,9.55,1.35,1.35,0,1,1,0-2.7,2.08,2.08,0,0,0,0-4.15h-.13C39.69,4.59,39,5.77,37.94,8l-.31.64C36.4,11.16,33.71,11.45,32.5,11.45Z" style="fill:url(#linear-gradient-3)"/></g></g></svg>