<svg xmlns="http://www.w3.org/2000/svg" xmlns:xlink="http://www.w3.org/1999/xlink" viewBox="0 0 74.48 82.08"><defs><linearGradient id="Degradado_sin_nombre_51" x1="11.75" y1="94.98" x2="77.75" y2="-13.02" gradientUnits="userSpaceOnUse"><stop offset="0" stop-color="#247d2c"/><stop offset="0.6" stop-color="#8bc321"/><stop offset="1" stop-color="#d5f516"/></linearGradient><linearGradient id="Degradado_sin_nombre_51-2" x1="-26.56" y1="71.56" x2="39.44" y2="-36.44" xlink:href="#Degradado_sin_nombre_51"/><linearGradient id="Degradado_sin_nombre_51-3" x1="16.13" y1="97.65" x2="82.13" y2="-10.35" xlink:href="#Degradado_sin_nombre_51"/><linearGradient id="Degradado_sin_nombre_51-4" x1="-6.19" y1="84.01" x2="59.81" y2="-23.99" xlink:href="#Degradado_sin_nombre_51"/></defs><g id="Capa_2" data-name="Capa 2"><g id="Capa_1-2" data-name="Capa 1"><path d="M37.17,82.08C22,82.08,10.12,69.84,10.12,54.22l.18-8.85a5.31,5.31,0,0,1,10.61.29l-.17,8.7c0,9.69,7.06,17.1,16.43,17.1S53.6,64.05,53.6,54.22l.14-8.63a5.31,5.31,0,1,1,10.61.25l-.14,8.5C64.21,69.84,52.33,82.08,37.17,82.08Z" style="fill:url(#Degradado_sin_nombre_51)"/><path d="M11.88,19.08H4a4,4,0,1,1,0-7.9h7.92a4,4,0,1,1,0,7.9Z" style="fill:url(#Degradado_sin_nombre_51-2)"/><path d="M70.52,19.08H62.59a4,4,0,1,1,0-7.9h7.93a4,4,0,1,1,0,7.9Z" style="fill:url(#Degradado_sin_nombre_51-3)"/><path d="M23.93,28c-.7,0-1.23,0-1.53-.06a14,14,0,0,1,.2-28,4,4,0,0,1,0,7.92A6.06,6.06,0,0,0,22.6,20l.45,0s6.65.64,8.79-3.68c.3-.6.59-1.2.88-1.79C35.84,8.12,39.73.08,50.19,0h.42a14,14,0,1,1,0,28,4,4,0,0,1,0-7.92,6.06,6.06,0,0,0,.1-12.12h-.4C45,7.94,43.06,11.4,39.85,18c-.3.63-.6,1.25-.91,1.87C35.35,27.15,27.47,28,23.93,28Z" style="fill:url(#Degradado_sin_nombre_51-4)"/></g></g></svg>