<svg xmlns="http://www.w3.org/2000/svg" viewBox="0 0 167.24 25.42"><g id="Capa_2" data-name="Capa 2"><g id="Capa_1-2" data-name="Capa 1"><path d="M58.38,17a1.51,1.51,0,0,0,.44-1.12,9.78,9.78,0,0,0-1-4.43A7.63,7.63,0,0,0,55,8.4a8.07,8.07,0,0,0-4.24-1.11,8.26,8.26,0,0,0-4.35,1.15,8.16,8.16,0,0,0-3,3.15,9.63,9.63,0,0,0-1.07,4.59,9.25,9.25,0,0,0,1.13,4.58,8.19,8.19,0,0,0,3.14,3.15,9.24,9.24,0,0,0,7.68.54A8.75,8.75,0,0,0,57,23a1.35,1.35,0,0,0,.51-1.09A1.6,1.6,0,0,0,57,20.76a1.46,1.46,0,0,0-1-.32h-.06a1.67,1.67,0,0,0-1,.39,4.75,4.75,0,0,1-1.62.87,6.2,6.2,0,0,1-2.05.36,5.82,5.82,0,0,1-3-.76,5.37,5.37,0,0,1-2-2,4.93,4.93,0,0,1-.65-1.79H57.28A1.61,1.61,0,0,0,58.38,17ZM46.14,13.25A5.25,5.25,0,0,1,48,11.1a5.15,5.15,0,0,1,2.79-.79,4.85,4.85,0,0,1,2.68.7,5.09,5.09,0,0,1,1.72,2.14,5,5,0,0,1,.5,1.71h-10A4.86,4.86,0,0,1,46.14,13.25Z" style="fill:#fff"/><path d="M121.18,11.6A8.31,8.31,0,0,0,118,8.44a9.54,9.54,0,0,0-9.08,0,8.36,8.36,0,0,0-3.17,3.16,9.11,9.11,0,0,0-1.15,4.58,9.07,9.07,0,0,0,1.15,4.55A8.36,8.36,0,0,0,109,23.89a9.54,9.54,0,0,0,9.08,0,8.41,8.41,0,0,0,3.16-3.16,8.87,8.87,0,0,0,1.17-4.56A9.32,9.32,0,0,0,121.18,11.6ZM113.5,22a5.67,5.67,0,0,1-2.92-.76,5.45,5.45,0,0,1-2-2.07,6,6,0,0,1-.75-3,6.12,6.12,0,0,1,.75-3,5.41,5.41,0,0,1,2-2.08,6,6,0,0,1,5.84,0,5.36,5.36,0,0,1,2,2.08,6.21,6.21,0,0,1,.73,3,6.11,6.11,0,0,1-.73,3,5.4,5.4,0,0,1-2,2.07A5.73,5.73,0,0,1,113.5,22Z" style="fill:#fff"/><path d="M166.39,7.7A5.14,5.14,0,0,0,164,7.26a5.65,5.65,0,0,0-3.14.91c-.47.28-1,.61-1,1V9c0-.49-.43-.88-.72-1.17a1.92,1.92,0,0,0-1.3-.43,2.27,2.27,0,0,0-1.43.43,1.83,1.83,0,0,0-.7,1.17V23.29a1.75,1.75,0,0,0,.63,1.17,1.85,1.85,0,0,0,1.26.43,2.5,2.5,0,0,0,1.49-.43c.29-.29.77-.68.77-1.17v-9a3.39,3.39,0,0,1,.4-2.18A3.73,3.73,0,0,1,162,10.68a5.58,5.58,0,0,1,2-.35l.71,0,.9.06a1.66,1.66,0,0,0,.93-.17,1.35,1.35,0,0,0,.63-.9A1.39,1.39,0,0,0,166.39,7.7Z" style="fill:#fff"/><path d="M30,24.8a7.69,7.69,0,0,1-7.65-7.89l.05-2.51a1.5,1.5,0,0,1,3,.08L25.3,17a4.66,4.66,0,1,0,9.31,0l0-2.45a1.5,1.5,0,0,1,3,.07l0,2.41A7.69,7.69,0,0,1,30,24.8Z" style="fill:#fff"/><path d="M70.74,7.59a7.69,7.69,0,0,1,7.66,7.89l-.05,7.85a1.5,1.5,0,1,1-3-.08l.05-7.81a4.66,4.66,0,1,0-9.31,0l0,7.79a1.51,1.51,0,1,1-3-.07l.05-7.75A7.69,7.69,0,0,1,70.74,7.59Z" style="fill:#fff"/><path d="M142.85,7.16a8.92,8.92,0,1,0,8.91,8.91A8.91,8.91,0,0,0,142.85,7.16Zm0,14.7a5.79,5.79,0,1,1,5.78-5.79A5.78,5.78,0,0,1,142.85,21.86Z" style="fill:#fff"/><path d="M151.76,15.48l0,7.85a1.5,1.5,0,1,1-3-.08l0-7.81Z" style="fill:#fff"/><path d="M131.43,25.42A4.88,4.88,0,0,1,127.88,24a6.14,6.14,0,0,1-1.54-4V2a1.9,1.9,0,0,1,3.77,0v18a2.44,2.44,0,0,0,.38,1.66,1.23,1.23,0,0,0,1,.36,1.64,1.64,0,0,1,1.63,1.67A1.71,1.71,0,0,1,131.43,25.42Z" style="fill:#fff"/><path d="M100.33,16.07A8.92,8.92,0,1,0,91.41,25,8.91,8.91,0,0,0,100.33,16.07Zm-3.13,0a5.79,5.79,0,1,1-5.79-5.78A5.79,5.79,0,0,1,97.2,16.07Z" style="fill:#fff"/><path d="M100.33,16.66l0-15.2a1.51,1.51,0,0,0-3,.09l0,15.15Z" style="fill:#fff"/><path d="M8.91,25A8.92,8.92,0,1,0,0,16.07,8.92,8.92,0,0,0,8.91,25Zm0-14.7a5.79,5.79,0,1,1-5.78,5.78A5.78,5.78,0,0,1,8.91,10.29Z" style="fill:#fff"/><path d="M0,16.66.05,1.46A1.5,1.5,0,0,1,1.59,0,1.52,1.52,0,0,1,3.06,1.55L3,16.7Z" style="fill:#fff"/><path d="M23.51,7H21.26a1.13,1.13,0,0,1,0-2.26h2.25a1.13,1.13,0,0,1,0,2.26Z" style="fill:#fff"/><path d="M40.11,7H37.87a1.13,1.13,0,0,1,0-2.26h2.24a1.13,1.13,0,0,1,0,2.26Z" style="fill:#fff"/><path d="M26.92,9.49l-.43,0a4,4,0,0,1,.05-7.92,1.13,1.13,0,0,1,0,2.25,1.72,1.72,0,0,0,0,3.43h.13s1.88.17,2.49-1l.25-.51c.88-1.83,2-4.1,4.95-4.12h.11a4,4,0,1,1,0,7.92,1.12,1.12,0,1,1,0-2.24,1.72,1.72,0,0,0,0-3.43h-.11c-1.51,0-2,1-3,2.86l-.26.53A4.59,4.59,0,0,1,26.92,9.49Z" style="fill:#fff"/></g></g></svg>