<svg xmlns="http://www.w3.org/2000/svg" viewBox="0 0 74.48 82.08"><g id="Capa_2" data-name="Capa 2"><g id="Capa_1-2" data-name="Capa 1"><path d="M37.17,82.08C22,82.08,10.12,69.84,10.12,54.22l.18-8.85a5.31,5.31,0,0,1,10.61.29l-.17,8.7c0,9.69,7.06,17.1,16.43,17.1S53.6,64.05,53.6,54.22l.14-8.63a5.31,5.31,0,1,1,10.61.25l-.14,8.5C64.21,69.84,52.33,82.08,37.17,82.08Z" style="fill:#fff"/><path d="M11.88,19.08H4a4,4,0,1,1,0-7.9h7.92a4,4,0,1,1,0,7.9Z" style="fill:#fff"/><path d="M70.52,19.08H62.59a4,4,0,1,1,0-7.9h7.93a4,4,0,1,1,0,7.9Z" style="fill:#fff"/><path d="M23.93,28c-.7,0-1.23,0-1.53-.06a14,14,0,0,1,.2-28,4,4,0,0,1,0,7.92A6.06,6.06,0,0,0,22.6,20l.45,0s6.65.64,8.79-3.68c.3-.6.59-1.2.88-1.79C35.84,8.12,39.73.08,50.19,0h.42a14,14,0,1,1,0,28,4,4,0,0,1,0-7.92,6.06,6.06,0,0,0,.1-12.12h-.4C45,7.94,43.06,11.4,39.85,18c-.3.63-.6,1.25-.91,1.87C35.35,27.15,27.47,28,23.93,28Z" style="fill:#fff"/></g></g></svg>